<svg width="152" height="150" viewBox="0 0 152 150" fill="none" xmlns="http://www.w3.org/2000/svg">
<path d="M131.427 104.943C93.9918 89.9855 56.5624 120.116 19.1329 105.164V47.0675C56.5624 62.0193 93.9918 31.8888 131.427 46.8464V104.943Z" fill="#E54F38" stroke="#263238" stroke-linecap="round" stroke-linejoin="round"/>
<path d="M124.899 60.6521C119.557 59.2267 115.232 54.5899 115.232 49.2259C115.232 48.9641 115.232 48.7081 115.273 48.4463C88.7951 45.741 62.3171 59.0813 35.845 56.5912C35.845 56.8472 35.8857 57.109 35.8857 57.3766C35.8857 62.6941 31.5551 66.755 26.2188 65.3761C25.858 65.2819 25.5029 65.1673 25.1551 65.0329V90.1542C25.5038 90.2182 25.8584 90.288 26.2188 90.3811C31.5551 91.7541 35.8857 96.3618 35.8857 101.726C35.8847 102.359 35.8204 102.99 35.6939 103.611C62.2706 106.188 88.8474 92.7373 115.418 95.5182C115.295 94.8857 115.233 94.2428 115.232 93.5984C115.232 88.2751 119.557 84.2491 124.899 85.6745C125.091 85.7269 125.277 85.7967 125.48 85.8607V60.7801C125.248 60.7393 125.062 60.7044 124.899 60.6521Z" fill="white" stroke="#263238" stroke-linecap="round" stroke-linejoin="round"/>
<path d="M89.2194 73.6956C89.2194 81.381 82.9821 88.7056 75.2684 90.3055C67.5546 91.9054 61.3173 86.7275 61.3173 79.0015C61.3173 71.2754 67.5604 63.9973 75.2684 62.3916C82.9763 60.7859 89.2194 65.9696 89.2194 73.6956Z" fill="#E54F38" stroke="#263238" stroke-linecap="round" stroke-linejoin="round"/>
<path d="M75.0359 86.8497V84.8251C73.6349 85.0461 72.5828 84.8251 71.8852 84.1036C71.1877 83.3822 70.804 82.1954 70.7227 80.4617L73.8442 79.3679C73.8388 79.9316 73.8992 80.4939 74.0244 81.0435C74.082 81.3724 74.2526 81.6708 74.5069 81.8871C74.6186 81.9612 74.7445 82.0113 74.8765 82.0344C75.0086 82.0574 75.144 82.0528 75.2742 82.0209C75.433 82.0009 75.5842 81.9408 75.7134 81.8461C75.8425 81.7514 75.9455 81.6254 76.0124 81.4798C76.1257 81.2109 76.185 80.9223 76.1868 80.6304C76.2186 80.0488 76.0504 79.4739 75.7102 79.0014C75.3375 78.5434 74.8916 78.1502 74.3906 77.8379L72.9723 76.8896C72.5791 76.6165 72.2078 76.313 71.862 75.982C71.5232 75.6486 71.251 75.2537 71.0598 74.8184C70.8389 74.2639 70.734 73.6698 70.7517 73.0731C70.7139 71.8863 71.1085 70.7263 71.862 69.8093C72.6434 68.8989 73.6871 68.2527 74.8498 67.9592V66.0219L75.8904 65.8124V67.7323C76.5255 67.595 77.1871 67.6497 77.7912 67.8894C78.2409 68.0899 78.6154 68.428 78.8608 68.8552C79.1014 69.2874 79.2666 69.7577 79.349 70.2456C79.4334 70.7185 79.4839 71.1967 79.5002 71.6768L76.338 72.7007C76.3305 72.2768 76.3014 71.8534 76.2508 71.4324C76.2281 71.1488 76.1275 70.877 75.9601 70.647C75.873 70.5594 75.7621 70.4994 75.6411 70.4746C75.5201 70.4497 75.3945 70.4612 75.28 70.5074C75.1168 70.5371 74.9631 70.6054 74.8317 70.7066C74.7002 70.8078 74.5948 70.939 74.5243 71.0892C74.3723 71.3681 74.2886 71.6792 74.2802 71.9968C74.2594 72.2641 74.293 72.5329 74.3789 72.7869C74.4648 73.0409 74.6013 73.2748 74.7801 73.4745C75.1147 73.8129 75.4806 74.1187 75.8729 74.3879L77.2564 75.3129C77.7148 75.6359 78.1429 76.0001 78.5352 76.4009C78.9243 76.8116 79.2373 77.2883 79.4595 77.8088C79.7069 78.43 79.8256 79.095 79.8083 79.7636C79.8083 80.478 79.6557 81.1842 79.3607 81.8347C79.0597 82.492 78.6217 83.0771 78.076 83.551C77.4926 84.0492 76.8114 84.4198 76.0764 84.6389V86.6809L75.0359 86.8497Z" fill="white"/>
</svg>
