<svg width="2913" height="2913" viewBox="0 0 2913 2913" fill="none" xmlns="http://www.w3.org/2000/svg">
<path d="M2535.07 2385.86C2535.36 2385.86 2540.48 2366.06 2540.89 2364.77C2542.99 2349.74 2538.21 2319.5 2522.95 2312.34C2520.38 2311.18 2517.6 2310.57 2514.78 2310.56C2511.96 2310.54 2509.17 2311.12 2506.59 2312.26C2504.01 2313.4 2501.7 2315.07 2499.81 2317.16C2497.92 2319.25 2496.5 2321.72 2495.63 2324.4C2491.49 2335.7 2496.73 2349.51 2502.85 2359.01C2509.84 2369.96 2535.07 2385.81 2535.07 2385.86Z" fill="#263238"/>
<path d="M2233.86 2379.28C2246.04 2384.64 2275.81 2383.94 2275.81 2383.94C2275.81 2383.94 2269.4 2364.42 2268.88 2363.26C2262.35 2349.62 2241.67 2327.02 2224.83 2329.29C2222.05 2329.75 2219.4 2330.78 2217.04 2332.33C2214.69 2333.88 2212.68 2335.91 2211.17 2338.28C2209.65 2340.66 2208.65 2343.33 2208.23 2346.12C2207.82 2348.9 2208 2351.75 2208.76 2354.46C2211.55 2366.12 2223.49 2374.74 2233.86 2379.28Z" fill="#263238"/>
<path d="M2244.12 2465.56C2256.76 2467.37 2283.33 2459.74 2285.42 2459.1C2289.81 2474.29 2295.2 2489.18 2301.56 2503.66C2305.23 2512.11 2309.19 2520.56 2313.21 2528.95C2310.82 2525.4 2308.61 2522.25 2308.26 2521.78C2298.36 2510.13 2272.43 2494.05 2256.82 2500.69C2254.26 2501.87 2251.98 2503.57 2250.12 2505.68C2248.26 2507.79 2246.87 2510.28 2246.03 2512.96C2245.2 2515.65 2244.94 2518.48 2245.27 2521.28C2245.6 2524.07 2246.52 2526.77 2247.96 2529.18C2253.79 2539.67 2267.54 2544.91 2278.72 2546.66C2289.91 2548.41 2312.92 2542.06 2318.75 2540.14C2320.38 2543.34 2321.89 2546.55 2323.52 2549.75C2331.21 2565.07 2338.96 2580.33 2346.13 2595.54C2348.63 2600.9 2350.91 2606.26 2353.24 2611.62C2351.03 2608.47 2349.22 2605.8 2348.87 2605.45C2338.96 2593.8 2313.1 2577.66 2297.48 2584.3C2294.92 2585.47 2292.63 2587.17 2290.77 2589.29C2288.9 2591.41 2287.5 2593.89 2286.66 2596.58C2285.82 2599.28 2285.55 2602.12 2285.88 2604.92C2286.21 2607.72 2287.13 2610.42 2288.57 2612.84C2294.39 2623.33 2308.15 2628.52 2319.33 2630.32C2330.52 2632.13 2351.26 2626.42 2358.42 2624.5C2360.64 2630.32 2362.85 2635.62 2364.71 2641.16C2365.88 2644.89 2367.34 2648.44 2368.33 2652.35L2371.47 2663.59C2373.22 2670.87 2375.03 2678.33 2376.54 2685.44C2377.65 2690.39 2378.58 2695.11 2379.57 2699.89C2377.13 2694.53 2372.11 2684.1 2371.59 2683.28C2363.55 2670.47 2340.42 2650.42 2323.99 2654.62C2321.28 2655.39 2318.75 2656.71 2316.59 2658.52C2314.42 2660.33 2312.66 2662.58 2311.43 2665.11C2310.19 2667.65 2309.5 2670.42 2309.41 2673.23C2309.31 2676.06 2309.82 2678.86 2310.88 2681.48C2314.96 2692.72 2327.84 2699.94 2338.67 2703.26C2350.33 2706.88 2376.95 2703.56 2380.27 2703.26C2381.84 2711.13 2383.3 2718.82 2384.58 2726.04C2387.26 2741.25 2389.3 2755.17 2390.87 2766.83H2401.94C2400.08 2754.65 2397.63 2740.32 2394.43 2724.41C2392.85 2716.37 2391.05 2707.87 2389.07 2699.13C2397.03 2695.93 2404.81 2692.29 2412.37 2688.23C2421.05 2697.61 2443.31 2708.62 2446.16 2710.02C2443.13 2717.48 2440.33 2724.7 2437.19 2731.46C2431.36 2744.75 2425.89 2756.57 2420.99 2766.83H2432.94C2437.13 2757.5 2441.68 2746.96 2446.45 2735.37C2449.54 2727.79 2452.75 2719.69 2455.89 2711.31C2459.1 2711.94 2485.02 2717.13 2497.37 2714.51C2508.38 2712 2521.78 2705.77 2526.5 2694.87C2527.75 2692.35 2528.44 2689.59 2528.56 2686.78C2528.66 2683.96 2528.18 2681.16 2527.14 2678.55C2526.09 2675.93 2524.51 2673.57 2522.5 2671.6C2520.48 2669.64 2518.07 2668.12 2515.43 2667.14C2499.3 2661.73 2474.65 2679.96 2465.8 2692.2C2465.27 2692.9 2460.38 2701.34 2457.35 2706.7C2458.63 2703.26 2459.91 2700 2461.2 2696.45C2463.76 2689.46 2466.14 2682.35 2468.71 2674.78C2469.82 2671.1 2470.92 2667.32 2472.03 2663.59C2473.14 2659.86 2474.07 2655.72 2475.06 2651.94C2477.27 2642.73 2479.02 2633.35 2480.6 2623.8C2486.71 2626.01 2508.62 2633.65 2519.98 2632.89C2531.34 2632.13 2545.38 2627.93 2551.96 2617.86C2553.58 2615.54 2554.69 2612.92 2555.23 2610.15C2555.77 2607.38 2555.71 2604.53 2555.08 2601.78C2554.44 2599.03 2553.23 2596.45 2551.53 2594.2C2549.83 2591.95 2547.68 2590.09 2545.21 2588.73C2530.12 2580.92 2503.08 2595.25 2492.36 2606.2C2491.66 2606.85 2484.85 2615.41 2481.18 2620.13C2482.05 2614.3 2482.98 2608.47 2483.68 2602.65C2485.78 2585.81 2487.41 2568.74 2489.04 2551.67C2489.57 2546.49 2490.15 2541.24 2490.67 2536.06C2492.83 2536.87 2518.7 2546.49 2531.46 2545.61C2542.76 2544.8 2556.91 2540.66 2563.44 2530.64C2565.06 2528.33 2566.18 2525.71 2566.72 2522.94C2567.26 2520.18 2567.21 2517.33 2566.58 2514.58C2565.95 2511.83 2564.75 2509.25 2563.05 2507C2561.35 2504.75 2559.2 2502.88 2556.74 2501.51C2541.65 2493.76 2514.62 2508.09 2503.9 2518.99C2503.08 2519.8 2493.24 2532.1 2490.9 2535.36C2492.07 2523.71 2493.41 2512.46 2495.16 2501.28C2497.44 2486.14 2500.71 2471.18 2504.95 2456.47C2505.94 2456.88 2532.85 2467.02 2545.73 2466.09C2557.03 2465.33 2571.19 2461.14 2577.72 2451.11C2579.34 2448.81 2580.47 2446.19 2581.01 2443.42C2581.56 2440.65 2581.51 2437.8 2580.88 2435.05C2580.25 2432.3 2579.04 2429.72 2577.34 2427.46C2575.64 2425.21 2573.49 2423.35 2571.01 2421.98C2555.92 2414.18 2528.89 2428.51 2518.11 2439.46C2517.42 2440.16 2509.96 2449.48 2506.46 2454.03L2505.59 2453.56C2510.26 2438.88 2516.22 2424.65 2523.41 2411.03C2527.26 2403.52 2531.4 2396.47 2535.53 2389.77C2540.37 2392.16 2562.51 2402.94 2574.28 2403.4C2586.04 2403.87 2600.14 2401.3 2607.72 2392.04C2609.58 2389.92 2610.98 2387.44 2611.82 2384.74C2612.66 2382.05 2612.93 2379.21 2612.6 2376.4C2612.27 2373.6 2611.35 2370.9 2609.91 2368.47C2608.46 2366.05 2606.53 2363.95 2604.22 2362.33C2590.06 2352.95 2561.63 2364.25 2549.81 2373.69C2549.17 2374.21 2543.17 2380.16 2538.86 2384.53C2540.78 2381.55 2542.7 2378.41 2544.68 2375.55C2551.79 2364.83 2558.95 2355.51 2565.36 2347.29C2569.03 2342.64 2572.47 2338.5 2575.68 2334.65C2581.5 2334.65 2605.62 2333.84 2616.16 2328.83C2626.71 2323.82 2638.07 2315.08 2640.58 2303.37C2641.25 2300.63 2641.34 2297.78 2640.84 2295.01C2640.34 2292.23 2639.27 2289.6 2637.69 2287.26C2636.11 2284.93 2634.05 2282.95 2631.66 2281.46C2629.27 2279.97 2626.59 2279 2623.8 2278.61C2606.9 2276.8 2586.86 2299.93 2580.68 2313.56C2580.16 2314.73 2573.98 2334.42 2574.34 2334.42H2575.09C2571.89 2338.09 2568.51 2341.99 2564.9 2346.07C2558.31 2354.17 2550.91 2363.55 2543.57 2373.98C2535.51 2385.28 2528.12 2397.05 2521.43 2409.23C2513.88 2422.81 2507.57 2437.04 2502.56 2451.76V2452.28C2502.56 2447.33 2502.56 2433.4 2502.27 2432.36C2500.34 2417.32 2487.76 2389.42 2471.04 2386.33C2468.24 2385.87 2465.38 2386.02 2462.64 2386.75C2459.9 2387.48 2457.34 2388.78 2455.14 2390.57C2452.94 2392.36 2451.14 2394.59 2449.87 2397.13C2448.59 2399.66 2447.86 2402.43 2447.73 2405.26C2446.74 2416.92 2455.42 2429.15 2463.87 2436.67C2473.37 2445.17 2499.76 2453.39 2501.86 2454.14C2497.15 2469.25 2493.43 2484.64 2490.73 2500.23C2489.1 2509.32 2487.76 2518.52 2486.54 2527.79C2486.54 2523.47 2486.54 2519.63 2486.54 2519.1C2484.55 2504.07 2471.97 2476.17 2455.31 2473.08C2452.51 2472.64 2449.66 2472.78 2446.93 2473.51C2444.2 2474.24 2441.65 2475.54 2439.45 2477.32C2437.25 2479.1 2435.45 2481.33 2434.17 2483.85C2432.89 2486.37 2432.15 2489.13 2432.01 2491.95C2431.07 2503.9 2439.7 2515.84 2448.14 2523.42C2456.59 2530.99 2479.08 2538.5 2485.02 2540.43C2484.61 2543.98 2484.15 2547.48 2483.68 2551.03C2481.7 2568.04 2479.72 2585.06 2477.27 2601.72C2476.46 2607.54 2475.35 2613.37 2474.36 2619.19C2474.36 2615.41 2474.36 2612.15 2474.36 2611.68C2472.44 2596.65 2459.85 2568.74 2443.13 2565.66C2440.33 2565.2 2437.47 2565.34 2434.73 2566.07C2431.99 2566.8 2429.44 2568.11 2427.23 2569.89C2425.03 2571.68 2423.23 2573.92 2421.96 2576.45C2420.68 2578.98 2419.96 2581.76 2419.83 2584.59C2418.84 2596.24 2427.52 2608.47 2435.91 2615.99C2444.3 2623.51 2464.69 2630.38 2471.74 2632.65C2470.51 2638.48 2469.29 2644.31 2467.84 2650.13C2466.73 2653.98 2465.97 2657.71 2464.63 2661.49C2463.29 2665.28 2462.24 2668.95 2461.08 2672.62C2458.51 2679.61 2455.95 2686.89 2453.27 2693.65C2451.47 2698.37 2449.66 2702.86 2447.79 2707.34C2448.73 2701.52 2450.3 2689.87 2450.3 2689.11C2450.11 2675.78 2446.52 2662.73 2439.87 2651.18C2439.92 2649.7 2439.82 2648.21 2439.58 2646.75C2439.23 2643.96 2438.3 2641.27 2436.84 2638.86C2435.38 2636.45 2433.43 2634.38 2431.11 2632.77C2428.8 2631.16 2426.17 2630.06 2423.4 2629.54C2420.64 2629.02 2417.79 2629.09 2415.05 2629.74C2398.62 2634.11 2388.25 2662.89 2387.44 2677.98C2387.44 2678.91 2388.02 2688.64 2388.48 2694.76C2387.67 2691.2 2386.91 2687.71 2385.98 2684.1C2384.29 2676.82 2382.37 2669.65 2380.16 2661.9C2379.05 2658.17 2377.94 2654.44 2376.77 2650.65C2375.61 2646.87 2374.15 2643.08 2372.81 2639C2369.61 2630.09 2365.88 2621.53 2361.92 2612.5C2368.27 2610.92 2390.76 2605.21 2399.73 2598.28C2408.7 2591.35 2418.26 2580.16 2418.14 2568.16C2418.21 2565.34 2417.7 2562.54 2416.62 2559.94C2415.54 2557.34 2413.93 2554.99 2411.88 2553.05C2409.84 2551.11 2407.41 2549.62 2404.75 2548.68C2402.1 2547.74 2399.28 2547.37 2396.47 2547.59C2379.63 2549.46 2364.95 2576.32 2361.92 2591.17C2361.92 2592.1 2360.7 2602.82 2360.29 2608.94C2357.9 2603.7 2355.51 2598.4 2352.89 2593.15C2345.31 2577.95 2337.22 2562.86 2329.23 2547.71L2321.95 2533.79C2324.23 2533.26 2351.08 2527.03 2361.16 2519.28C2370.13 2512.4 2379.69 2501.1 2379.57 2489.16C2379.64 2486.34 2379.13 2483.54 2378.05 2480.94C2376.97 2478.34 2375.36 2475.99 2373.31 2474.05C2371.27 2472.11 2368.84 2470.62 2366.19 2469.68C2363.53 2468.74 2360.71 2468.37 2357.9 2468.59C2341 2470.4 2326.38 2497.31 2323.35 2512.11C2323.35 2513.28 2321.66 2528.95 2321.49 2532.91C2316.18 2522.72 2311 2512.46 2306.28 2502.15C2299.85 2488.27 2294.32 2473.98 2289.74 2459.39C2290.78 2459.39 2318.87 2452.8 2329.18 2444.82C2338.15 2437.95 2347.64 2426.71 2347.59 2414.7C2347.66 2411.89 2347.14 2409.09 2346.06 2406.48C2344.98 2403.88 2343.37 2401.53 2341.33 2399.6C2339.29 2397.66 2336.86 2396.17 2334.2 2395.23C2331.55 2394.29 2328.72 2393.92 2325.91 2394.14C2309.02 2396 2294.39 2422.86 2291.31 2437.72C2291.31 2438.65 2290.03 2450.59 2289.68 2456.3H2288.69C2284.48 2441.48 2281.6 2426.31 2280.06 2410.97C2279.13 2402.58 2278.67 2394.43 2278.43 2386.56C2283.79 2385.92 2308.2 2382.66 2318.28 2376.54C2328.36 2370.43 2338.67 2360.52 2339.9 2348.64C2340.28 2345.84 2340.07 2343 2339.29 2340.29C2338.51 2337.58 2337.16 2335.07 2335.34 2332.92C2333.52 2330.77 2331.27 2329.02 2328.74 2327.79C2326.2 2326.57 2323.43 2325.89 2320.61 2325.8C2303.6 2325.8 2286.12 2350.85 2281.46 2365.3C2281.17 2366.06 2279.48 2374.33 2278.31 2380.33C2278.31 2376.78 2278.31 2373.1 2278.31 2369.67C2278.31 2356.85 2279.13 2345.08 2279.95 2334.71C2280.41 2328.89 2281 2323.47 2281.58 2318.46C2286.53 2315.08 2306.11 2301.27 2312.17 2291.36C2318.22 2281.46 2322.88 2267.71 2318.46 2256.41C2317.51 2253.76 2316.01 2251.34 2314.07 2249.3C2312.13 2247.26 2309.78 2245.66 2307.18 2244.59C2304.57 2243.52 2301.78 2243 2298.96 2243.08C2296.14 2243.16 2293.38 2243.83 2290.84 2245.05C2275.75 2252.86 2271.79 2283.21 2274.3 2298.13C2274.3 2299.46 2280.12 2319.27 2280.47 2319.1H2280.76C2280.12 2323.88 2279.42 2329 2278.84 2334.65C2277.79 2345.08 2276.74 2356.79 2276.45 2369.61C2275.96 2383.48 2276.29 2397.37 2277.44 2411.21C2278.63 2426.71 2281.2 2442.07 2285.13 2457.12V2457.64C2282.45 2453.45 2274.59 2441.97 2273.89 2441.15C2263.98 2429.5 2238.12 2413.36 2222.5 2420.01C2219.94 2421.18 2217.65 2422.88 2215.78 2424.99C2213.92 2427.11 2212.52 2429.6 2211.68 2432.29C2210.84 2434.98 2210.58 2437.82 2210.9 2440.62C2211.23 2443.43 2212.15 2446.13 2213.59 2448.55C2219.12 2458.57 2232.93 2463.93 2244.12 2465.56Z" fill="#263238"/>
<path opacity="0.3" d="M2233.86 2379.28C2246.04 2384.64 2275.81 2383.94 2275.81 2383.94C2275.81 2383.94 2269.4 2364.42 2268.88 2363.26C2262.35 2349.62 2241.67 2327.02 2224.83 2329.29C2222.05 2329.75 2219.4 2330.78 2217.04 2332.33C2214.69 2333.88 2212.68 2335.91 2211.17 2338.28C2209.65 2340.66 2208.65 2343.33 2208.23 2346.12C2207.82 2348.9 2208 2351.75 2208.76 2354.46C2211.55 2366.12 2223.49 2374.74 2233.86 2379.28Z" fill="#263238"/>
<path opacity="0.3" d="M2535.07 2385.86C2535.36 2385.86 2540.48 2366.06 2540.89 2364.77C2542.99 2349.74 2538.21 2319.5 2522.95 2312.34C2520.38 2311.18 2517.6 2310.57 2514.78 2310.56C2511.96 2310.54 2509.17 2311.12 2506.59 2312.26C2504.01 2313.4 2501.7 2315.07 2499.81 2317.16C2497.92 2319.25 2496.5 2321.72 2495.63 2324.4C2491.49 2335.7 2496.73 2349.51 2502.85 2359.01C2509.84 2369.96 2535.07 2385.81 2535.07 2385.86Z" fill="white"/>
<path opacity="0.3" d="M2244.12 2465.56C2256.76 2467.37 2283.33 2459.74 2285.42 2459.1C2289.81 2474.29 2295.2 2489.18 2301.56 2503.66C2305.23 2512.11 2309.19 2520.56 2313.21 2528.95C2310.82 2525.4 2308.61 2522.25 2308.26 2521.78C2298.36 2510.13 2272.43 2494.05 2256.82 2500.69C2254.26 2501.87 2251.98 2503.57 2250.12 2505.68C2248.26 2507.79 2246.87 2510.28 2246.03 2512.96C2245.2 2515.65 2244.94 2518.48 2245.27 2521.28C2245.6 2524.07 2246.52 2526.77 2247.96 2529.18C2253.79 2539.67 2267.54 2544.91 2278.72 2546.66C2289.91 2548.41 2312.92 2542.06 2318.75 2540.14C2320.38 2543.34 2321.9 2546.55 2323.52 2549.75C2331.21 2565.07 2338.96 2580.33 2346.13 2595.54C2348.63 2600.9 2350.91 2606.26 2353.24 2611.62C2351.03 2608.47 2349.22 2605.8 2348.87 2605.45C2338.96 2593.8 2313.1 2577.66 2297.48 2584.3C2294.92 2585.47 2292.63 2587.17 2290.77 2589.29C2288.9 2591.41 2287.5 2593.89 2286.66 2596.58C2285.82 2599.28 2285.55 2602.12 2285.88 2604.92C2286.21 2607.72 2287.13 2610.42 2288.57 2612.84C2294.39 2623.33 2308.15 2628.52 2319.33 2630.32C2330.52 2632.13 2351.26 2626.42 2358.42 2624.5C2360.64 2630.32 2362.85 2635.62 2364.71 2641.16C2365.88 2644.89 2367.34 2648.44 2368.33 2652.35L2371.47 2663.59C2373.22 2670.87 2375.03 2678.33 2376.54 2685.44C2377.65 2690.39 2378.58 2695.11 2379.57 2699.89C2377.13 2694.53 2372.11 2684.1 2371.59 2683.28C2363.55 2670.47 2340.42 2650.42 2323.99 2654.62C2321.28 2655.39 2318.75 2656.71 2316.59 2658.52C2314.42 2660.33 2312.66 2662.58 2311.43 2665.11C2310.19 2667.65 2309.5 2670.42 2309.41 2673.23C2309.31 2676.06 2309.82 2678.86 2310.88 2681.48C2314.96 2692.72 2327.84 2699.94 2338.67 2703.26C2350.33 2706.88 2376.95 2703.56 2380.27 2703.26C2381.84 2711.13 2383.3 2718.82 2384.58 2726.04C2387.26 2741.25 2389.3 2755.17 2390.87 2766.83H2401.94C2400.08 2754.65 2397.63 2740.32 2394.43 2724.41C2392.85 2716.37 2391.05 2707.87 2389.07 2699.13C2397.03 2695.93 2404.81 2692.29 2412.37 2688.23C2421.05 2697.61 2443.31 2708.62 2446.16 2710.02C2443.13 2717.48 2440.34 2724.7 2437.19 2731.46C2431.36 2744.75 2425.89 2756.57 2420.99 2766.83H2432.94C2437.13 2757.5 2441.68 2746.96 2446.45 2735.37C2449.54 2727.79 2452.75 2719.69 2455.89 2711.31C2459.1 2711.94 2485.02 2717.13 2497.37 2714.51C2508.38 2712 2521.78 2705.77 2526.5 2694.87C2527.75 2692.35 2528.44 2689.59 2528.56 2686.78C2528.66 2683.96 2528.18 2681.16 2527.14 2678.55C2526.09 2675.93 2524.51 2673.57 2522.5 2671.6C2520.48 2669.64 2518.07 2668.12 2515.43 2667.14C2499.3 2661.73 2474.65 2679.96 2465.8 2692.2C2465.27 2692.89 2460.38 2701.34 2457.35 2706.7C2458.63 2703.26 2459.91 2700 2461.2 2696.45C2463.76 2689.46 2466.14 2682.35 2468.71 2674.78C2469.82 2671.1 2470.92 2667.32 2472.03 2663.59C2473.14 2659.86 2474.07 2655.72 2475.06 2651.94C2477.27 2642.73 2479.02 2633.35 2480.6 2623.8C2486.71 2626.01 2508.62 2633.65 2519.98 2632.89C2531.34 2632.13 2545.38 2627.93 2551.96 2617.86C2553.58 2615.54 2554.69 2612.92 2555.23 2610.15C2555.77 2607.38 2555.71 2604.53 2555.08 2601.78C2554.44 2599.03 2553.23 2596.45 2551.53 2594.2C2549.83 2591.95 2547.68 2590.09 2545.21 2588.73C2530.12 2580.92 2503.08 2595.25 2492.36 2606.2C2491.66 2606.85 2484.85 2615.41 2481.18 2620.13C2482.05 2614.3 2482.98 2608.47 2483.68 2602.65C2485.78 2585.81 2487.41 2568.74 2489.04 2551.67C2489.57 2546.49 2490.15 2541.24 2490.67 2536.06C2492.83 2536.87 2518.7 2546.49 2531.46 2545.61C2542.76 2544.8 2556.91 2540.66 2563.44 2530.64C2565.06 2528.33 2566.18 2525.71 2566.72 2522.94C2567.26 2520.18 2567.21 2517.33 2566.58 2514.58C2565.95 2511.83 2564.75 2509.25 2563.05 2507C2561.35 2504.75 2559.2 2502.88 2556.74 2501.51C2541.65 2493.76 2514.62 2508.09 2503.9 2518.99C2503.08 2519.8 2493.24 2532.1 2490.9 2535.36C2492.07 2523.71 2493.41 2512.46 2495.16 2501.28C2497.44 2486.14 2500.71 2471.18 2504.95 2456.47C2505.94 2456.88 2532.85 2467.02 2545.73 2466.09C2557.03 2465.33 2571.19 2461.14 2577.72 2451.11C2579.34 2448.81 2580.47 2446.19 2581.01 2443.42C2581.56 2440.65 2581.51 2437.8 2580.88 2435.05C2580.25 2432.3 2579.04 2429.72 2577.34 2427.46C2575.64 2425.21 2573.49 2423.35 2571.01 2421.98C2555.92 2414.18 2528.89 2428.51 2518.11 2439.46C2517.42 2440.16 2509.96 2449.48 2506.46 2454.03L2505.59 2453.56C2510.26 2438.88 2516.22 2424.65 2523.41 2411.03C2527.26 2403.52 2531.4 2396.47 2535.53 2389.77C2540.37 2392.16 2562.51 2402.94 2574.28 2403.4C2586.04 2403.87 2600.14 2401.3 2607.72 2392.04C2609.58 2389.92 2610.98 2387.44 2611.82 2384.74C2612.66 2382.05 2612.93 2379.21 2612.6 2376.4C2612.27 2373.6 2611.35 2370.9 2609.91 2368.47C2608.46 2366.05 2606.53 2363.95 2604.22 2362.33C2590.06 2352.95 2561.63 2364.25 2549.81 2373.69C2549.17 2374.21 2543.17 2380.16 2538.86 2384.53C2540.78 2381.55 2542.7 2378.41 2544.68 2375.55C2551.79 2364.83 2558.95 2355.51 2565.36 2347.29C2569.03 2342.64 2572.47 2338.5 2575.68 2334.65C2581.5 2334.65 2605.62 2333.84 2616.16 2328.83C2626.71 2323.82 2638.07 2315.08 2640.58 2303.37C2641.25 2300.63 2641.34 2297.78 2640.84 2295.01C2640.34 2292.23 2639.27 2289.6 2637.69 2287.26C2636.11 2284.93 2634.05 2282.95 2631.66 2281.46C2629.27 2279.97 2626.59 2279 2623.8 2278.61C2606.9 2276.8 2586.86 2299.93 2580.68 2313.56C2580.16 2314.73 2573.98 2334.42 2574.34 2334.42H2575.09C2571.89 2338.09 2568.51 2341.99 2564.9 2346.07C2558.31 2354.17 2550.91 2363.55 2543.57 2373.98C2535.51 2385.28 2528.12 2397.05 2521.44 2409.23C2513.88 2422.81 2507.57 2437.04 2502.56 2451.76V2452.28C2502.56 2447.33 2502.56 2433.4 2502.27 2432.36C2500.34 2417.32 2487.76 2389.42 2471.04 2386.33C2468.24 2385.87 2465.38 2386.02 2462.64 2386.75C2459.9 2387.48 2457.34 2388.78 2455.14 2390.57C2452.94 2392.36 2451.14 2394.59 2449.87 2397.13C2448.59 2399.66 2447.86 2402.43 2447.73 2405.26C2446.74 2416.92 2455.42 2429.15 2463.87 2436.67C2473.37 2445.17 2499.76 2453.39 2501.86 2454.14C2497.15 2469.25 2493.43 2484.64 2490.73 2500.23C2489.1 2509.32 2487.76 2518.52 2486.54 2527.79C2486.54 2523.47 2486.54 2519.63 2486.54 2519.1C2484.55 2504.07 2471.97 2476.17 2455.31 2473.08C2452.51 2472.64 2449.66 2472.78 2446.93 2473.51C2444.2 2474.24 2441.65 2475.54 2439.45 2477.32C2437.25 2479.1 2435.45 2481.33 2434.17 2483.85C2432.89 2486.37 2432.15 2489.13 2432.01 2491.95C2431.07 2503.9 2439.7 2515.84 2448.14 2523.42C2456.59 2530.99 2479.08 2538.5 2485.02 2540.43C2484.61 2543.98 2484.15 2547.48 2483.68 2551.03C2481.7 2568.04 2479.72 2585.06 2477.27 2601.72C2476.46 2607.54 2475.35 2613.37 2474.36 2619.19C2474.36 2615.41 2474.36 2612.15 2474.36 2611.68C2472.44 2596.65 2459.85 2568.74 2443.13 2565.66C2440.33 2565.2 2437.47 2565.34 2434.73 2566.07C2431.99 2566.8 2429.44 2568.11 2427.23 2569.89C2425.03 2571.68 2423.23 2573.92 2421.96 2576.45C2420.68 2578.98 2419.96 2581.76 2419.83 2584.59C2418.84 2596.24 2427.52 2608.47 2435.91 2615.99C2444.3 2623.51 2464.69 2630.38 2471.74 2632.65C2470.51 2638.48 2469.29 2644.31 2467.84 2650.13C2466.73 2653.98 2465.97 2657.71 2464.63 2661.49C2463.29 2665.28 2462.24 2668.95 2461.08 2672.62C2458.51 2679.61 2455.95 2686.89 2453.27 2693.65C2451.47 2698.37 2449.66 2702.86 2447.79 2707.34C2448.73 2701.52 2450.3 2689.87 2450.3 2689.11C2450.11 2675.78 2446.52 2662.73 2439.87 2651.18C2439.92 2649.7 2439.82 2648.21 2439.58 2646.75C2439.23 2643.96 2438.3 2641.27 2436.84 2638.86C2435.38 2636.45 2433.43 2634.38 2431.11 2632.77C2428.8 2631.16 2426.17 2630.06 2423.4 2629.54C2420.64 2629.02 2417.79 2629.09 2415.05 2629.74C2398.62 2634.11 2388.25 2662.89 2387.44 2677.98C2387.44 2678.91 2388.02 2688.64 2388.48 2694.76C2387.67 2691.2 2386.91 2687.71 2385.98 2684.1C2384.29 2676.82 2382.37 2669.65 2380.16 2661.9C2379.05 2658.17 2377.94 2654.44 2376.77 2650.65C2375.61 2646.87 2374.15 2643.08 2372.81 2639C2369.61 2630.09 2365.88 2621.53 2361.92 2612.5C2368.27 2610.92 2390.76 2605.21 2399.73 2598.28C2408.7 2591.35 2418.26 2580.16 2418.14 2568.16C2418.21 2565.34 2417.7 2562.54 2416.62 2559.94C2415.54 2557.34 2413.93 2554.99 2411.88 2553.05C2409.84 2551.11 2407.41 2549.62 2404.75 2548.68C2402.1 2547.74 2399.28 2547.37 2396.47 2547.59C2379.63 2549.46 2364.95 2576.32 2361.92 2591.17C2361.92 2592.1 2360.7 2602.82 2360.29 2608.94C2357.9 2603.7 2355.51 2598.4 2352.89 2593.15C2345.31 2577.95 2337.22 2562.86 2329.23 2547.71L2321.95 2533.79C2324.23 2533.26 2351.08 2527.03 2361.16 2519.28C2370.13 2512.4 2379.69 2501.1 2379.57 2489.16C2379.64 2486.34 2379.13 2483.54 2378.05 2480.94C2376.97 2478.34 2375.36 2475.99 2373.31 2474.05C2371.27 2472.11 2368.84 2470.62 2366.19 2469.68C2363.53 2468.74 2360.71 2468.37 2357.9 2468.59C2341 2470.4 2326.38 2497.31 2323.35 2512.11C2323.35 2513.28 2321.66 2528.95 2321.49 2532.91C2316.18 2522.72 2311 2512.46 2306.28 2502.15C2299.85 2488.27 2294.32 2473.98 2289.74 2459.39C2290.78 2459.39 2318.87 2452.8 2329.18 2444.82C2338.15 2437.95 2347.64 2426.71 2347.59 2414.7C2347.66 2411.89 2347.14 2409.09 2346.06 2406.48C2344.98 2403.88 2343.37 2401.53 2341.33 2399.6C2339.29 2397.66 2336.86 2396.17 2334.2 2395.23C2331.55 2394.29 2328.72 2393.92 2325.91 2394.14C2309.02 2396 2294.39 2422.86 2291.31 2437.72C2291.31 2438.65 2290.03 2450.59 2289.68 2456.3H2288.69C2284.48 2441.48 2281.6 2426.31 2280.06 2410.97C2279.13 2402.58 2278.67 2394.43 2278.43 2386.56C2283.79 2385.92 2308.2 2382.66 2318.28 2376.54C2328.36 2370.43 2338.67 2360.52 2339.9 2348.64C2340.28 2345.84 2340.07 2343 2339.29 2340.29C2338.51 2337.58 2337.16 2335.07 2335.34 2332.92C2333.52 2330.77 2331.27 2329.02 2328.74 2327.79C2326.2 2326.57 2323.43 2325.89 2320.61 2325.8C2303.6 2325.8 2286.12 2350.85 2281.46 2365.3C2281.17 2366.06 2279.48 2374.33 2278.31 2380.33C2278.31 2376.78 2278.31 2373.1 2278.31 2369.67C2278.31 2356.85 2279.13 2345.08 2279.95 2334.71C2280.41 2328.89 2281 2323.47 2281.58 2318.46C2286.53 2315.08 2306.11 2301.27 2312.17 2291.36C2318.22 2281.46 2322.88 2267.71 2318.46 2256.41C2317.51 2253.76 2316.01 2251.34 2314.07 2249.3C2312.13 2247.26 2309.78 2245.66 2307.18 2244.59C2304.57 2243.52 2301.78 2243 2298.96 2243.08C2296.14 2243.16 2293.38 2243.83 2290.84 2245.05C2275.75 2252.86 2271.79 2283.21 2274.3 2298.13C2274.3 2299.46 2280.12 2319.27 2280.47 2319.1H2280.76C2280.12 2323.88 2279.42 2329 2278.84 2334.65C2277.79 2345.08 2276.74 2356.79 2276.45 2369.61C2275.96 2383.48 2276.29 2397.37 2277.44 2411.21C2278.63 2426.71 2281.2 2442.07 2285.13 2457.12V2457.64C2282.45 2453.45 2274.59 2441.97 2273.89 2441.15C2263.98 2429.5 2238.12 2413.36 2222.5 2420.01C2219.94 2421.18 2217.65 2422.88 2215.78 2424.99C2213.92 2427.11 2212.52 2429.6 2211.68 2432.29C2210.84 2434.98 2210.58 2437.82 2210.9 2440.62C2211.23 2443.43 2212.15 2446.13 2213.59 2448.55C2219.12 2458.57 2232.93 2463.93 2244.12 2465.56Z" fill="white"/>
<path d="M508.843 2453.56L530.224 2392.5" stroke="#263238" stroke-linecap="round" stroke-linejoin="round"/>
<path d="M510.358 2288.69V2516.19" stroke="#263238" stroke-linecap="round" stroke-linejoin="round"/>
<path d="M475.343 2406.72C475.343 2406.72 443.649 2372.17 411.954 2377.59C380.263 2383.01 365.871 2420.82 365.871 2443.89C365.871 2466.96 397.565 2541.83 397.565 2541.83C397.565 2541.83 420.869 2515.9 472.489 2478.44C524.105 2440.98 527.194 2403.87 475.343 2406.72Z" fill="#E54F38" stroke="#263238" stroke-linecap="round" stroke-linejoin="round"/>
<path d="M475.344 2406.72C448.136 2422.08 426.083 2445.15 411.955 2473.02" stroke="#263238" stroke-linecap="round" stroke-linejoin="round"/>
<path d="M526.963 2366.11C526.963 2366.11 553.18 2337.68 579.397 2342.52C605.614 2347.35 617.266 2378.23 617.208 2397.22C617.149 2416.22 590.932 2477.86 590.932 2477.86C572.164 2458.41 551.538 2440.85 529.352 2425.42C486.53 2394.49 484.259 2363.66 526.963 2366.11Z" fill="#E54F38" stroke="#263238" stroke-linecap="round" stroke-linejoin="round"/>
<path d="M526.963 2366.11C549.348 2378.83 567.468 2397.88 579.045 2420.88" stroke="#263238" stroke-linecap="round" stroke-linejoin="round"/>
<path d="M505.754 2328.36L545.487 2270.33" stroke="#263238" stroke-linecap="round" stroke-linejoin="round"/>
<path d="M499.113 2311.58C499.113 2311.58 498.472 2272.95 475.809 2259.15C453.147 2245.34 423.783 2260.61 411.199 2274.82C398.615 2289.03 377.233 2352.6 377.233 2352.6C404.164 2350.53 431.231 2351.13 458.041 2354.4C510.417 2359.53 532.672 2338.15 499.113 2311.58Z" fill="#E54F38" stroke="#263238" stroke-linecap="round" stroke-linejoin="round"/>
<path d="M499.114 2311.58C473.959 2306.18 447.765 2308.35 423.842 2317.82" stroke="#263238" stroke-linecap="round" stroke-linejoin="round"/>
<path d="M533.255 2259.79C533.255 2259.79 533.721 2231.36 550.733 2221.22C567.745 2211.08 589.01 2222.27 598.332 2232.87C607.651 2243.48 623.324 2290.08 623.324 2290.08C603.5 2288.58 583.578 2289.03 563.842 2291.42C524.924 2295.44 508.553 2279.36 533.255 2259.79Z" fill="#E54F38" stroke="#263238" stroke-linecap="round" stroke-linejoin="round"/>
<path d="M533.255 2259.79C551.772 2255.83 571.049 2257.43 588.661 2264.39" stroke="#263238" stroke-linecap="round" stroke-linejoin="round"/>
<path d="M607.36 2496.67H402.694L423.434 2709.73H586.621L607.36 2496.67Z" fill="white" stroke="#263238" stroke-linecap="round" stroke-linejoin="round"/>
<path d="M553.121 2589.48C553.131 2591.29 553.679 2593.05 554.692 2594.55C555.702 2596.04 557.136 2597.21 558.807 2597.89C560.479 2598.58 562.317 2598.75 564.086 2598.39C565.858 2598.03 567.481 2597.15 568.755 2595.87C570.029 2594.59 570.893 2592.96 571.241 2591.19C571.59 2589.41 571.407 2587.58 570.713 2585.91C570.019 2584.24 568.846 2582.82 567.344 2581.81C565.839 2580.81 564.073 2580.28 562.268 2580.28C561.062 2580.28 559.866 2580.51 558.752 2580.98C557.641 2581.44 556.627 2582.12 555.78 2582.98C554.93 2583.83 554.255 2584.85 553.799 2585.96C553.343 2587.08 553.112 2588.28 553.121 2589.48Z" fill="#263238" stroke="#263238" stroke-linecap="round" stroke-linejoin="round"/>
<path d="M519.504 2589.48C519.504 2591.31 520.045 2593.09 521.058 2594.6C522.075 2596.12 523.515 2597.3 525.2 2597.99C526.884 2598.69 528.738 2598.87 530.527 2598.51C532.313 2598.14 533.955 2597.26 535.239 2595.97C536.523 2594.68 537.396 2593.03 537.744 2591.24C538.093 2589.45 537.901 2587.6 537.197 2585.92C536.49 2584.24 535.301 2582.8 533.779 2581.8C532.261 2580.79 530.475 2580.27 528.65 2580.28C527.445 2580.28 526.249 2580.51 525.138 2580.98C524.023 2581.44 523.013 2582.12 522.163 2582.98C521.312 2583.83 520.641 2584.85 520.185 2585.97C519.726 2587.08 519.498 2588.28 519.504 2589.48Z" fill="#263238" stroke="#263238" stroke-linecap="round" stroke-linejoin="round"/>
<path d="M409.511 2566.58H600.544L601.476 2557.38H408.635L409.511 2566.58Z" fill="#263238" stroke="#263238" stroke-linecap="round" stroke-linejoin="round"/>
<path d="M592.389 2650.54L596.233 2610.86H413.822L417.667 2650.54H592.389Z" fill="#263238" stroke="#263238" stroke-linecap="round" stroke-linejoin="round"/>
<path d="M586.68 2589.48C586.68 2590.69 586.918 2591.88 587.38 2593C587.843 2594.11 588.524 2595.12 589.378 2595.97C590.235 2596.82 591.248 2597.49 592.366 2597.95C593.483 2598.41 594.679 2598.64 595.885 2598.63H597.455L599.146 2581.15C598.104 2580.76 596.999 2580.54 595.885 2580.51C593.483 2580.51 591.176 2581.45 589.456 2583.12C587.735 2584.8 586.738 2587.08 586.68 2589.48Z" fill="#263238" stroke="#263238" stroke-linecap="round" stroke-linejoin="round"/>
<path d="M495.093 2598.63C500.146 2598.63 504.239 2594.53 504.239 2589.48C504.239 2584.43 500.146 2580.33 495.093 2580.33C490.042 2580.33 485.946 2584.43 485.946 2589.48C485.946 2594.53 490.042 2598.63 495.093 2598.63Z" fill="#263238" stroke="#263238" stroke-linecap="round" stroke-linejoin="round"/>
<path d="M418.716 2589.48C418.716 2591.3 419.254 2593.08 420.267 2594.6C421.277 2596.11 422.714 2597.29 424.399 2597.99C426.08 2598.68 427.931 2598.86 429.716 2598.51C431.502 2598.15 433.141 2597.28 434.428 2595.99C435.715 2594.7 436.592 2593.06 436.947 2591.28C437.302 2589.49 437.119 2587.64 436.425 2585.96C435.728 2584.28 434.549 2582.84 433.033 2581.83C431.522 2580.82 429.739 2580.28 427.921 2580.28C426.709 2580.27 425.51 2580.5 424.389 2580.96C423.268 2581.42 422.251 2582.1 421.395 2582.95C420.538 2583.81 419.86 2584.83 419.4 2585.95C418.941 2587.07 418.706 2588.27 418.716 2589.48Z" fill="#263238" stroke="#263238" stroke-linecap="round" stroke-linejoin="round"/>
<path d="M452.329 2589.48C452.342 2591.29 452.886 2593.05 453.9 2594.55C454.913 2596.04 456.344 2597.21 458.018 2597.89C459.69 2598.58 461.528 2598.75 463.297 2598.39C465.066 2598.03 466.692 2597.15 467.966 2595.87C469.237 2594.59 470.104 2592.96 470.452 2591.19C470.801 2589.41 470.615 2587.58 469.921 2585.91C469.227 2584.24 468.054 2582.82 466.552 2581.81C465.05 2580.81 463.284 2580.28 461.476 2580.28C460.27 2580.28 459.077 2580.51 457.963 2580.98C456.849 2581.44 455.839 2582.12 454.988 2582.98C454.138 2583.83 453.466 2584.85 453.01 2585.96C452.554 2587.08 452.323 2588.28 452.329 2589.48Z" fill="#263238" stroke="#263238" stroke-linecap="round" stroke-linejoin="round"/>
<path d="M616.683 2314.28L599.863 2318.33L687.24 2681.17L704.063 2677.12L616.683 2314.28Z" fill="#263238" stroke="#263238" stroke-linecap="round" stroke-linejoin="round"/>
<path d="M1128.26 2676.52H693.47V2705.36H1128.26V2676.52Z" fill="#263238" stroke="#263238" stroke-linecap="round" stroke-linejoin="round"/>
<path d="M1651.91 1442.64C1627.46 1480.83 1615.9 1525.85 1618.93 1571.1C1625.05 1644.04 1667.93 1705.1 1674.27 1737.26C1680.62 1769.42 1649.11 1824.12 1658.08 1835.77C1667.05 1847.43 1712.84 1846.84 1712.84 1846.84C1712.84 1846.84 1787.77 1928.41 1816.2 1932.72C1844.63 1937.03 1891.29 1894.21 1891.29 1894.21L1944.14 1953.98L2100.1 1833.73C2100.1 1833.73 2059.31 1767.49 2057.33 1752.46C2055.36 1737.43 2111.17 1649.46 2090.89 1522.28C2070.62 1395.1 1951.71 1333.28 1837.17 1334.15C1722.63 1335.03 1651.91 1442.64 1651.91 1442.64Z" fill="white" stroke="#263238" stroke-linecap="round" stroke-linejoin="round"/>
<path d="M1985.73 1620.33C1985.73 1620.33 1976.35 1594.52 1952.18 1603.78C1928 1613.05 1931.03 1652.14 1931.03 1652.14C1931.03 1652.14 1957.83 1637.86 1958.93 1647.24C1960.04 1656.62 1943.84 1666.41 1943.84 1666.41" stroke="#263238" stroke-linecap="round" stroke-linejoin="round"/>
<path d="M1891.24 1894.38L1950.25 1852.03L1916.23 1919.14L1891.24 1894.38Z" fill="#263238" stroke="#263238" stroke-linecap="round" stroke-linejoin="round"/>
<path d="M2090.83 1522.45C2070.62 1395.27 1951.71 1333.28 1837.17 1334.15C1722.63 1335.03 1651.91 1442.64 1651.91 1442.64C1635.58 1468.07 1624.86 1496.69 1620.44 1526.59C1622.54 1524.67 1624.99 1522.28 1627.96 1519.19C1652.84 1493.38 1673.64 1447.3 1730.56 1455.74C1787.47 1464.19 1750.19 1542.72 1764.11 1574.13C1778.04 1605.53 1845.97 1599.94 1856.57 1603.72C1867.17 1607.51 1884.07 1663.97 1904.58 1643.75C1925.09 1623.53 1920.54 1585.95 1944.72 1575.47C1968.9 1564.98 2015.04 1589.91 2019.82 1630C2024.59 1670.08 1968.55 1732.71 1968.55 1732.71C1968.55 1732.71 2014.86 1757.71 2059.9 1760.97C2058.68 1758.31 2057.8 1755.51 2057.28 1752.64C2055.47 1737.6 2111.11 1649.63 2090.83 1522.45Z" fill="#263238" stroke="#263238" stroke-linecap="round" stroke-linejoin="round"/>
<path d="M2060.83 1462.33C2060.83 1462.33 2071.61 1382.28 2144.26 1373.6C2216.91 1364.92 2277.56 1490.12 2258.45 1542.96C2239.34 1595.8 2173.1 1634.66 2132.32 1634.43C2091.53 1634.19 2067.42 1517.61 2060.83 1462.33Z" fill="#263238" stroke="#263238" stroke-linecap="round" stroke-linejoin="round"/>
<path d="M1745.35 1843.17C1745.35 1843.17 1788.23 1840.61 1802.33 1788.12" stroke="#263238" stroke-linecap="round" stroke-linejoin="round"/>
<path d="M1715.58 1708.3C1720.77 1717.45 1721.87 1726.65 1718.09 1728.75C1714.3 1730.85 1707.08 1725.14 1701.95 1715.93C1696.82 1706.73 1695.66 1697.64 1699.45 1695.48C1703.23 1693.33 1710.46 1699.09 1715.58 1708.3Z" fill="#263238"/>
<path d="M1753.16 1686.8C1766.73 1718.9 1762.13 1751.47 1742.91 1759.63C1723.68 1767.78 1697.06 1748.38 1683.48 1716.28C1669.9 1684.18 1674.51 1651.61 1693.73 1643.46C1712.96 1635.3 1739.59 1654.58 1753.16 1686.8Z" stroke="#263238" stroke-linecap="round" stroke-linejoin="round"/>
<path d="M1683.48 1716.28L1655.86 1731.84" stroke="#263238" stroke-linecap="round" stroke-linejoin="round"/>
<path d="M1748.5 1677.6L1920.42 1606.28" stroke="#263238" stroke-linecap="round" stroke-linejoin="round"/>
<path d="M1666.24 1659.94C1666.24 1659.94 1670.78 1630.81 1700.03 1627.38" stroke="#263238" stroke-width="2" stroke-linecap="round" stroke-linejoin="round"/>
<path d="M1777.69 2435.97L1712.84 2544.85L1177.73 2595.77L1017.86 2558.72C1007.16 2560.46 996.314 2561.24 985.467 2561.05C964.61 2561.05 846.461 2639.82 848.791 2646.75C851.121 2653.68 858.054 2663.01 876.578 2646.75C895.106 2630.5 906.699 2628.23 906.699 2628.23C906.699 2628.23 858.054 2672.27 876.578 2672.27C895.106 2672.27 927.556 2648.97 927.556 2648.97C927.556 2648.97 902.039 2676.76 915.904 2676.76C929.772 2676.76 978.768 2646.75 978.768 2646.75C978.768 2646.75 1025.38 2651.41 1069.13 2658.4C1112.88 2665.39 1173.36 2660.74 1173.36 2660.74C1173.36 2660.74 1669.15 2705.48 1694.61 2704.72C1720.07 2703.96 1861.41 2544.91 1861.41 2544.91L1777.69 2435.97Z" fill="#263238" stroke="#263238" stroke-linecap="round" stroke-linejoin="round"/>
<path d="M1931.03 2006.88C1931.03 2006.88 1893.22 1953.87 1908.36 1933.71C1923.51 1913.55 2079.94 1815.09 2112.74 1820.16C2145.54 1825.23 2163.19 1921.07 2163.19 1921.07C2163.19 1921.07 2264.1 1994.24 2271.67 2127.95C2279.25 2261.65 2223.73 2511.53 2216.15 2569.56C2208.58 2627.58 2208.58 2768.87 2208.58 2768.87H1847.77C1847.77 2768.87 1837.7 2561.98 1837.7 2541.65C1837.7 2521.32 1746.87 2468.59 1754.44 2400.31C1762.02 2332.03 1933.59 2024.36 1933.59 2024.36L1931.03 2006.88Z" fill="#263238" stroke="#263238" stroke-linecap="round" stroke-linejoin="round"/>
<path d="M2122.82 2034.61C2100.4 2034.44 2078.21 2039.08 2057.75 2048.22C2037.28 2057.37 2019.02 2070.81 2004.2 2087.63C1951.24 2145.89 1754.44 2541.77 1754.44 2541.77C1754.44 2541.77 1254.8 2614.94 1209.42 2604.86C1164.03 2594.79 1095.87 2577.13 1088.3 2574.57C1080.72 2572.01 998.109 2584.82 970.319 2592.4C942.531 2599.97 875.066 2649.67 880.368 2656.07C885.669 2662.48 913.343 2650.71 913.343 2650.71C913.343 2650.71 895.281 2662.36 906.933 2664.58C918.585 2666.79 944.219 2656.07 944.219 2656.07C944.219 2656.07 927.148 2672.04 942.065 2672.04C956.979 2672.04 992.052 2656.07 992.052 2656.07C992.052 2656.07 972.942 2674.13 983.545 2675.18C994.147 2676.23 1046.35 2643.32 1050.6 2641.16C1054.85 2639 1082.53 2651.82 1121.85 2659.28C1151.79 2663.8 1182.11 2665.22 1212.33 2663.53C1212.33 2663.53 1672.99 2703.96 1719.78 2703.96C1766.56 2703.96 1788.93 2703.96 1793.19 2700.76C1797.44 2697.56 2163.43 2283.67 2186.85 2253.91C2210.27 2224.13 2213.47 2219.82 2213.47 2219.82" fill="white"/>
<path d="M2122.82 2034.61C2100.4 2034.44 2078.21 2039.08 2057.75 2048.22C2037.28 2057.37 2019.02 2070.81 2004.2 2087.63C1951.24 2145.89 1754.44 2541.77 1754.44 2541.77C1754.44 2541.77 1254.8 2614.94 1209.42 2604.86C1164.03 2594.79 1095.87 2577.13 1088.3 2574.57C1080.72 2572.01 998.109 2584.82 970.319 2592.4C942.531 2599.97 875.066 2649.67 880.368 2656.07C885.669 2662.48 913.343 2650.71 913.343 2650.71C913.343 2650.71 895.281 2662.36 906.933 2664.58C918.585 2666.79 944.219 2656.07 944.219 2656.07C944.219 2656.07 927.148 2672.04 942.065 2672.04C956.979 2672.04 992.052 2656.07 992.052 2656.07C992.052 2656.07 972.942 2674.13 983.545 2675.18C994.147 2676.23 1046.35 2643.32 1050.6 2641.16C1054.85 2639 1082.53 2651.82 1121.85 2659.28C1151.79 2663.8 1182.11 2665.22 1212.33 2663.53C1212.33 2663.53 1672.99 2703.96 1719.78 2703.96C1766.56 2703.96 1788.93 2703.96 1793.19 2700.76C1797.44 2697.56 2163.43 2283.67 2186.85 2253.91C2210.27 2224.13 2213.47 2219.82 2213.47 2219.82" stroke="#263238" stroke-linecap="round" stroke-linejoin="round"/>
<path d="M2122.82 2034.61C2100.52 2035.15 2078.55 2040.11 2058.19 2049.21C2037.83 2058.32 2019.48 2071.37 2004.2 2087.63C1985.33 2108.26 1948.21 2171.88 1908.25 2244.93C1947.46 2252.62 2024.13 2278.08 2092.58 2362.38C2142.1 2305.93 2179.97 2262.59 2186.85 2253.67C2210.15 2223.9 2219.06 2212.89 2219.06 2212.89" fill="#263238"/>
<path d="M2122.82 2034.61C2100.52 2035.15 2078.55 2040.11 2058.19 2049.21C2037.83 2058.32 2019.48 2071.37 2004.2 2087.63C1985.33 2108.26 1948.21 2171.88 1908.25 2244.93C1947.46 2252.62 2024.13 2278.08 2092.58 2362.38C2142.1 2305.93 2179.97 2262.59 2186.85 2253.67C2210.15 2223.9 2219.06 2212.89 2219.06 2212.89" stroke="#263238" stroke-linecap="round" stroke-linejoin="round"/>
<path d="M992.053 2656.07L1053.28 2614.53" stroke="#263238" stroke-linecap="round" stroke-linejoin="round"/>
<path d="M944.22 2656.07C944.22 2656.07 1019.96 2606.79 1024.5 2603.64" stroke="#263238" stroke-linecap="round" stroke-linejoin="round"/>
<path d="M913.343 2650.83C913.343 2650.83 962.571 2611.33 995.78 2599.15" stroke="#263238" stroke-linecap="round" stroke-linejoin="round"/>
<path d="M2377.3 2341.12C2368.11 2341.08 2359.15 2344.03 2351.79 2349.54C2344.43 2355.05 2339.07 2362.81 2336.52 2371.65L2220.87 2768.87H2309.02L2417.79 2395.24C2419.61 2388.95 2419.95 2382.32 2418.77 2375.88C2417.6 2369.43 2414.94 2363.35 2411.02 2358.1C2407.09 2352.86 2402.01 2348.59 2396.15 2345.65C2390.31 2342.7 2383.85 2341.15 2377.3 2341.12Z" fill="#E54F38" stroke="#263238" stroke-linecap="round" stroke-linejoin="round"/>
<path d="M1705.21 2706.64H311.458V2768.87H1705.21V2706.64Z" fill="#E54F38" stroke="#263238" stroke-linecap="round" stroke-linejoin="round"/>
<path d="M269.045 2768.87H2609.06" stroke="#263238" stroke-linecap="round" stroke-linejoin="round"/>
</svg>
