<svg xmlns="http://www.w3.org/2000/svg" viewBox="0 0 1066.93 315.25"><defs><style>.cls-1{fill:#fff;stroke:#1c1c1c;stroke-miterlimit:10;stroke-width:8px;}.cls-2{fill:#3ec1fa;}.cls-3{fill:#58c86e;}.cls-4{fill:#fcd53b;}.cls-5{fill:#fe444a;}</style></defs><g id="Layer_2" data-name="Layer 2"><g id="Layer_1-2" data-name="Layer 1"><path class="cls-1" d="M1023.6,311.25H43.33C21.64,311.25,4,293.82,4,272.39V42.86C4,21.43,21.64,4,43.33,4H1023.6c21.69,0,39.33,17.43,39.33,38.86V272.39C1062.93,293.82,1045.29,311.25,1023.6,311.25Z"/><path class="cls-2" d="M75.79,57a8.63,8.63,0,0,0-2.12,5.71V252.56a8.67,8.67,0,0,0,2.12,5.72L176.91,157.63Z"/><path class="cls-3" d="M209.06,125.62l-40-23.08L86.87,55.07A8.78,8.78,0,0,0,75.79,57L176.91,157.63Z"/><path class="cls-4" d="M248.69,148.5l-39.63-22.88-32.15,32,32.15,32,39.63-22.88A10.54,10.54,0,0,0,248.69,148.5Z"/><path class="cls-5" d="M75.79,258.28a8.78,8.78,0,0,0,11.08,1.9l82.21-47.47,40-23.08-32.15-32Z"/><path d="M389,153.16a35.46,35.46,0,0,1-.17,3.7,11.69,11.69,0,0,1-.48,2.48,3,3,0,0,1-.75,1.3,1.62,1.62,0,0,1-1.07.37,6.55,6.55,0,0,1-2.88-1.33,40.57,40.57,0,0,0-5.28-2.89,53.53,53.53,0,0,0-7.85-2.89,37.9,37.9,0,0,0-10.6-1.33,27.57,27.57,0,0,0-11.66,2.4,25.53,25.53,0,0,0-8.91,6.82,31,31,0,0,0-5.7,10.58,44.7,44.7,0,0,0-2,13.67,47,47,0,0,0,2,14.47A30,30,0,0,0,339.32,211a23.28,23.28,0,0,0,8.74,6.37,28.88,28.88,0,0,0,11.28,2.14,24.17,24.17,0,0,0,6-.74,20.8,20.8,0,0,0,5.49-2.22V194.33H354c-.82,0-1.46-.56-1.92-1.67a16.62,16.62,0,0,1-.68-5.66,28.41,28.41,0,0,1,.17-3.48,9,9,0,0,1,.51-2.26,3.17,3.17,0,0,1,.83-1.26,1.64,1.64,0,0,1,1.09-.41h30a4.52,4.52,0,0,1,2,.41,4.36,4.36,0,0,1,1.51,1.22,5.93,5.93,0,0,1,1,2,9.2,9.2,0,0,1,.35,2.63V224a9.7,9.7,0,0,1-.72,3.88,5.28,5.28,0,0,1-2.95,2.63q-2.24,1-5.52,2c-2.2.69-4.47,1.29-6.83,1.78a70.94,70.94,0,0,1-7.13,1.11,69.78,69.78,0,0,1-7.24.37,51.74,51.74,0,0,1-19-3.3,38.18,38.18,0,0,1-14.23-9.55,42,42,0,0,1-8.92-15.25,62.91,62.91,0,0,1-3.08-20.4,63.64,63.64,0,0,1,3.29-21.14,45.25,45.25,0,0,1,9.33-15.92,40.06,40.06,0,0,1,14.57-10,50,50,0,0,1,19-3.48,59.37,59.37,0,0,1,10.5.85,56.42,56.42,0,0,1,8.26,2.07A31.06,31.06,0,0,1,384,142.2a14.63,14.63,0,0,1,3.26,2.44,6.34,6.34,0,0,1,1.34,2.93A28.6,28.6,0,0,1,389,153.16Z"/><path d="M468.12,197.88a54.24,54.24,0,0,1-2.06,15.4,33.28,33.28,0,0,1-6.24,12,27.7,27.7,0,0,1-10.5,7.77,36.68,36.68,0,0,1-14.74,2.74,37.72,37.72,0,0,1-14.2-2.44,25.49,25.49,0,0,1-10-7.11,29.9,29.9,0,0,1-5.9-11.48,57.37,57.37,0,0,1-1.92-15.54,53.89,53.89,0,0,1,2.09-15.44,33.32,33.32,0,0,1,6.28-12A28.06,28.06,0,0,1,421.38,164a36.6,36.6,0,0,1,14.71-2.74,38.49,38.49,0,0,1,14.26,2.41,24.9,24.9,0,0,1,10,7.07,30.21,30.21,0,0,1,5.87,11.48A57.72,57.72,0,0,1,468.12,197.88Zm-17.77.74a52.16,52.16,0,0,0-.72-9,22.39,22.39,0,0,0-2.43-7.15,12.75,12.75,0,0,0-4.56-4.74,13.84,13.84,0,0,0-7.17-1.7,14.23,14.23,0,0,0-6.72,1.52A12.33,12.33,0,0,0,424,182a22.08,22.08,0,0,0-2.78,7,42.71,42.71,0,0,0-.93,9.37,49.29,49.29,0,0,0,.76,9,23.26,23.26,0,0,0,2.43,7.14,12,12,0,0,0,4.56,4.7,14.07,14.07,0,0,0,7.14,1.67,14.41,14.41,0,0,0,6.79-1.52,12.53,12.53,0,0,0,4.73-4.4,21.25,21.25,0,0,0,2.74-7A44.05,44.05,0,0,0,450.35,198.62Z"/><path d="M543.63,197.88a54.24,54.24,0,0,1-2.06,15.4,33.28,33.28,0,0,1-6.24,12,27.7,27.7,0,0,1-10.5,7.77,36.68,36.68,0,0,1-14.74,2.74,37.72,37.72,0,0,1-14.2-2.44,25.49,25.49,0,0,1-10-7.11,29.9,29.9,0,0,1-5.9-11.48,57.37,57.37,0,0,1-1.92-15.54,53.89,53.89,0,0,1,2.09-15.44,33.32,33.32,0,0,1,6.28-12A28.06,28.06,0,0,1,496.89,164a36.6,36.6,0,0,1,14.71-2.74,38.49,38.49,0,0,1,14.26,2.41,24.9,24.9,0,0,1,10,7.07,30.21,30.21,0,0,1,5.87,11.48A57.72,57.72,0,0,1,543.63,197.88Zm-17.77.74a52.16,52.16,0,0,0-.72-9,22.39,22.39,0,0,0-2.43-7.15,12.75,12.75,0,0,0-4.56-4.74A13.84,13.84,0,0,0,511,176a14.23,14.23,0,0,0-6.72,1.52,12.33,12.33,0,0,0-4.73,4.44,22.08,22.08,0,0,0-2.78,7,42.71,42.71,0,0,0-.93,9.37,49.29,49.29,0,0,0,.76,9,23.26,23.26,0,0,0,2.43,7.14,12,12,0,0,0,4.56,4.7,14.07,14.07,0,0,0,7.14,1.67,14.41,14.41,0,0,0,6.79-1.52,12.53,12.53,0,0,0,4.73-4.4,21.25,21.25,0,0,0,2.74-7A44.05,44.05,0,0,0,525.86,198.62Z"/><path d="M612.42,170.12a13.71,13.71,0,0,1-.76,5.25c-.5,1.14-1.12,1.71-1.85,1.71h-7.2a10.93,10.93,0,0,1,2.16,4,17,17,0,0,1,.65,4.7,27.58,27.58,0,0,1-1.78,10.26,20.33,20.33,0,0,1-5.11,7.55,22.2,22.2,0,0,1-8,4.67A32.44,32.44,0,0,1,580,209.88a20,20,0,0,1-5.62-.78,13.74,13.74,0,0,1-4.11-1.81,10.89,10.89,0,0,0-1.48,2.29,6.73,6.73,0,0,0-.65,3,4.25,4.25,0,0,0,1.75,3.52,8.46,8.46,0,0,0,4.9,1.52l14.88.59a33.91,33.91,0,0,1,9.3,1.59,19.68,19.68,0,0,1,6.86,3.85,16.69,16.69,0,0,1,4.25,6,20.2,20.2,0,0,1,1.47,7.93,21.73,21.73,0,0,1-2,9.21,20.46,20.46,0,0,1-6,7.52,30,30,0,0,1-10,5,47.55,47.55,0,0,1-14,1.86,57.52,57.52,0,0,1-13.34-1.34,27.84,27.84,0,0,1-9-3.7,14.58,14.58,0,0,1-5.14-5.66,16.16,16.16,0,0,1-1.61-7.22,18,18,0,0,1,2.29-8.92,21.7,21.7,0,0,1,2.78-3.89,30.69,30.69,0,0,1,3.77-3.56,11.91,11.91,0,0,1-4.56-4.62,13.12,13.12,0,0,1-1.61-6.41,17.19,17.19,0,0,1,1.85-8,25.59,25.59,0,0,1,4.8-6.48,19.79,19.79,0,0,1-3.84-6.22,24.63,24.63,0,0,1-1.44-9,26.75,26.75,0,0,1,1.89-10.33,21.71,21.71,0,0,1,5.24-7.7,22.76,22.76,0,0,1,8-4.81A30.43,30.43,0,0,1,580,161.6a39.25,39.25,0,0,1,5.52.37,33.8,33.8,0,0,1,4.9,1h19.41c.78,0,1.41.54,1.89,1.63A14.77,14.77,0,0,1,612.42,170.12Zm-18.11,68.34a5.9,5.9,0,0,0-2.47-5.11,12.13,12.13,0,0,0-6.79-1.93l-12.28-.37a18.71,18.71,0,0,0-2.84,2.71,16.67,16.67,0,0,0-1.72,2.48,7.57,7.57,0,0,0-.85,2.29,12.38,12.38,0,0,0-.21,2.3,6.13,6.13,0,0,0,3.46,5.63q3.46,1.92,9.78,1.92a21.86,21.86,0,0,0,6.58-.85,12.3,12.3,0,0,0,4.32-2.26,7.94,7.94,0,0,0,2.33-3.15A9.84,9.84,0,0,0,594.31,238.46Zm-4-52.72q0-5.34-2.74-8.29t-7.75-3a10.13,10.13,0,0,0-4.46.93,9.12,9.12,0,0,0-3.19,2.52,10.69,10.69,0,0,0-1.88,3.7,15.72,15.72,0,0,0-.62,4.41,11.13,11.13,0,0,0,2.74,8,9.91,9.91,0,0,0,7.62,2.93,10.72,10.72,0,0,0,4.52-.89,8.83,8.83,0,0,0,3.19-2.44,10.79,10.79,0,0,0,1.92-3.59A13.75,13.75,0,0,0,590.26,185.74Z"/><path d="M641.15,231.57a2.08,2.08,0,0,1-.41,1.3,2.92,2.92,0,0,1-1.4.92,11.22,11.22,0,0,1-2.65.56,48.62,48.62,0,0,1-8.36,0,11,11,0,0,1-2.64-.56,3,3,0,0,1-1.41-.92,2.14,2.14,0,0,1-.41-1.3V134.2a2.32,2.32,0,0,1,.41-1.33,3.11,3.11,0,0,1,1.41-1,11.12,11.12,0,0,1,2.64-.63,39.82,39.82,0,0,1,8.36,0,11.35,11.35,0,0,1,2.65.63,3.07,3.07,0,0,1,1.4,1,2.25,2.25,0,0,1,.41,1.33Z"/><path d="M714.88,196.62a7.58,7.58,0,0,1-1.41,5,4.82,4.82,0,0,1-3.87,1.63H672.36a29.79,29.79,0,0,0,.92,7.66,15,15,0,0,0,3,5.85,12.78,12.78,0,0,0,5.22,3.67,20.76,20.76,0,0,0,7.64,1.25,39.93,39.93,0,0,0,8-.7,51.68,51.68,0,0,0,5.93-1.55c1.67-.57,3-1.09,4.15-1.56a7.21,7.21,0,0,1,2.67-.7,1.89,1.89,0,0,1,1,.26,1.85,1.85,0,0,1,.69.92,6.85,6.85,0,0,1,.38,1.89c.06.82.1,1.84.1,3.07s0,2-.07,2.78a17.34,17.34,0,0,1-.21,2,4.63,4.63,0,0,1-.41,1.37,5.08,5.08,0,0,1-.72,1.08,8.22,8.22,0,0,1-2.43,1.4,36,36,0,0,1-5.08,1.74,64.1,64.1,0,0,1-7.06,1.48,54.4,54.4,0,0,1-8.5.63,42,42,0,0,1-14.3-2.22A25.14,25.14,0,0,1,663,226.83a28.65,28.65,0,0,1-6.14-11.4,57.48,57.48,0,0,1-2-16.14,55,55,0,0,1,2.13-15.88,33.9,33.9,0,0,1,6.17-12,26.64,26.64,0,0,1,9.84-7.51A31.64,31.64,0,0,1,686,161.3a32,32,0,0,1,13.13,2.45,23.89,23.89,0,0,1,9,6.77,28,28,0,0,1,5.14,10.26,47.86,47.86,0,0,1,1.65,12.88Zm-16.73-5.33q.2-7.84-2.92-12.33t-9.64-4.48a11.71,11.71,0,0,0-5.72,1.34,11.94,11.94,0,0,0-4,3.59,16.9,16.9,0,0,0-2.47,5.33,28.49,28.49,0,0,0-1,6.55Z"/><path d="M822.62,167.38a40.44,40.44,0,0,1-2.33,14.29,27.61,27.61,0,0,1-6.79,10.47,29.33,29.33,0,0,1-10.94,6.48,47.13,47.13,0,0,1-15.26,2.22h-7.4v30.58a2.17,2.17,0,0,1-.45,1.34,3.19,3.19,0,0,1-1.47,1,13.43,13.43,0,0,1-2.75.59,43.51,43.51,0,0,1-8.74,0,13.48,13.48,0,0,1-2.78-.59,3,3,0,0,1-1.44-1,2.33,2.33,0,0,1-.41-1.34V145.24a7.25,7.25,0,0,1,1.68-5.22,5.86,5.86,0,0,1,4.42-1.74h20.92c2.1,0,4.1.08,6,.26a58.08,58.08,0,0,1,6.83,1.11,28.47,28.47,0,0,1,8,3.14,24.28,24.28,0,0,1,7,5.82,24.8,24.8,0,0,1,4.39,8.21A34.71,34.71,0,0,1,822.62,167.38Zm-18.86,1.4a18.32,18.32,0,0,0-1.64-8.29,12,12,0,0,0-4-4.81,12.71,12.71,0,0,0-5-2,34.69,34.69,0,0,0-5.45-.41H779.9v32.5H788a18.31,18.31,0,0,0,7.24-1.26A12.31,12.31,0,0,0,800,181a15.54,15.54,0,0,0,2.81-5.41A23.38,23.38,0,0,0,803.76,168.78Z"/><path d="M852.87,231.57a2.14,2.14,0,0,1-.41,1.3,3,3,0,0,1-1.41.92,11,11,0,0,1-2.64.56,48.74,48.74,0,0,1-8.37,0,11.24,11.24,0,0,1-2.64-.56,2.92,2.92,0,0,1-1.4-.92,2.08,2.08,0,0,1-.41-1.3V134.2a2.25,2.25,0,0,1,.41-1.33,3.07,3.07,0,0,1,1.4-1,11.38,11.38,0,0,1,2.64-.63,39.92,39.92,0,0,1,8.37,0,11.12,11.12,0,0,1,2.64.63,3.16,3.16,0,0,1,1.41,1,2.32,2.32,0,0,1,.41,1.33Z"/><path d="M922.21,231.79a2,2,0,0,1-.69,1.63,4.54,4.54,0,0,1-2.16.86,27.62,27.62,0,0,1-4.35.25,28.25,28.25,0,0,1-4.5-.25,3.77,3.77,0,0,1-2-.86,2.24,2.24,0,0,1-.58-1.63v-5.25a28,28,0,0,1-8.61,6.81,23.42,23.42,0,0,1-10.73,2.44,27.77,27.77,0,0,1-9-1.37,19.7,19.7,0,0,1-7.06-4.07,18.25,18.25,0,0,1-4.63-6.7,24.37,24.37,0,0,1-1.65-9.33,22.57,22.57,0,0,1,2.09-10,17.93,17.93,0,0,1,6.24-7A29.77,29.77,0,0,1,885,193.14a69,69,0,0,1,14.33-1.33h6v-4a22.48,22.48,0,0,0-.59-5.44,9.18,9.18,0,0,0-1.92-3.89,7.86,7.86,0,0,0-3.56-2.29,17.55,17.55,0,0,0-5.52-.74,26.48,26.48,0,0,0-7.72,1,43.39,43.39,0,0,0-6,2.3q-2.61,1.26-4.36,2.29a5.93,5.93,0,0,1-2.84,1,1.93,1.93,0,0,1-1.34-.52,3.73,3.73,0,0,1-1-1.48,11.1,11.1,0,0,1-.58-2.37,21,21,0,0,1-.21-3.11A15.08,15.08,0,0,1,870,171a5.6,5.6,0,0,1,1.3-2.4,12.61,12.61,0,0,1,3.36-2.37,38.05,38.05,0,0,1,5.62-2.41,49,49,0,0,1,7-1.81,43.11,43.11,0,0,1,7.86-.71,43.7,43.7,0,0,1,12.31,1.52,20.3,20.3,0,0,1,8.4,4.67,18.43,18.43,0,0,1,4.8,8.11,40.85,40.85,0,0,1,1.51,11.77Zm-16.94-28.28h-6.59a32.46,32.46,0,0,0-7.13.67,12.94,12.94,0,0,0-4.8,2A7.93,7.93,0,0,0,884,209.4a10.36,10.36,0,0,0-.86,4.33,8.64,8.64,0,0,0,2.44,6.51,9.26,9.26,0,0,0,6.75,2.37,11.88,11.88,0,0,0,6.69-2,28.6,28.6,0,0,0,6.21-5.85Z"/><path d="M972.34,234.09l-7.4,23.4q-.63,1.85-3.37,2.66a29.53,29.53,0,0,1-8,.82,29.87,29.87,0,0,1-4.39-.26,5.85,5.85,0,0,1-2.47-.85,2,2,0,0,1-.89-1.48,5,5,0,0,1,.41-2.15l8.16-22.14a4.78,4.78,0,0,1-1.61-1.37,6.58,6.58,0,0,1-1.06-2L930.64,170a13.54,13.54,0,0,1-.89-4,2.86,2.86,0,0,1,.82-2.15,5.21,5.21,0,0,1,2.78-1.07,35.68,35.68,0,0,1,5.18-.3c2,0,3.52,0,4.66.11a7.76,7.76,0,0,1,2.68.56,3,3,0,0,1,1.44,1.37,14.44,14.44,0,0,1,1,2.63l14.4,44.2h.21l13.17-45.09a5.11,5.11,0,0,1,1.06-2.55,4.27,4.27,0,0,1,2.16-.93,31.26,31.26,0,0,1,5.28-.3,33.1,33.1,0,0,1,4.9.3,5.6,5.6,0,0,1,2.88,1.11,2.75,2.75,0,0,1,.93,2.18,11.48,11.48,0,0,1-.55,3.23Z"/><path d="M355.76,62.78a17.68,17.68,0,0,1-.09,1.92,7.1,7.1,0,0,1-.27,1.3,1.47,1.47,0,0,1-.43.67.94.94,0,0,1-.6.19,3.75,3.75,0,0,1-1.61-.69,23.75,23.75,0,0,0-3-1.5,30.58,30.58,0,0,0-4.42-1.51,23,23,0,0,0-6-.69,16.59,16.59,0,0,0-6.55,1.25,14.34,14.34,0,0,0-5,3.55,15.74,15.74,0,0,0-3.2,5.51,21.48,21.48,0,0,0-1.12,7.12,22.75,22.75,0,0,0,1.14,7.53,15,15,0,0,0,3.18,5.46,13.23,13.23,0,0,0,4.91,3.32,17.49,17.49,0,0,0,6.35,1.11,15.1,15.1,0,0,0,3.35-.38,12.32,12.32,0,0,0,3.09-1.16V84.21H336.1c-.46,0-.82-.29-1.08-.86a7.91,7.91,0,0,1-.39-2.95,15.15,15.15,0,0,1,.1-1.82,4.24,4.24,0,0,1,.29-1.17,1.64,1.64,0,0,1,.46-.66,1,1,0,0,1,.62-.21H353a2.73,2.73,0,0,1,1.1.21,2.48,2.48,0,0,1,.85.64,2.78,2.78,0,0,1,.55,1,4.44,4.44,0,0,1,.2,1.37V99.64a4.73,4.73,0,0,1-.41,2,2.86,2.86,0,0,1-1.66,1.37c-.83.33-1.87.68-3.1,1s-2.51.67-3.84.93-2.66.45-4,.57-2.7.2-4.06.2a31.23,31.23,0,0,1-10.7-1.72,21,21,0,0,1-13-12.92,30.56,30.56,0,0,1-1.73-10.62,30.78,30.78,0,0,1,1.85-11,23.33,23.33,0,0,1,5.24-8.29,22.77,22.77,0,0,1,8.2-5.22,30,30,0,0,1,10.7-1.81,36.74,36.74,0,0,1,5.9.44,34.46,34.46,0,0,1,4.64,1.08,17.87,17.87,0,0,1,3.3,1.37,8.51,8.51,0,0,1,1.83,1.27,3.15,3.15,0,0,1,.75,1.52A13.39,13.39,0,0,1,355.76,62.78Z"/><path d="M395.63,101a14,14,0,0,1-.1,1.87,5,5,0,0,1-.28,1.21,1.52,1.52,0,0,1-.49.68,1,1,0,0,1-.63.21H369.07a3.14,3.14,0,0,1-2.14-.75,3.08,3.08,0,0,1-.87-2.45V58.23a3.08,3.08,0,0,1,.87-2.45,3.14,3.14,0,0,1,2.14-.75H394a1,1,0,0,1,.62.19,1.49,1.49,0,0,1,.46.67,4.93,4.93,0,0,1,.29,1.24,14.27,14.27,0,0,1,.1,1.91,13.58,13.58,0,0,1-.1,1.83,4.57,4.57,0,0,1-.29,1.21,1.65,1.65,0,0,1-.46.68A1,1,0,0,1,394,63H376.16V75.15h15.08a1,1,0,0,1,.63.21,1.55,1.55,0,0,1,.48.66,4.29,4.29,0,0,1,.29,1.2,17,17,0,0,1,0,3.68,4.14,4.14,0,0,1-.29,1.17,1.37,1.37,0,0,1-.48.64,1.09,1.09,0,0,1-.63.19H376.16V97h18a1,1,0,0,1,.63.21,1.48,1.48,0,0,1,.49.67,5.14,5.14,0,0,1,.28,1.22A13.92,13.92,0,0,1,395.63,101Z"/><path d="M437.77,59.19a17.23,17.23,0,0,1-.09,1.91,5.33,5.33,0,0,1-.29,1.27,1.7,1.7,0,0,1-.48.71,1,1,0,0,1-.64.24H423.78v40.21a1.08,1.08,0,0,1-.25.69,1.79,1.79,0,0,1-.83.51,8.47,8.47,0,0,1-1.56.3,25.07,25.07,0,0,1-4.9,0,8.14,8.14,0,0,1-1.56-.3,1.74,1.74,0,0,1-.83-.51,1,1,0,0,1-.25-.69V63.32H401.11a1,1,0,0,1-.66-.24,1.78,1.78,0,0,1-.46-.71,4.88,4.88,0,0,1-.29-1.27,14.89,14.89,0,0,1-.1-1.91,15.8,15.8,0,0,1,.1-2,5,5,0,0,1,.29-1.29,1.63,1.63,0,0,1,.46-.69,1,1,0,0,1,.66-.21h35.16a1.09,1.09,0,0,1,.64.21,1.56,1.56,0,0,1,.48.69,5.41,5.41,0,0,1,.29,1.29A18.28,18.28,0,0,1,437.77,59.19Z"/><path d="M471.71,103.53a1,1,0,0,1-.26.69,1.7,1.7,0,0,1-.82.51,8.34,8.34,0,0,1-1.55.3,25.17,25.17,0,0,1-4.91,0,8.14,8.14,0,0,1-1.56-.3,1.69,1.69,0,0,1-.83-.51,1,1,0,0,1-.25-.69V56.41a1.07,1.07,0,0,1,.25-.69,1.72,1.72,0,0,1,.84-.5,8.67,8.67,0,0,1,1.57-.31,20.21,20.21,0,0,1,2.43-.12,20.53,20.53,0,0,1,2.46.12,8.23,8.23,0,0,1,1.55.31,1.69,1.69,0,0,1,.82.5,1.08,1.08,0,0,1,.26.69Z"/><path d="M515.78,59.19a17,17,0,0,1-.1,1.91,4.88,4.88,0,0,1-.29,1.27,1.7,1.7,0,0,1-.48.71,1,1,0,0,1-.64.24H501.78v40.21a1,1,0,0,1-.25.69,1.74,1.74,0,0,1-.83.51,8.47,8.47,0,0,1-1.56.3,25.07,25.07,0,0,1-4.9,0,8.47,8.47,0,0,1-1.56-.3,1.74,1.74,0,0,1-.83-.51,1,1,0,0,1-.25-.69V63.32H479.11a1,1,0,0,1-.66-.24,1.78,1.78,0,0,1-.46-.71,4.88,4.88,0,0,1-.29-1.27,17,17,0,0,1-.1-1.91,18,18,0,0,1,.1-2,5,5,0,0,1,.29-1.29,1.63,1.63,0,0,1,.46-.69,1,1,0,0,1,.66-.21h35.16a1.07,1.07,0,0,1,.64.21,1.56,1.56,0,0,1,.48.69,5,5,0,0,1,.29,1.29A18,18,0,0,1,515.78,59.19Z"/><path d="M584.41,79.39a37.24,37.24,0,0,1-1.54,11.11,22.5,22.5,0,0,1-4.59,8.31,19.76,19.76,0,0,1-7.54,5.2,27.78,27.78,0,0,1-10.39,1.8,30.55,30.55,0,0,1-10.16-1.53A17.6,17.6,0,0,1,543,99.64a20,20,0,0,1-4.34-8,40,40,0,0,1-1.44-11.41,35.72,35.72,0,0,1,1.54-10.89,22.23,22.23,0,0,1,4.59-8.23A20,20,0,0,1,550.84,56a27.76,27.76,0,0,1,10.43-1.81,30.59,30.59,0,0,1,10,1.5,17.61,17.61,0,0,1,7.25,4.63,20.16,20.16,0,0,1,4.39,7.88A38,38,0,0,1,584.41,79.39Zm-10.64.54a38.24,38.24,0,0,0-.62-7.15,15.38,15.38,0,0,0-2.1-5.51,10.1,10.1,0,0,0-3.95-3.55,13.67,13.67,0,0,0-6.17-1.25,12.7,12.7,0,0,0-6.25,1.4,11.61,11.61,0,0,0-4,3.76,15.62,15.62,0,0,0-2.18,5.5,33.74,33.74,0,0,0-.63,6.65,39.79,39.79,0,0,0,.61,7.34,16,16,0,0,0,2.09,5.58,9.49,9.49,0,0,0,3.93,3.52,14,14,0,0,0,6.21,1.22,12.69,12.69,0,0,0,6.24-1.39A11.13,11.13,0,0,0,571,92.27a15.79,15.79,0,0,0,2.18-5.57A34.05,34.05,0,0,0,573.77,79.93Z"/><path d="M634.07,101.37a3.78,3.78,0,0,1-.31,1.58,3.19,3.19,0,0,1-.83,1.16,3.13,3.13,0,0,1-1.23.67,4.81,4.81,0,0,1-1.45.22h-4.31a9,9,0,0,1-2.34-.27,4.62,4.62,0,0,1-1.81-1,8.61,8.61,0,0,1-1.6-1.92c-.51-.81-1.09-1.86-1.73-3.15L606,75.35q-1.08-2.09-2.2-4.5t-2-4.68h-.08c.1,1.85.18,3.69.23,5.53s.08,3.74.08,5.69v26.1a1.23,1.23,0,0,1-.21.7,1.67,1.67,0,0,1-.74.52,5.49,5.49,0,0,1-1.4.32,17.68,17.68,0,0,1-2.28.12,17.33,17.33,0,0,1-2.24-.12,5.21,5.21,0,0,1-1.38-.32,1.48,1.48,0,0,1-.7-.52,1.29,1.29,0,0,1-.19-.7V58.65A3.38,3.38,0,0,1,594,55.93a3.88,3.88,0,0,1,2.6-.9H602a10.21,10.21,0,0,1,2.47.25,4.9,4.9,0,0,1,1.79.83,6.07,6.07,0,0,1,1.48,1.6,19.83,19.83,0,0,1,1.43,2.52l9.72,18.24c.56,1.1,1.12,2.19,1.68,3.26s1.08,2.13,1.6,3.2l1.5,3.14c.49,1,1,2.06,1.43,3.08h0c-.07-1.79-.13-3.67-.17-5.63s-.06-3.81-.06-5.59V56.53a1.12,1.12,0,0,1,.23-.69,1.79,1.79,0,0,1,.78-.54,4.64,4.64,0,0,1,1.42-.33,20.23,20.23,0,0,1,2.28-.1,19.21,19.21,0,0,1,2.19.1,4,4,0,0,1,1.37.33,1.54,1.54,0,0,1,.68.54,1.23,1.23,0,0,1,.19.69Z"/></g></g></svg>