<svg width="1440" height="208" viewBox="0 0 1440 208" fill="none" xmlns="http://www.w3.org/2000/svg">
<path opacity="0.6" d="M1427.74 2.50426L1416.36 1M1427.74 2.50426H1394.03M1427.74 2.50426L1439.49 4.05851M1427.74 2.50426H1451.61M1416.36 1L1420.5 1.0004L1424.6 1.00357L1428.61 1.01309L1432.49 1.03095L1436.21 1.06031L1439.72 1.10396L1442.97 1.16546L1446 1.24363L1448.6 1.35156L1450.96 1.47655L1451.61 1.5202V2.50426M1416.36 1H1383.21M1394.03 2.50426L1383.21 1M1394.03 2.50426H1360.33M1394.03 2.50426L1396.8 2.88796L1405.23 4.0589M1439.49 4.05851L1405.23 4.0589M1439.49 4.05851L1451.61 5.66156M1439.49 4.05851H1451.61M1451.61 2.50426V4.05851M1383.21 1H1350.04M1350.04 1H1316.89M1350.04 1L1360.33 2.50426M1316.89 1H1283.72M1316.89 1L1326.64 2.50426M1360.33 2.50426H1326.64M1360.33 2.50426L1370.97 4.0589M1283.72 1H1250.56M1283.72 1L1292.93 2.50426M1326.64 2.50426H1292.93M1326.64 2.50426L1336.71 4.05851M1250.56 1H1217.41M1250.56 1L1259.23 2.50426M1292.93 2.50426H1259.23M1292.93 2.50426L1302.45 4.05851M1217.41 1H1184.24M1217.41 1L1225.53 2.50426M1259.23 2.50426H1225.53M1259.23 2.50426L1261.44 2.88835L1262.55 3.0812L1268.19 4.0589M1184.24 1H1151.09M1184.24 1L1191.82 2.50426M1225.53 2.50426H1191.82M1225.53 2.50426L1227.6 2.88835L1233.92 4.0589H1268.19M1151.09 1H1117.92M1151.09 1L1158.13 2.50426M1191.82 2.50426H1158.13M1191.82 2.50426L1199.66 4.05851M1117.92 1H1084.76M1117.92 1L1124.42 2.50426M1158.13 2.50426H1124.42M1158.13 2.50426L1159.92 2.88796L1160.83 3.0808L1165.4 4.05851M1084.76 1H1051.6M1084.76 1L1090.72 2.50426M1124.42 2.50426H1090.72M1124.42 2.50426L1131.13 4.05851M1051.6 1H1018.44M1051.6 1L1057.02 2.50426M1090.72 2.50426H1057.02M1090.72 2.50426L1092.24 2.88835L1093.01 3.0812L1096.87 4.0589M1018.44 1H985.282M1018.44 1L1019.65 1.3718L1021.47 1.93406L1023.31 2.50426M1057.02 2.50426H1023.31M1057.02 2.50426L1057.7 2.69551L1058.4 2.88796L1062.61 4.05851M985.282 1H952.122M985.282 1L986.352 1.3718L989.614 2.50426M1023.31 2.50426H989.614M1023.31 2.50426L1024.56 2.88796L1025.18 3.0808L1028.35 4.05851M952.122 1H918.961M952.122 1L955.913 2.50426M989.614 2.50426H955.913M989.614 2.50426L994.09 4.05851M918.961 1H885.802M918.961 1L920.167 1.55829L921.389 2.12333L921.799 2.31379L922.212 2.50426M955.913 2.50426H922.212M955.913 2.50426L956.396 2.69591L956.88 2.88835L957.367 3.0812L959.83 4.0589M885.802 1H852.641M885.802 1L886.807 1.55829L887.144 1.74598L887.483 1.93406L888.51 2.50426M922.212 2.50426H888.51M922.212 2.50426L923.04 2.88796L923.457 3.0808L923.876 3.27523L925.569 4.05851M852.641 1H819.481M852.641 1L854.807 2.50426M888.51 2.50426H854.807M888.51 2.50426L889.199 2.88796L890.599 3.66488L890.952 3.8613L891.307 4.05851M819.481 1L819.682 1.1853L819.881 1.3718L820.9 2.31379L821.105 2.50426M819.481 1H786.321M854.807 2.50426H821.105M854.807 2.50426L855.084 2.69591L855.36 2.88835L855.638 3.0812L857.045 4.0589M821.105 2.50426H787.404M821.105 2.50426L822.783 4.0589M786.321 1H753.16M786.321 1L787.404 2.50426M753.16 1H720M753.16 1L753.362 1.55829L753.702 2.50426M787.404 2.50426H753.702M787.404 2.50426L787.542 2.69551L787.679 2.88796L787.819 3.0808L788.523 4.05851M720 1H686.84M720 1V2.50426M753.702 2.50426H720M753.702 2.50426L754.261 4.05851M686.84 1H653.679M686.84 1L686.639 1.55829L686.298 2.50426M720 2.50426H686.298M720 2.50426V4.0589M653.679 1H620.519M653.679 1L652.597 2.50426M686.298 2.50426H652.597M686.298 2.50426L685.739 4.05851M620.519 1L620.318 1.1853L620.119 1.3718L619.1 2.31379L618.895 2.50426M620.519 1H587.359M652.597 2.50426H618.895M652.597 2.50426L652.458 2.69551L652.321 2.88796L652.181 3.0808L651.76 3.66488L651.477 4.05851M618.895 2.50426H585.193M618.895 2.50426L617.217 4.05851M587.359 1H554.198M587.359 1L585.468 2.3134L585.193 2.50426M554.198 1H521.039M554.198 1L553.193 1.55829L552.856 1.74598L552.176 2.12333L551.834 2.31379L551.49 2.50426M585.193 2.50426H551.49M585.193 2.50426L584.916 2.69591L584.64 2.88835L584.362 3.0812L582.954 4.05851M521.039 1H487.878M521.039 1L519.833 1.55829L518.611 2.12333L518.201 2.31379L517.788 2.50426M551.49 2.50426H517.788M551.49 2.50426L550.801 2.88835L549.401 3.66528L548.693 4.0589M487.878 1H454.718M487.878 1L484.087 2.50426M517.788 2.50426H484.087M517.788 2.50426L516.96 2.88796L516.543 3.0808L516.124 3.27523L514.431 4.05851M454.718 1H421.557M454.718 1L453.648 1.3718L450.386 2.50426M484.087 2.50426L483.604 2.69551L480.17 4.05851M484.087 2.50426H450.386M421.557 1H388.397M421.557 1L416.684 2.50426M450.386 2.50426H416.684M450.386 2.50426L449.834 2.69591L445.91 4.05851M388.397 1H355.237M388.397 1L382.982 2.50426M416.684 2.50426H382.982M416.684 2.50426L415.44 2.88835L414.814 3.0812L411.648 4.05851M355.237 1H322.076M355.237 1L349.28 2.50426M382.982 2.50426H349.28M382.982 2.50426L382.292 2.69551L381.6 2.88796L377.387 4.05851M322.076 1H288.916M322.076 1L315.579 2.50426M349.28 2.50426H315.579M349.28 2.50426L347.76 2.88796L346.995 3.0808L343.124 4.05851M288.916 1H255.756M288.916 1L281.876 2.50426M315.579 2.50426H281.876M315.579 2.50426L314.75 2.69591L308.863 4.05851M255.756 1H222.596M255.756 1L248.174 2.50426M281.876 2.50426H248.174M281.876 2.50426L280.08 2.88835L279.176 3.0812L274.602 4.0589M222.596 1H189.436M222.596 1L214.472 2.50426M248.174 2.50426H214.472M248.174 2.50426L240.341 4.05851M189.436 1H156.276M189.436 1L180.771 2.50426M214.472 2.50426H180.771M214.472 2.50426L212.401 2.88796L206.08 4.05851M156.276 1H123.116M156.276 1L147.069 2.50426M180.771 2.50426H147.069M180.771 2.50426L178.561 2.88835L177.447 3.0812L171.818 4.0589M123.116 1H89.9549M123.116 1L113.367 2.50426M147.069 2.50426H113.367M147.069 2.50426L137.557 4.0589M89.9549 1H56.7949M89.9549 1L79.6657 2.50426M113.367 2.50426H79.6657M113.367 2.50426L103.296 4.05851M56.7949 1H23.634M56.7949 1L45.9636 2.50426M79.6657 2.50426H45.9636M79.6657 2.50426L69.0341 4.05851M23.634 1L19.4971 1.0004L15.4003 1.00357L11.3909 1.01309L7.50695 1.03095L3.79072 1.06031L0.282338 1.10396L-2.97501 1.16546L-5.99941 1.24363L-8.59404 1.35156L-10.9567 1.47655L-11.6064 1.5202V2.50426M23.634 1L12.2614 2.50426M45.9636 2.50426H12.2614M45.9636 2.50426L43.2002 2.88796L34.7717 4.05851M-11.6064 2.50426H12.2614M-11.6064 2.50426V4.05851M69.0341 4.05851H103.296M69.0341 4.05851H34.7717M103.296 4.05851L92.8829 5.66513M103.296 4.05851L137.557 4.0589M206.08 4.05851H240.341M206.08 4.05851L171.818 4.0589M240.341 4.05851L274.602 4.0589M343.124 4.05851L336.762 5.66513M343.124 4.05851H377.387M343.124 4.05851H308.863M377.387 4.05851L373.794 5.05645L371.601 5.66513M377.387 4.05851H411.648M480.17 4.05851L476.121 5.66513M480.17 4.05851H514.431M480.17 4.05851H445.91M514.431 4.05851L512.277 5.05645L510.961 5.66513M514.431 4.05851L548.693 4.0589M617.217 4.05851L616.787 4.45491L616.138 5.05645L615.701 5.46118L615.481 5.66513M617.217 4.05851H651.477M617.217 4.05851H582.954M651.477 4.05851L651.047 4.65449L650.467 5.46118L650.32 5.66513M651.477 4.05851H685.739M754.261 4.05851L754.333 4.25651L754.404 4.45491L754.476 4.65449L754.548 4.85488L754.621 5.05645L754.84 5.66513M754.261 4.05851H788.523M754.261 4.05851L720 4.0589M788.523 4.05851L788.953 4.65449L789.533 5.46118L789.68 5.66513M788.523 4.05851L822.783 4.0589M891.307 4.05851L892.021 4.45491L894.199 5.66513M891.307 4.05851H925.569M891.307 4.05851L857.045 4.0589M925.569 4.05851L927.723 5.05645L929.039 5.66513M925.569 4.05851L959.83 4.0589M1028.35 4.05851L1032.9 5.46118L1033.56 5.66513M1028.35 4.05851H1062.61M1028.35 4.05851H994.09M1062.61 4.05851L1066.21 5.05645L1068.4 5.66513M1062.61 4.05851L1096.87 4.0589M1165.4 4.05851L1172.92 5.66513M1165.4 4.05851H1199.66M1165.4 4.05851H1131.13M1199.66 4.05851L1207.76 5.66513M1199.66 4.05851L1233.92 4.05811L1242.59 5.66513M1302.45 4.05851L1312.28 5.66513M1302.45 4.05851L1268.19 4.0589M1302.45 4.05851H1336.71M1336.71 4.05851L1347.12 5.66513M1336.71 4.05851L1370.97 4.0589M-11.7239 16.5727H-11.6064M-11.6064 16.5727H22.1972M-11.6064 16.5727V18.6344M-11.6064 16.5727V15.8469M22.1972 16.5727L35.0639 14.5875M22.1972 16.5727L8.8374 18.6344M22.1972 16.5727H60.964M35.0639 14.5875L47.4647 12.6737M35.0639 14.5875H73.1148M8.8374 18.6344L-5.04449 20.7763M8.8374 18.6344H48.3463M8.8374 18.6344H-11.6064M60.964 16.5727L73.1158 14.5879M60.964 16.5727L48.3463 18.6344M60.964 16.5727H99.7309M35.0649 14.5875H-2.98807M-2.98807 14.5875L10.1016 12.6737M-2.98807 14.5875H-11.6064M-2.98807 14.5875L-11.6064 15.8469M-11.6064 14.5875V15.8469M-11.6064 14.5875V12.6741M34.9103 9.04624H70.968M34.9103 9.04624L46.6755 7.32652M34.9103 9.04624H-1.14551M70.968 9.04624L82.1147 7.32652M70.968 9.04624L59.4267 10.8279M70.968 9.04624H107.027M46.6755 7.32652H82.1147M46.6755 7.32652L58.0451 5.66474M46.6755 7.32652H11.2372M-1.14551 9.04624L11.2382 7.32692M-1.14551 9.04624H-11.6064M-1.14551 9.04624L-11.6064 10.4989M34.9123 9.04624L22.7283 10.8279H59.4257M82.1147 7.32652H117.552M82.1147 7.32652L92.8839 5.66474M58.0451 5.66474L92.8829 5.66513M58.0451 5.66474L69.0341 4.05771M11.2372 7.32652L23.2043 5.66474M11.2372 7.32652H-11.6064M117.552 7.32652L107.026 9.04663M117.552 7.32652L152.99 7.32692M117.552 7.32652L127.723 5.66513M-11.9769 47.9116H-11.6054M-11.6054 47.9116H19.3033M-11.6054 47.9116L-11.6064 44.6202M-11.6054 47.9116L-11.6064 51.3673M19.3033 47.9116L35.8953 44.6202M19.3033 47.9116L1.88691 51.3673M19.3033 47.9116H69.3534M35.8953 44.6202L51.7212 41.4804M35.8953 44.6202H84.7606M35.8953 44.6202H-11.6064M1.88691 51.3673H53.1811M1.88691 51.3673H-11.6064M1.88691 51.3673L-11.6064 54.0441M69.3534 47.9116L84.7606 44.6202M69.3534 47.9116L53.1811 51.3673M69.3534 47.9116H119.404M51.7212 41.4804H3.98652M51.7212 41.4804L66.8291 38.483M51.7212 41.4804H99.4548M84.7606 44.6202L99.4548 41.4804M84.7606 44.6202H133.626M-11.6064 44.6202V44.3679M3.98652 41.4804L20.1749 38.483M3.98652 41.4804H-11.6064M3.98652 41.4804L-11.6064 44.3679M20.1749 38.483L35.6473 35.6177M20.1749 38.483H66.8291M20.1749 38.483H-11.6054M-11.6064 41.4804V44.3679M-11.6064 41.4804L-11.6054 38.483M35.6473 35.6177H81.2703M35.6473 35.6177L50.4489 32.8766M35.6473 35.6177H-9.97671M81.2703 35.6177L95.0869 32.8766M81.2703 35.6177L66.8291 38.483M81.2703 35.6177H126.894M50.4489 32.8766H95.0869M50.4489 32.8766H5.813M50.4489 32.8766L64.626 30.2518M-9.97671 35.6177L5.813 32.8766M-9.97671 35.6177H-11.6064M-9.97671 35.6177L-11.6064 35.9006M95.0869 32.8766L108.317 30.2518M95.0869 32.8766H139.722M66.8291 38.483H113.484M126.894 35.6177L139.722 32.8766M126.894 35.6177L113.484 38.483M126.894 35.6177H172.517M5.813 32.8766L20.934 30.2518M5.813 32.8766H-11.6064M64.626 30.2518H108.317M64.626 30.2518H20.934M64.626 30.2518L78.2137 27.7357M108.317 30.2518L121 27.7357M108.317 30.2518H152.009M139.722 32.8766L152.009 30.2518M139.722 32.8766H184.36M91.2491 25.3216H133.166M91.2491 25.3216L103.766 23.0039M91.2491 25.3216H49.3334M103.766 23.0039H144.85M103.766 23.0039H62.6851M103.766 23.0039L115.797 20.7763M49.3334 25.3216H7.41859M49.3334 25.3216L62.6851 23.0039M49.3334 25.3216L35.4294 27.7357M91.2502 25.3216L78.2137 27.7357M78.2137 27.7357H121M78.2137 27.7357H35.4294M133.167 25.3216L144.85 23.0039M133.167 25.3216L121 27.7357M133.167 25.3216H175.084M144.85 23.0039L156.077 20.7763M144.85 23.0039H185.932M121 27.7357H163.785M175.084 25.3216L185.932 23.0039M175.084 25.3216L163.785 27.7357M175.084 25.3216H217.001M62.6851 23.0039H21.6047M62.6851 23.0039L75.5157 20.7763M115.797 20.7763H156.077M115.797 20.7763H75.5157M115.797 20.7763L127.364 18.6344M156.077 20.7763L166.873 18.6344M156.077 20.7763H196.357M185.932 23.0039L196.357 20.7763M185.932 23.0039H227.015M138.498 16.5727H177.265M138.498 16.5727L149.22 14.5875M138.498 16.5727H99.7309M138.498 16.5727L127.364 18.6344M177.265 16.5727L187.272 14.5875M177.265 16.5727L166.873 18.6344M177.265 16.5727H216.031M149.22 14.5875H187.272M149.22 14.5875H111.168M149.22 14.5875L159.555 12.6737M99.7309 16.5727L111.168 14.5875M99.7309 16.5727L87.8552 18.634L127.364 18.6344M127.364 18.6344H166.873M187.272 14.5875L196.917 12.6737M187.272 14.5875H225.324M166.873 18.6344H206.382M216.031 16.5727L225.324 14.5875M216.031 16.5727L206.382 18.6344M216.031 16.5727H254.797M111.168 14.5875L73.1158 14.5879M111.168 14.5875L122.192 12.6737M159.555 12.6737H196.917M159.555 12.6737H122.192M159.555 12.6737L169.521 10.8282M196.917 12.6737H234.279M225.324 14.5875L234.279 12.6737M225.324 14.5875H263.377M215.197 9.04703H179.139L188.428 7.32692M188.428 7.32692H223.866M188.428 7.32692L197.403 5.66513M188.428 7.32692H152.99M169.521 10.8282L179.139 9.04663H143.083H107.026M169.521 10.8282L132.823 10.8279M215.197 9.04663L223.866 7.32692M215.197 9.04663L206.219 10.8282M215.197 9.04663H251.255M223.866 7.32692H259.305M223.866 7.32692L232.243 5.66513M197.403 5.66513H232.242M197.403 5.66513L206.079 4.05811M197.403 5.66513H162.561M152.99 7.32692L143.082 9.04663L132.822 10.8279M152.99 7.32692L162.561 5.66513M14.0357 104.982L37.3884 98.4956M14.0357 104.982L-10.9708 111.928M14.0357 104.982H84.632M14.0357 104.982H-11.6064M37.3884 98.4956L59.245 92.4251M37.3884 98.4956H105.649M37.3884 98.4956H-11.6064M-10.9708 111.928H62.1258M-10.9708 111.928H-11.6064M-10.9708 111.928L-11.6064 112.104M84.632 104.982L105.649 98.4956M84.632 104.982L62.1258 111.928M84.632 104.982H155.228M-11.6064 104.982V111.928M-11.6064 104.982V98.4956M59.245 92.4251L79.746 86.7306M59.245 92.4251H125.321M59.245 92.4251H-6.83082L15.7206 86.7306M105.649 98.4956L125.321 92.4251M105.649 98.4956H173.91M-11.6064 98.4956V93.6309M36.9145 81.379H99.013M36.9145 81.379L56.8693 76.3401M36.9145 81.379L15.7206 86.7306M36.9145 81.379H-11.6064M99.013 81.379L117.153 76.3401M99.013 81.379L79.746 86.7306M99.013 81.379H161.111M56.8693 76.3401H117.153M56.8693 76.3401H-3.41481M56.8693 76.3401L75.6924 71.5873M15.7206 86.7306H79.746M15.7206 86.7306H-11.6064M-11.6064 81.379V86.7306M-11.6064 81.379V78.236M117.153 76.3401L134.265 71.5873M117.153 76.3401H177.438M79.746 86.7306H143.771M161.111 81.379L177.438 76.3401M161.111 81.379L143.771 86.7306M161.111 81.379H223.211M-3.41481 76.3401L17.1183 71.5873M-3.41481 76.3401H-11.6064M-3.41481 76.3401L-11.6064 78.236M75.6924 71.5873H134.265M75.6924 71.5873H17.1183M75.6924 71.5873L93.4753 67.0971M134.265 71.5873L150.432 67.0971M134.265 71.5873H192.84M177.438 76.3401L192.84 71.5873M177.438 76.3401H237.723M110.303 62.8475H165.73M110.303 62.8475L126.252 58.8208M110.303 62.8475H54.8761M110.303 62.8475L93.4753 67.0971M165.73 62.8475L180.229 58.8208M165.73 62.8475L150.432 67.0971M165.73 62.8475H221.158M126.252 58.8208H180.229M126.252 58.8208H72.2744M126.252 58.8208L141.386 54.9988M54.8761 62.8475H-0.550074M54.8761 62.8475L72.2744 58.8208M54.8761 62.8475L36.5188 67.0971M93.4753 67.0971H150.432M93.4753 67.0971H36.5188M180.229 58.8208L193.987 54.9988M180.229 58.8208H234.205M150.432 67.0971H207.389M221.158 62.8475L234.205 58.8208M221.158 62.8475L207.389 67.0971M221.158 62.8475H276.585M72.2744 58.8208H18.2962M72.2744 58.8208L88.7851 54.9988M141.386 54.9988H193.987M141.386 54.9988H88.7851M141.386 54.9988L155.769 51.3673M193.987 54.9988L207.062 51.3673M193.987 54.9988H246.589M234.205 58.8208L246.589 54.9988M234.205 58.8208H288.182M169.453 47.9116H219.503M169.453 47.9116L182.49 44.6202M169.453 47.9116H119.404M169.453 47.9116L155.769 51.3673M219.503 47.9116L231.354 44.6202M219.503 47.9116L207.062 51.3673M219.503 47.9116H269.553M182.49 44.6202H231.354M182.49 44.6202H133.626M182.49 44.6202L194.923 41.4804M119.404 47.9116L133.626 44.6202M119.404 47.9116L104.474 51.3673M155.769 51.3673H207.062M155.769 51.3673H104.474M231.354 44.6202L242.658 41.4804M231.354 44.6202H280.219M207.062 51.3673H258.356M269.553 47.9116L280.219 44.6202M269.553 47.9116L258.356 51.3673M269.553 47.9116H319.602M133.626 44.6202L147.189 41.4804M194.923 41.4804H242.658M194.923 41.4804H147.189M194.923 41.4804L206.795 38.483M242.658 41.4804L253.45 38.483M242.658 41.4804H290.392M280.219 44.6202L290.392 41.4804M280.219 44.6202H329.083M218.141 35.6177H263.764M218.141 35.6177L228.997 32.8766M218.141 35.6177H172.517M218.141 35.6177L206.795 38.483M263.764 35.6177L273.634 32.8766M263.764 35.6177L253.45 38.483M263.764 35.6177H309.387M228.997 32.8766H273.634M228.997 32.8766H184.36M228.997 32.8766L239.392 30.2518M172.517 35.6177L184.36 32.8766M172.517 35.6177L160.139 38.483M206.795 38.483H253.45M206.795 38.483H160.139M273.634 32.8766L283.084 30.2518M273.634 32.8766H318.27M253.45 38.483H300.105M309.387 35.6177L318.27 32.8766M309.387 35.6177L300.105 38.483M309.387 35.6177H355.012M184.36 32.8766L195.7 30.2518M239.392 30.2518H283.084M239.392 30.2518H195.7M239.392 30.2518L249.357 27.7357M283.084 30.2518L292.143 27.7357M283.084 30.2518H326.775M318.27 32.8766L326.775 30.2518M318.27 32.8766H362.906M258.916 25.3216H300.833M258.916 25.3216L268.096 23.0039M258.916 25.3216H217.001M258.916 25.3216L249.357 27.7357M300.833 25.3216L301.895 25.0268L309.178 23.0039M300.833 25.3216L292.143 27.7357M300.833 25.3216H342.751M268.096 23.0039H309.178M268.096 23.0039H227.015M268.096 23.0039L276.917 20.7763M217.001 25.3216L227.015 23.0039M217.001 25.3216L206.571 27.7357M249.357 27.7357H292.143M249.357 27.7357H206.571M309.178 23.0039L317.197 20.7763M309.178 23.0039H350.261M292.143 27.7357H334.928M342.751 25.3216L350.261 23.0039M342.751 25.3216L334.928 27.7357M342.751 25.3216H384.667M227.015 23.0039L236.637 20.7763M276.917 20.7763H317.197M276.917 20.7763H236.637M276.917 20.7763L285.4 18.6344M317.197 20.7763L323.962 18.8975L324.909 18.6344M317.197 20.7763H357.478M350.261 23.0039L357.478 20.7763M350.261 23.0039H391.343M293.564 16.5727H332.332M293.564 16.5727L301.429 14.5875M293.564 16.5727H254.797M293.564 16.5727L285.4 18.6344M332.332 16.5727L339.481 14.5875M332.332 16.5727L329.582 17.3369L324.909 18.6344M332.332 16.5727H371.099M301.429 14.5875H339.481M301.429 14.5875H263.377M301.429 14.5875L309.007 12.6737M254.797 16.5727L262.321 14.8311L263.377 14.5875M254.797 16.5727L245.891 18.634M285.4 18.6344H324.909M285.4 18.6344L245.891 18.634M339.481 14.5875L346.37 12.6737M339.481 14.5875H377.532M324.909 18.6344H364.418M371.099 16.5727L377.532 14.5875M371.099 16.5727L369.451 17.0806L364.418 18.6344M371.099 16.5727H409.865M263.377 14.5875L271.643 12.6737M309.007 12.6737H346.37M309.007 12.6737H271.643M309.007 12.6737L316.316 10.8282M346.37 12.6737L353.014 10.8282M346.37 12.6737H383.733M377.532 14.5875L383.733 12.6737M377.532 14.5875H415.584M359.426 9.04703H323.368L330.18 7.32692M330.18 7.32692H365.62M330.18 7.32692L336.762 5.66513M330.18 7.32692H294.742M287.313 9.04663H323.368L316.316 10.8282M316.316 10.8282H353.014M316.316 10.8282L279.617 10.8279L271.643 12.6737M359.426 9.04663L364.091 7.75149L364.857 7.53841L365.62 7.32692M359.426 9.04663L353.014 10.8282M359.426 9.04663H395.484M365.62 7.32692H401.057M365.62 7.32692L371.601 5.66513M353.014 10.8282L389.712 10.8279M395.484 9.04663L401.057 7.32692M395.484 9.04663L389.712 10.8279M395.484 9.04663H431.542M336.762 5.66513H371.601M336.762 5.66513H301.922M294.742 7.32692H259.304M294.742 7.32692L287.312 9.04663M294.742 7.32692L301.922 5.66513M401.057 7.32692H436.495M401.057 7.32692L406.442 5.66513M371.601 5.66513H406.442M39.6145 178.87H136.813M39.6145 178.87L70.22 166.726M39.6145 178.87L5.9827 192.215M39.6145 178.87L-11.6054 178.87M136.813 178.87L163.045 166.726M136.813 178.87L107.986 192.215M136.813 178.87H234.01M70.22 166.726H163.045M70.22 166.726L98.1906 155.627M70.22 166.726H-11.6054M5.9827 192.215H107.986M5.9827 192.215L-11.6054 199.195M5.9827 192.215H-11.6064M-11.6054 178.87L-11.6064 192.215M-11.6054 178.87V166.726M163.045 166.726L187.021 155.627M163.045 166.726H255.872M107.986 192.215L76.1603 206.948M107.986 192.215H209.989M234.01 178.87L255.872 166.726M234.01 178.87L209.989 192.215M234.01 178.87H331.209M98.1906 155.627H187.021M98.1906 155.627H9.36054M98.1906 155.627L123.853 145.445M-11.6054 166.726V162.907M187.021 155.627L209.017 145.445M187.021 155.627H275.851M255.872 166.726L275.851 155.627M255.872 166.726H348.697M147.481 136.069H229.269M147.481 136.069L169.306 127.409M147.481 136.069H65.6924M147.481 136.069L123.853 145.445M229.269 136.069L247.976 127.409M229.269 136.069L209.017 145.445M229.269 136.069H311.057M169.306 127.409H247.976M169.306 127.409H90.6356M169.306 127.409L189.53 119.384M65.6924 136.069L90.6356 127.409M65.6924 136.069L38.6887 145.445M65.6924 136.069H-11.6064M123.853 145.445H209.017M123.853 145.445H38.6887M247.976 127.409L265.312 119.384M247.976 127.409H326.648M209.017 145.445H294.18M311.057 136.069L326.648 127.409M311.057 136.069L294.18 145.445M311.057 136.069H392.845M90.6356 127.409H11.9652M90.6356 127.409L113.748 119.384M189.53 119.384H265.312M189.53 119.384H113.748M189.53 119.384L208.32 111.928M265.312 119.384L281.418 111.928M265.312 119.384H341.093M326.648 127.409L341.093 119.384M326.648 127.409H405.318M225.826 104.982H296.421M225.826 104.982L242.172 98.4956M225.826 104.982H155.228M225.826 104.982L208.32 111.928M296.421 104.982L310.433 98.4956M296.421 104.982L281.418 111.928M296.421 104.982H367.017M242.172 98.4956H310.433M242.172 98.4956H173.91M242.172 98.4956L257.471 92.4251M155.228 104.982L173.91 98.4956M155.228 104.982L135.222 111.928M208.32 111.928H281.418M208.32 111.928H135.222M310.433 98.4956L323.547 92.4251M310.433 98.4956H378.694M281.418 111.928H354.515M367.017 104.982L378.694 98.4956M367.017 104.982L354.515 111.928M367.017 104.982H437.615M173.91 98.4956L191.397 92.4251M257.471 92.4251H323.547M257.471 92.4251H191.397M257.471 92.4251L271.822 86.7306M323.547 92.4251L335.848 86.7306M323.547 92.4251H389.623M378.694 98.4956L389.623 92.4251M378.694 98.4956H446.956M285.308 81.379H347.408M285.308 81.379L298.009 76.3401M285.308 81.379H223.211M285.308 81.379L271.822 86.7306M347.408 81.379L358.293 76.3401M347.408 81.379L335.848 86.7306M347.408 81.379H409.506M298.009 76.3401H358.293M298.009 76.3401H237.723M298.009 76.3401L309.986 71.5873M223.211 81.379L237.723 76.3401M223.211 81.379L207.797 86.7306M271.822 86.7306H335.848M271.822 86.7306H207.797M358.293 76.3401L368.56 71.5873M358.293 76.3401H418.577M335.848 86.7306H399.873M409.506 81.379L418.577 76.3401M409.506 81.379L399.873 86.7306M409.506 81.379H471.605M237.723 76.3401L251.413 71.5873M309.986 71.5873H368.56M309.986 71.5873H251.413M309.986 71.5873L321.302 67.0971M368.56 71.5873L378.259 67.0971M368.56 71.5873H427.133M418.577 76.3401L427.133 71.5873M418.577 76.3401H478.862M332.011 62.8475H387.439M332.011 62.8475L342.159 58.8208M332.011 62.8475H276.585M332.011 62.8475L321.302 67.0971M387.439 62.8475L396.137 58.8208M387.439 62.8475L378.259 67.0971M387.439 62.8475H442.865M342.159 58.8208H396.137M342.159 58.8208H288.182M342.159 58.8208L351.791 54.9988M276.585 62.8475L288.182 58.8208M276.585 62.8475L264.346 67.0971M321.302 67.0971H378.259M321.302 67.0971H264.346M396.137 58.8208L404.393 54.9988M396.137 58.8208H450.114M378.259 67.0971H435.216M442.865 62.8475L450.114 58.8208M442.865 62.8475L435.216 67.0971M442.865 62.8475H498.292M288.182 58.8208L299.19 54.9988M351.791 54.9988H404.393M351.791 54.9988H299.19M351.791 54.9988L360.943 51.3673M404.393 54.9988L412.237 51.3673M404.393 54.9988H456.994M450.114 58.8208L456.994 54.9988M450.114 58.8208H504.092M369.652 47.9116H419.701M369.652 47.9116L377.948 44.6202M369.652 47.9116H319.602M369.652 47.9116L360.943 51.3673M419.701 47.9116L426.812 44.6202M419.701 47.9116L412.237 51.3673M419.701 47.9116H469.751M377.948 44.6202H426.812M377.948 44.6202H329.083M377.948 44.6202L385.861 41.4804M319.602 47.9116L329.083 44.6202M319.602 47.9116L309.65 51.3673M360.943 51.3673H412.237M360.943 51.3673H309.65M426.812 44.6202L433.594 41.4804M426.812 44.6202H475.677M412.237 51.3673H463.531M469.751 47.9116L475.677 44.6202M469.751 47.9116L463.531 51.3673M469.751 47.9116H519.802M329.083 44.6202L338.126 41.4804M385.861 41.4804H433.594M385.861 41.4804H338.126M385.861 41.4804L393.415 38.483M433.594 41.4804L440.07 38.483M433.594 41.4804H481.329M475.677 44.6202L479.24 42.6406L481.329 41.4804M475.677 44.6202H524.542M400.635 35.6177H446.259M400.635 35.6177L407.543 32.8766M400.635 35.6177H355.012M400.635 35.6177L393.415 38.483M446.259 35.6177L452.179 32.8766M446.259 35.6177L440.07 38.483M446.259 35.6177H491.882M407.543 32.8766H452.179M407.543 32.8766H362.906M407.543 32.8766L414.159 30.2518M355.012 35.6177L362.906 32.8766M355.012 35.6177L346.759 38.483M393.415 38.483H440.07M393.415 38.483H346.759M452.179 32.8766L457.851 30.2518M452.179 32.8766H496.816M440.07 38.483H486.725M491.882 35.6177L496.816 32.8766M491.882 35.6177L490.614 36.322L486.725 38.483M491.882 35.6177H537.505M362.906 32.8766L370.466 30.2518M414.159 30.2518H457.851M414.159 30.2518H370.466M414.159 30.2518L420.5 27.7357M457.851 30.2518L460.596 28.9805L463.286 27.7357M457.851 30.2518H501.542M496.816 32.8766L501.542 30.2518M496.816 32.8766H541.453M426.583 25.3216H468.5M426.583 25.3216L432.424 23.0039M426.583 25.3216H384.667M426.583 25.3216L420.5 27.7357M468.5 25.3216L467.86 25.618L463.286 27.7357M468.5 25.3216L473.507 23.0039M468.5 25.3216H510.417M432.424 23.0039H473.507M432.424 23.0039H391.343M432.424 23.0039L438.038 20.7763M384.667 25.3216L391.343 23.0039M384.667 25.3216L377.714 27.7357M420.5 27.7357H463.286M420.5 27.7357H377.714M463.286 27.7357H506.071M473.507 23.0039L478.318 20.7763M473.507 23.0039H514.589M510.417 25.3216L514.589 23.0039M510.417 25.3216L506.071 27.7357M510.417 25.3216H552.334M391.343 23.0039L397.758 20.7763M438.038 20.7763H478.318M438.038 20.7763H397.758M438.038 20.7763L443.437 18.6344M478.318 20.7763L482.946 18.634M478.318 20.7763H518.599M514.589 23.0039L518.599 20.7763M514.589 23.0039H555.671M448.632 16.5727H487.399M448.632 16.5727L453.636 14.5875M448.632 16.5727H409.865M448.632 16.5727L443.437 18.6344M487.399 16.5727L491.688 14.5875M487.399 16.5727L485.749 17.3369L484.635 17.8523L482.946 18.634M487.399 16.5727H526.166M453.636 14.5875H491.688M453.636 14.5875H415.584M453.636 14.5875L458.458 12.6737M409.865 16.5727L415.584 14.5875M409.865 16.5727L403.928 18.634M443.437 18.6344L482.946 18.634M443.437 18.6344L403.928 18.634M491.688 14.5875L493.257 13.8614L494.29 13.3828L495.822 12.6737M491.688 14.5875H529.74M482.946 18.634L522.455 18.6344M526.166 16.5727L527.071 16.0691L529.74 14.5875M526.166 16.5727L525.71 16.8262L525.251 17.0806L523.863 17.8523L523.395 18.1114L522.455 18.6344M526.166 16.5727H564.932M415.584 14.5875L421.096 12.6737M458.458 12.6737H495.822M458.458 12.6737H421.096M458.458 12.6737L461.962 11.283L463.11 10.8282M495.822 12.6737L497.833 11.7425L499.809 10.8279M495.822 12.6737H533.185M529.74 14.5875L530.178 14.3443L530.613 14.1022L532.336 13.1451L533.185 12.6737M529.74 14.5875H567.792M503.655 9.04703H467.599L470.864 7.75149L471.933 7.32692M471.933 7.32692H507.372M471.933 7.32692L476.121 5.66513M471.933 7.32692H436.495M431.542 9.04663H467.599L463.68 10.6021L463.11 10.8282M431.542 9.04663L436.495 7.32692M431.542 9.04663L426.411 10.8279M463.11 10.8282L499.809 10.8279M463.11 10.8282L426.411 10.8279M503.655 9.04663L506.455 7.75149L506.914 7.53841L507.372 7.32692M503.655 9.04663L501.749 9.92951L499.809 10.8279M503.655 9.04663H539.713M507.372 7.32692H542.81M507.372 7.32692L510.961 5.66513M499.809 10.8279H536.507M539.713 9.04663L542.81 7.32692M539.713 9.04663L536.507 10.8279M539.713 9.04663H575.771M476.121 5.66513H510.961M476.121 5.66513H441.282M436.495 7.32692L440.101 6.07542L441.282 5.66513M542.81 7.32692H578.247M542.81 7.32692L545.062 6.07542L545.801 5.66513M510.961 5.66513H545.801M428.406 178.87H525.604M428.406 178.87L441.523 166.726M428.406 178.87H331.209M428.406 178.87L413.993 192.215M525.604 178.87L534.349 166.726M525.604 178.87L515.996 192.215M525.604 178.87H622.803M441.523 166.726H534.349M441.523 166.726H348.697M441.523 166.726L453.51 155.627M331.209 178.87L348.697 166.726M331.209 178.87L311.99 192.215M413.993 192.215H515.996M413.993 192.215L398.081 206.948M413.993 192.215H311.99M534.349 166.726L542.34 155.627M534.349 166.726H627.175M515.996 192.215L505.387 206.948M515.996 192.215H617.997M622.803 178.87L627.175 166.726M622.803 178.87L617.997 192.215M622.803 178.87H720M348.697 166.726L364.681 155.627M453.51 155.627H542.34M453.51 155.627H364.681M453.51 155.627L464.508 145.445M542.34 155.627L549.672 145.445M542.34 155.627H631.17M627.175 166.726L631.17 155.627M627.175 166.726H720M474.634 136.069H556.423M474.634 136.069L483.989 127.409M474.634 136.069H392.845M474.634 136.069L464.508 145.445M556.423 136.069L562.659 127.409M556.423 136.069L549.672 145.445M556.423 136.069H638.212M483.989 127.409H562.659M483.989 127.409H405.318M483.989 127.409L492.655 119.384M392.845 136.069L405.318 127.409M392.845 136.069L379.345 145.445M464.508 145.445H549.672M464.508 145.445H379.345M562.659 127.409L568.437 119.384M562.659 127.409H641.33M549.672 145.445H634.836M638.212 136.069L641.33 127.409M638.212 136.069L634.836 145.445M638.212 136.069H720M405.318 127.409L416.875 119.384M492.655 119.384H568.437M492.655 119.384H416.875M492.655 119.384L500.708 111.928M568.437 119.384L573.806 111.928M568.437 119.384H644.218M641.33 127.409L644.218 119.384M641.33 127.409H720M508.211 104.982H578.807M508.211 104.982L515.217 98.4956M508.211 104.982H437.615M508.211 104.982L500.708 111.928M578.807 104.982L583.477 98.4956M578.807 104.982L573.806 111.928M578.807 104.982H649.404M515.217 98.4956H583.477M515.217 98.4956H446.956M515.217 98.4956L521.774 92.4251M437.615 104.982L446.956 98.4956M437.615 104.982L427.612 111.928M500.708 111.928H573.806M500.708 111.928H427.612M583.477 98.4956L587.849 92.4251M583.477 98.4956H651.739M573.806 111.928H646.902M649.404 104.982L651.739 98.4956M649.404 104.982L646.902 111.928M649.404 104.982H720M446.956 98.4956L455.698 92.4251M521.774 92.4251H587.849M521.774 92.4251H455.698M521.774 92.4251L527.924 86.7306M587.849 92.4251L591.949 86.7306M587.849 92.4251H653.924M651.739 98.4956L653.924 92.4251M651.739 98.4956H720M533.705 81.379H595.802M533.705 81.379L539.146 76.3401M533.705 81.379H471.605M533.705 81.379L527.924 86.7306M595.802 81.379L599.431 76.3401M595.802 81.379L591.949 86.7306M595.802 81.379H657.902M539.146 76.3401H599.431M539.146 76.3401H478.862M539.146 76.3401L544.28 71.5873M471.605 81.379L478.862 76.3401M471.605 81.379L463.898 86.7306M527.924 86.7306H591.949M527.924 86.7306H463.898M599.431 76.3401L602.853 71.5873M599.431 76.3401H659.716M591.949 86.7306H655.975M657.902 81.379L659.716 76.3401M657.902 81.379L655.975 86.7306M657.902 81.379H720M478.862 76.3401L485.706 71.5873M544.28 71.5873H602.853M544.28 71.5873H485.706M544.28 71.5873L549.13 67.0971M602.853 71.5873L606.087 67.0971M602.853 71.5873H661.427M659.716 76.3401L661.427 71.5873M659.716 76.3401H720M553.719 62.8475H609.147M553.719 62.8475L558.068 58.8208M553.719 62.8475H498.292M553.719 62.8475L549.13 67.0971M609.147 62.8475L612.046 58.8208M609.147 62.8475L606.087 67.0971M609.147 62.8475H664.573M558.068 58.8208H612.046M558.068 58.8208H504.092M558.068 58.8208L562.196 54.9988M498.292 62.8475L504.092 58.8208M498.292 62.8475L492.172 67.0971M549.13 67.0971H606.087M549.13 67.0971H492.172M612.046 58.8208L614.798 54.9988M612.046 58.8208H666.023M606.087 67.0971H663.043M664.573 62.8475L666.023 58.8208M664.573 62.8475L663.043 67.0971M664.573 62.8475H720M504.092 58.8208L509.595 54.9988M562.196 54.9988H614.798M562.196 54.9988H509.595M562.196 54.9988L566.119 51.3673M614.798 54.9988L617.413 51.3673M614.798 54.9988H667.399M666.023 58.8208L667.399 54.9988M666.023 58.8208H720M569.851 47.9116H619.901M569.851 47.9116L573.406 44.6202M569.851 47.9116H519.802M569.851 47.9116L566.119 51.3673M619.901 47.9116L622.271 44.6202M619.901 47.9116L617.413 51.3673M619.901 47.9116H669.951M573.406 44.6202H622.271M573.406 44.6202H524.542M573.406 44.6202L574.696 43.4255L576.797 41.4804M519.802 47.9116L524.542 44.6202M519.802 47.9116L514.825 51.3673M566.119 51.3673H617.413M566.119 51.3673H514.825M622.271 44.6202L624.532 41.4804M622.271 44.6202H671.136M617.413 51.3673H668.706M669.951 47.9116L671.136 44.6202M669.951 47.9116L668.706 51.3673M669.951 47.9116H720M524.542 44.6202L529.063 41.4804M576.797 41.4804H624.532M576.797 41.4804H529.063M576.797 41.4804L580.034 38.483M624.532 41.4804L626.69 38.483M624.532 41.4804H672.265M671.136 44.6202L672.265 41.4804M671.136 44.6202H720M583.129 35.6177H628.753M583.129 35.6177L586.09 32.8766M583.129 35.6177H537.505M583.129 35.6177L580.822 37.7548L580.034 38.483M628.753 35.6177L629.503 34.5757L630.726 32.8766M628.753 35.6177L626.69 38.483M628.753 35.6177H674.377M586.09 32.8766L586.451 32.5425L588.925 30.2518M586.09 32.8766H630.726M586.09 32.8766H541.453M537.505 35.6177L541.453 32.8766M537.505 35.6177L537 35.9689L535.466 37.0343L533.379 38.483M580.034 38.483H626.69M580.034 38.483H533.379M630.726 32.8766L631.445 31.8791L631.681 31.5501L631.918 31.2232L632.617 30.2518M630.726 32.8766H675.364M626.69 38.483H673.345M674.377 35.6177L675.364 32.8766M674.377 35.6177L673.345 38.483M674.377 35.6177H720M588.925 30.2518H632.617M588.925 30.2518H545.234M588.925 30.2518L591.643 27.7357M541.453 32.8766L545.234 30.2518M632.617 30.2518L633.306 29.2959L633.532 28.9805L634.429 27.7357M632.617 30.2518H676.309M675.364 32.8766L675.484 32.5425L676.309 30.2518M675.364 32.8766H720M594.25 25.3216H636.166M594.25 25.3216L595.514 24.1511L595.827 23.8622L596.136 23.5745L596.447 23.2888L596.753 23.0039M594.25 25.3216H552.334M594.25 25.3216L591.643 27.7357M636.166 25.3216L637.425 23.5745L637.631 23.2888L637.835 23.0039M636.166 25.3216L634.429 27.7357M636.166 25.3216H678.083M596.753 23.0039H637.835M596.753 23.0039H555.671M596.753 23.0039L598.268 21.6013L598.566 21.3251L599.16 20.7763M552.334 25.3216L554.849 23.5745L555.671 23.0039M552.334 25.3216L551.047 26.2152L549.739 27.1227L548.857 27.7357M591.643 27.7357H634.429M591.643 27.7357H548.857M637.835 23.0039L638.845 21.6013L639.045 21.3251L639.242 21.0501L639.44 20.7763M637.835 23.0039H678.918M634.429 27.7357H677.214M678.083 25.3216L678.918 23.0039M678.083 25.3216L677.762 26.2152L677.435 27.1227L677.214 27.7357M678.083 25.3216H720M555.671 23.0039L558.879 20.7763M599.16 20.7763H639.44M599.16 20.7763H558.879M599.16 20.7763L601.473 18.634M639.44 20.7763L640.982 18.634M639.44 20.7763H679.72M678.918 23.0039L679.72 20.7763M678.918 23.0039H720M603.699 16.5727H642.466M603.699 16.5727L605.844 14.5875M603.699 16.5727H564.932M603.699 16.5727L603.15 17.0806L602.318 17.8523L601.473 18.634M642.466 16.5727L642.283 16.8262L641.17 18.3721L640.982 18.634M642.466 16.5727L643.896 14.5875M642.466 16.5727H681.233M605.844 14.5875H643.896M605.844 14.5875H567.792M605.844 14.5875L607.912 12.6737M564.932 16.5727L567.441 14.8311L567.792 14.5875M564.932 16.5727L564.568 16.8262L564.2 17.0806L563.833 17.3369L561.964 18.634M601.473 18.634H640.982M601.473 18.634H561.964M640.982 18.634L680.491 18.6344M643.896 14.5875L644.419 13.8614L644.591 13.6217L644.764 13.3828L645.274 12.6737M643.896 14.5875H681.948M681.233 16.5727L681.772 15.0767L681.86 14.8311L681.948 14.5875M681.233 16.5727L680.491 18.6344M681.233 16.5727H720M567.792 14.5875L570.549 12.6737M607.912 12.6737H645.274M607.912 12.6737H570.549M607.912 12.6737L608.416 12.2055L608.667 11.9738L608.917 11.7425L609.166 11.5123L609.413 11.283L609.66 11.0552L609.904 10.8279M645.274 12.6737L645.442 12.4392L645.611 12.2059L645.944 11.7425L646.11 11.5123L646.276 11.283L646.44 11.0552L646.603 10.8279M645.274 12.6737H682.637M681.948 14.5875L682.637 12.6737M681.948 14.5875H720M647.885 9.04703H611.829L613.227 7.75149L613.685 7.32692M613.685 7.32692H649.124M613.685 7.32692L615.259 5.86988L615.481 5.66513M613.685 7.32692H578.247M575.771 9.04663H611.829L611.114 9.7073L610.875 9.92951L610.634 10.1525L609.904 10.8279M575.771 9.04663L578.247 7.32692M575.771 9.04663L573.205 10.8279M609.904 10.8279H646.603M609.904 10.8279H573.205M647.885 9.04663L648.043 8.8284L648.354 8.3947L648.665 7.96497L649.124 7.32692M647.885 9.04663L647.25 9.92951L647.089 10.1525L646.766 10.6017L646.603 10.8279M647.885 9.04663H683.942M649.124 7.32692L649.276 7.11622L649.427 6.90592L649.577 6.6972L649.727 6.48888L650.173 5.86988L650.32 5.66513M649.124 7.32692H684.562M646.603 10.8279L683.302 10.8282M683.942 9.04663L684.562 7.32692M683.942 9.04663L683.302 10.8282M683.942 9.04663H720M615.481 5.66513H650.32M615.481 5.66513H580.641M578.247 7.32692L579.455 6.48888L580.347 5.86988L580.641 5.66513M650.32 5.66513H685.16M684.562 7.32692L684.637 7.11622L684.713 6.90592L684.789 6.6972L685.16 5.66513M684.562 7.32692H720M817.197 178.87H914.396M817.197 178.87L812.825 166.726M817.197 178.87H720M817.197 178.87L822.003 192.215M914.396 178.87L905.652 166.726M914.396 178.87L924.004 192.215M914.396 178.87H1011.6M812.825 166.726H905.652M812.825 166.726H720M812.825 166.726L808.83 155.627M720 178.87V166.726M720 178.87V192.215M822.003 192.215H924.004M822.003 192.215L827.307 206.948M822.003 192.215H720M905.652 166.726L897.66 155.627M905.652 166.726H998.477M924.004 192.215L934.613 206.948M924.004 192.215H1026M1011.6 178.87L998.477 166.726M1011.6 178.87L1026 192.215M1011.6 178.87H1108.79M720 166.726V155.627M808.83 155.627H897.66M808.83 155.627H720M808.83 155.627L805.164 145.445M897.66 155.627L890.328 145.445M897.66 155.627H986.49M998.477 166.726L986.49 155.627M998.477 166.726H1091.3M801.788 136.069H883.577M801.788 136.069L798.67 127.409M801.788 136.069H720M801.788 136.069L805.164 145.445M883.577 136.069L877.341 127.409M883.577 136.069L890.328 145.445M883.577 136.069H965.366M798.67 127.409H877.341M798.67 127.409H720M798.67 127.409L795.782 119.384M720 136.069V127.409M720 136.069V145.445M805.164 145.445H890.328M805.164 145.445H720M877.341 127.409L871.563 119.384M877.341 127.409H956.011M890.328 145.445H975.492M965.366 136.069L956.011 127.409M965.366 136.069L975.492 145.445M965.366 136.069H1047.15M720 127.409V119.384M795.782 119.384H871.563M795.782 119.384H720M795.782 119.384L793.098 111.928M871.563 119.384L866.194 111.928M871.563 119.384H947.345M956.011 127.409L947.345 119.384M956.011 127.409H1034.68M790.596 104.982H861.193M790.596 104.982L788.261 98.4956M790.596 104.982H720M790.596 104.982L793.098 111.928M861.193 104.982L856.523 98.4956M861.193 104.982L866.194 111.928M861.193 104.982H931.789M788.261 98.4956H856.523M788.261 98.4956H720M788.261 98.4956L786.076 92.4251M720 104.982V98.4956M720 104.982V111.928M793.098 111.928H866.194M793.098 111.928H720M856.523 98.4956L852.151 92.4251M856.523 98.4956H924.783M866.194 111.928H939.292M931.789 104.982L924.783 98.4956M931.789 104.982L939.292 111.928M931.789 104.982H1002.39M720 98.4956V92.4251M786.076 92.4251H852.151M786.076 92.4251H720M786.076 92.4251L784.025 86.7306M852.151 92.4251L848.051 86.7306M852.151 92.4251H918.226M924.783 98.4956L918.226 92.4251M924.783 98.4956H993.044M782.098 81.379H844.198M782.098 81.379L780.284 76.3401M782.098 81.379H720M782.098 81.379L784.025 86.7306M844.198 81.379L840.569 76.3401M844.198 81.379L848.051 86.7306M844.198 81.379H906.295M780.284 76.3401H840.569M780.284 76.3401H720M780.284 76.3401L778.573 71.5873M720 81.379V76.3401M720 81.379V86.7306M784.025 86.7306H848.051M784.025 86.7306H720M840.569 76.3401L837.147 71.5873M840.569 76.3401H900.854M848.051 86.7306H912.076M906.295 81.379L900.854 76.3401M906.295 81.379L912.076 86.7306M906.295 81.379H968.395M720 76.3401V71.5873M778.573 71.5873H837.147M778.573 71.5873H720M778.573 71.5873L776.957 67.0971M837.147 71.5873L833.913 67.0971M837.147 71.5873H895.72M900.854 76.3401L895.72 71.5873M900.854 76.3401H961.138M775.427 62.8475H830.853M775.427 62.8475L773.977 58.8208M775.427 62.8475H720M775.427 62.8475L776.957 67.0971M830.853 62.8475L827.954 58.8208M830.853 62.8475L833.913 67.0971M830.853 62.8475H886.281M773.977 58.8208H827.954M773.977 58.8208H720M773.977 58.8208L772.601 54.9988M720 62.8475V58.8208M720 62.8475V67.0971M776.957 67.0971H833.913M776.957 67.0971H720M827.954 58.8208L825.203 54.9988M827.954 58.8208H881.932M833.913 67.0971H890.87M886.281 62.8475L881.932 58.8208M886.281 62.8475L890.87 67.0971M886.281 62.8475H941.708M720 58.8208V54.9988M772.601 54.9988H825.203M772.601 54.9988H720M772.601 54.9988L771.453 51.8114L771.294 51.3673M825.203 54.9988L822.587 51.3673M825.203 54.9988H877.804M881.932 58.8208L877.804 54.9988M881.932 58.8208H935.908M770.049 47.9116H820.099M770.049 47.9116L768.864 44.6202M770.049 47.9116H720M770.049 47.9116L771.294 51.3673M820.099 47.9116L817.729 44.6202M820.099 47.9116L822.587 51.3673M820.099 47.9116H870.149M768.864 44.6202H817.729M768.864 44.6202H720M768.864 44.6202L767.735 41.4804M720 47.9116V44.6202M720 47.9116V51.3673M771.294 51.3673H822.587M771.294 51.3673H720M817.729 44.6202L815.468 41.4804M817.729 44.6202H866.594M822.587 51.3673H873.881M870.149 47.9116L866.594 44.6202M870.149 47.9116L873.881 51.3673M870.149 47.9116H920.198M720 44.6202V41.4804M767.735 41.4804H815.468M767.735 41.4804H720M767.735 41.4804L766.655 38.483M815.468 41.4804L813.31 38.483M815.468 41.4804H863.203M866.594 44.6202L865.73 43.8215L863.203 41.4804M866.594 44.6202H915.458M765.623 35.6177H811.247M765.623 35.6177L764.636 32.8766M765.623 35.6177H720M765.623 35.6177L766.655 38.483M811.247 35.6177L809.515 33.2131L809.274 32.8766M811.247 35.6177L813.31 38.483M811.247 35.6177H856.871M764.636 32.8766L764.516 32.5425L763.691 30.2518M764.636 32.8766H809.274M764.636 32.8766H720M720 35.6177V32.8766M720 35.6177V38.483M766.655 38.483H813.31M766.655 38.483H720M809.274 32.8766L808.555 31.8791L808.319 31.5501L808.082 31.2232L807.383 30.2518M809.274 32.8766H853.91M813.31 38.483H859.966M856.871 35.6177L853.91 32.8766M856.871 35.6177L859.178 37.7548L859.966 38.483M856.871 35.6177H902.495M763.691 30.2518H807.383M763.691 30.2518H720M763.691 30.2518L763.461 29.613L763.008 28.3547L762.786 27.7357M720 32.8766V30.2518M807.383 30.2518L806.694 29.2959L806.468 28.9805L805.572 27.7357M807.383 30.2518H851.075M853.91 32.8766L851.075 30.2518M853.91 32.8766H898.547M761.917 25.3216H803.834M761.917 25.3216L761.082 23.0039M761.917 25.3216H720M761.917 25.3216L762.238 26.2152L762.348 26.516L762.455 26.8187L762.675 27.4282L762.786 27.7357M803.834 25.3216L802.575 23.5745L802.164 23.0039M803.834 25.3216L805.572 27.7357M803.834 25.3216H845.75M761.082 23.0039H802.164M761.082 23.0039H720M761.082 23.0039L760.28 20.7763M720 25.3216V23.0039M720 25.3216V27.7357M762.786 27.7357H805.572M762.786 27.7357H720M802.164 23.0039L801.155 21.6013L800.955 21.3251L800.758 21.0501L800.56 20.7763M802.164 23.0039H843.247M805.572 27.7357H848.357M845.75 25.3216L844.173 23.8622L843.864 23.5741L843.553 23.2884L843.247 23.0039M845.75 25.3216L848.026 27.4282L848.357 27.7357M845.75 25.3216H887.666M720 23.0039V20.7763M760.28 20.7763H800.56M760.28 20.7763H720M760.28 20.7763L759.509 18.6344M800.56 20.7763L799.018 18.634M800.56 20.7763H840.84M843.247 23.0039L842.032 21.879L841.732 21.6013L841.434 21.3251L840.84 20.7763M843.247 23.0039H884.329M758.767 16.5727H797.534M758.767 16.5727L758.052 14.5875M758.767 16.5727H720M758.767 16.5727L759.509 18.6344M797.534 16.5727L797.717 16.8262L798.83 18.3721L799.018 18.634M797.534 16.5727L796.104 14.5875M797.534 16.5727H836.301M758.052 14.5875H796.104M758.052 14.5875H720M758.052 14.5875L757.363 12.6737M720 16.5727V14.5875M720 16.5727V18.634M759.509 18.6344L799.018 18.634M759.509 18.6344L720 18.634M799.018 18.634H838.527M796.104 14.5875L795.581 13.8614L795.409 13.6217L795.236 13.3828L794.726 12.6737M796.104 14.5875H834.156M836.301 16.5727L834.156 14.5875M836.301 16.5727L836.85 17.0806L837.682 17.8523L838.527 18.634M836.301 16.5727H875.068M720 14.5875V12.6741M757.363 12.6737H794.726M757.363 12.6737L720 12.6741M757.363 12.6737L756.698 10.8282M794.726 12.6737L794.558 12.4392L794.056 11.7425L793.89 11.5123L793.724 11.283L793.56 11.0552L793.397 10.8279M794.726 12.6737H832.089M834.156 14.5875L832.089 12.6737M834.156 14.5875H872.208M792.115 9.04703H756.058L755.438 7.32692M755.438 7.32692L755.363 7.11622L755.287 6.90592L755.211 6.6972L754.84 5.66513M755.438 7.32692H790.875M755.438 7.32692H720M720 9.04663H756.058L756.698 10.8282M720 9.04663V7.32692M720 9.04663V10.8279M756.698 10.8282L793.397 10.8279M756.698 10.8282L720 10.8279M792.115 9.04663L791.957 8.8284L791.645 8.3947L791.49 8.17924L791.182 7.75149L791.029 7.53841L790.875 7.32692M792.115 9.04663L792.75 9.92951L792.911 10.1525L793.234 10.6017L793.397 10.8279M792.115 9.04663H828.171M790.875 7.32692H826.315M790.875 7.32692L790.573 6.90631L790.423 6.6972L790.273 6.48888L789.827 5.86988L789.68 5.66513M793.397 10.8279L830.096 10.8282M828.171 9.04663L826.773 7.75149L826.315 7.32692M828.171 9.04663L829.366 10.1525L830.096 10.8282M828.171 9.04663H864.229M754.84 5.66513H789.68M754.84 5.66513H720M720 7.32692V5.66513M826.315 7.32692H861.753M826.315 7.32692L824.962 6.07542L824.519 5.66513M789.68 5.66513H824.519M1205.99 178.87H1303.19M1205.99 178.87L1184.13 166.726M1205.99 178.87H1108.79M1205.99 178.87L1230.01 192.215M1303.19 178.87L1276.95 166.726M1303.19 178.87L1332.02 192.215M1303.19 178.87H1400.39M1184.13 166.726H1276.95M1184.13 166.726H1091.3M1184.13 166.726L1164.15 155.627M1108.79 178.87L1091.3 166.726M1108.79 178.87L1128.01 192.215M1230.01 192.215H1332.02M1230.01 192.215L1256.53 206.948M1230.01 192.215H1128.01M1276.95 166.726L1252.98 155.627M1276.95 166.726H1369.78M1332.02 192.215L1363.84 206.948M1332.02 192.215H1434.02M1400.39 178.87L1369.78 166.726M1400.39 178.87L1434.02 192.215M1400.39 178.87H1451.61M1091.3 166.726L1075.32 155.627M1164.15 155.627H1252.98M1164.15 155.627H1075.32M1164.15 155.627L1145.82 145.445M1252.98 155.627L1230.98 145.445M1252.98 155.627H1341.81M1369.78 166.726L1341.81 155.627M1369.78 166.726H1451.61M1128.95 136.069H1210.73M1128.95 136.069L1113.35 127.409M1128.95 136.069H1047.15M1128.95 136.069L1145.82 145.445M1210.73 136.069L1192.02 127.409M1210.73 136.069L1230.98 145.445M1210.73 136.069H1292.52M1113.35 127.409H1192.02M1113.35 127.409H1034.68M1113.35 127.409L1098.9 119.384M1047.15 136.069L1034.68 127.409M1047.15 136.069L1060.66 145.445M1145.82 145.445H1230.98M1145.82 145.445H1060.66M1192.02 127.409L1174.69 119.384M1192.02 127.409H1270.7M1230.98 145.445H1316.14M1292.52 136.069L1270.7 127.409M1292.52 136.069L1316.14 145.445M1292.52 136.069H1374.31M1034.68 127.409L1023.12 119.384M1098.9 119.384H1174.69M1098.9 119.384H1023.12M1098.9 119.384L1085.49 111.928M1174.69 119.384L1158.59 111.928M1174.69 119.384H1250.47M1270.7 127.409L1250.47 119.384M1270.7 127.409H1349.36M1072.99 104.982H1143.58M1072.99 104.982L1061.31 98.4956M1072.99 104.982H1002.39M1072.99 104.982L1085.49 111.928M1143.58 104.982L1129.57 98.4956M1143.58 104.982L1158.59 111.928M1143.58 104.982H1214.18M1061.31 98.4956H1129.57M1061.31 98.4956H993.044M1061.31 98.4956L1050.37 92.4251M1002.39 104.982L993.044 98.4956M1002.39 104.982L1012.39 111.928M1085.49 111.928H1158.59M1085.49 111.928H1012.39M1129.57 98.4956L1116.45 92.4251M1129.57 98.4956H1197.83M1158.59 111.928H1231.68M1214.18 104.982L1197.83 98.4956M1214.18 104.982L1231.68 111.928M1214.18 104.982H1284.77M993.044 98.4956L984.302 92.4251M1050.37 92.4251H1116.45M1050.37 92.4251H984.302M1050.37 92.4251L1040.13 86.7306M1116.45 92.4251L1104.15 86.7306M1116.45 92.4251H1182.53M1197.83 98.4956L1182.53 92.4251M1197.83 98.4956H1266.09M1030.49 81.379H1092.6M1030.49 81.379L1021.43 76.3401M1030.49 81.379H968.395M1030.49 81.379L1040.13 86.7306M1092.6 81.379L1081.71 76.3401M1092.6 81.379L1104.15 86.7306M1092.6 81.379H1154.69M1021.43 76.3401H1081.71M1021.43 76.3401H961.138M1021.43 76.3401L1012.87 71.5873M968.395 81.379L961.138 76.3401M968.395 81.379L976.102 86.7306M1040.13 86.7306H1104.15M1040.13 86.7306H976.102M1081.71 76.3401L1071.44 71.5873M1081.71 76.3401H1141.99M1104.15 86.7306H1168.18M1154.69 81.379L1141.99 76.3401M1154.69 81.379L1168.18 86.7306M1154.69 81.379H1216.79M961.138 76.3401L954.294 71.5873M1012.87 71.5873H1071.44M1012.87 71.5873H954.294M1012.87 71.5873L1004.79 67.0971M1071.44 71.5873L1061.74 67.0971M1071.44 71.5873H1130.01M1141.99 76.3401L1130.01 71.5873M1141.99 76.3401H1202.28M997.135 62.8475H1052.56M997.135 62.8475L989.886 58.8208M997.135 62.8475H941.708M997.135 62.8475L1004.79 67.0971M1052.56 62.8475L1043.87 58.8208M1052.56 62.8475L1061.74 67.0971M1052.56 62.8475H1107.99M989.886 58.8208H1043.87M989.886 58.8208H935.908M989.886 58.8208L983.006 54.9988M941.708 62.8475L940.229 61.8209L935.908 58.8208M941.708 62.8475L947.828 67.0971M1004.79 67.0971H1061.74M1004.79 67.0971H947.828M1043.87 58.8208L1035.6 54.9988M1043.87 58.8208H1097.84M1061.74 67.0971H1118.69M1107.99 62.8475L1097.84 58.8208M1107.99 62.8475L1118.69 67.0971M1107.99 62.8475H1163.42M935.908 58.8208L930.405 54.9988M983.006 54.9988H1035.6M983.006 54.9988H930.405M983.006 54.9988L976.469 51.3673M1035.6 54.9988L1027.76 51.3673M1035.6 54.9988H1088.21M1097.84 58.8208L1088.21 54.9988M1097.84 58.8208H1151.82M970.249 47.9116H1020.3M970.249 47.9116L964.322 44.6202M970.249 47.9116H920.198M970.249 47.9116L976.469 51.3673M1020.3 47.9116L1013.19 44.6202M1020.3 47.9116L1027.76 51.3673M1020.3 47.9116H1070.35M964.322 44.6202H1013.19M964.322 44.6202H915.458M964.322 44.6202L958.671 41.4804M920.198 47.9116L915.458 44.6202M920.198 47.9116L925.175 51.3673M976.469 51.3673H1027.76M976.469 51.3673H925.175M1013.19 44.6202L1006.4 41.4804M1013.19 44.6202H1062.05M1027.76 51.3673H1079.05M1070.35 47.9116L1062.05 44.6202M1070.35 47.9116L1079.05 51.3673M1070.35 47.9116H1120.4M915.458 44.6202L910.937 41.4804M958.671 41.4804H1006.4M958.671 41.4804H910.937M958.671 41.4804L953.275 38.483M1006.4 41.4804L999.93 38.483M1006.4 41.4804H1054.14M1062.05 44.6202L1054.14 41.4804M1062.05 44.6202H1110.91M948.118 35.6177L948.75 35.9689L949.386 36.322L953.275 38.483M948.118 35.6177H993.741M948.118 35.6177L943.184 32.8766M948.118 35.6177H902.495M953.275 38.483H999.93M953.275 38.483H906.621M993.741 35.6177L987.821 32.8766M993.741 35.6177L999.93 38.483M993.741 35.6177H1039.37M943.184 32.8766H987.821M943.184 32.8766H898.547M943.184 32.8766L938.458 30.2518M902.495 35.6177L898.547 32.8766M902.495 35.6177L904.534 37.0343L906.621 38.483M987.821 32.8766L982.149 30.2518M987.821 32.8766H1032.46M999.93 38.483H1046.59M1039.37 35.6177L1032.46 32.8766M1039.37 35.6177L1046.59 38.483M1039.37 35.6177H1084.99M898.547 32.8766L894.766 30.2518M938.458 30.2518H982.149M938.458 30.2518H894.766M938.458 30.2518L937.308 29.613L933.929 27.7357M982.149 30.2518L980.084 29.2959L979.404 28.9805L976.714 27.7357M982.149 30.2518H1025.84M1032.46 32.8766L1025.84 30.2518M1032.46 32.8766H1077.09M929.583 25.3216H971.501M929.583 25.3216L925.411 23.0039M929.583 25.3216H887.666M929.583 25.3216L933.929 27.7357M971.501 25.3216L968.347 23.8622L966.493 23.0039M971.501 25.3216L976.714 27.7357M971.501 25.3216H1013.41M925.411 23.0039H966.493M925.411 23.0039H884.329M925.411 23.0039L921.894 21.0501L921.401 20.7763M887.666 25.3216L885.151 23.5745L884.329 23.0039M887.666 25.3216L888.953 26.2152L891.143 27.7357M933.929 27.7357H976.714M933.929 27.7357H891.143M966.493 23.0039L961.681 20.7763M966.493 23.0039H1007.58M976.714 27.7357H1019.5M1013.41 25.3216L1007.58 23.0039M1013.41 25.3216L1019.5 27.7357M1013.41 25.3216H1055.33M884.329 23.0039L881.121 20.7763M921.401 20.7763H961.681M921.401 20.7763H881.121M921.401 20.7763L917.545 18.6344M961.681 20.7763L957.053 18.634M961.681 20.7763H1001.97M1007.58 23.0039L1004.04 21.6013L1003.34 21.3251L1001.97 20.7763M1007.58 23.0039H1048.66M913.834 16.5727H952.601M913.834 16.5727L912.929 16.0691L910.26 14.5875M913.834 16.5727H875.068M913.834 16.5727L914.749 17.0806L916.605 18.1114L917.545 18.6344M952.601 16.5727L948.312 14.5875M952.601 16.5727L954.251 17.3369L955.365 17.8523L957.053 18.634M952.601 16.5727H991.368M910.26 14.5875H948.312M910.26 14.5875H872.208M910.26 14.5875L907.664 13.1451L906.815 12.6737M875.068 16.5727L872.559 14.8311L872.208 14.5875M875.068 16.5727L875.432 16.8262L875.8 17.0806L876.167 17.3369L878.036 18.634M917.545 18.6344L957.053 18.634M917.545 18.6344L878.036 18.634M948.312 14.5875L946.743 13.8614L945.71 13.3828L944.178 12.6737M948.312 14.5875H986.364M957.053 18.634L996.563 18.6344M991.368 16.5727L986.364 14.5875M991.368 16.5727L994.591 17.8523L995.246 18.1114L996.563 18.6344M991.368 16.5727H1030.13M872.208 14.5875L869.451 12.6737M906.815 12.6737H944.178M906.815 12.6737H869.451M906.815 12.6737L903.493 10.8282M944.178 12.6737L942.166 11.7425L941.669 11.5123L940.191 10.8279M944.178 12.6737H981.542M986.364 14.5875L981.542 12.6737M986.364 14.5875H1024.42M936.345 9.04703H900.287L898.339 7.96497L897.19 7.32692M897.19 7.32692H932.628M897.19 7.32692L895.682 6.48888L894.938 6.07542L894.567 5.86988L894.199 5.66513M897.19 7.32692H861.753M864.229 9.04663H900.287L903.493 10.8282M864.229 9.04663L862.363 7.75149L861.753 7.32692M864.229 9.04663L866.795 10.8279M903.493 10.8282L940.191 10.8279M903.493 10.8282L866.795 10.8279M936.345 9.04663L933.545 7.75149L933.086 7.53841L932.628 7.32692M936.345 9.04663L938.251 9.92951L940.191 10.8279M936.345 9.04663H972.401M932.628 7.32692H968.067M932.628 7.32692L929.039 5.66513M940.191 10.8279H976.89M972.401 9.04663L969.136 7.75149L968.067 7.32692M972.401 9.04663L976.321 10.6021L976.89 10.8279M972.401 9.04663H1008.46M894.199 5.66513H929.039M894.199 5.66513H859.359M861.753 7.32692L860.545 6.48888L859.653 5.86988L859.359 5.66513M968.067 7.32692H1003.5M968.067 7.32692L963.879 5.66513M929.039 5.66513H963.879M1428.03 127.409H1349.36M1428.03 127.409L1402.04 119.384M1428.03 127.409H1451.61M1428.03 127.409L1451.61 134.683M1349.36 127.409L1326.25 119.384M1349.36 127.409L1374.31 136.069M1402.04 119.384L1377.88 111.928M1402.04 119.384H1326.25M1402.04 119.384H1451.61M1451.61 127.409V119.384M1451.61 127.409V134.683M1451.61 134.683V136.069M1355.36 104.982H1425.96M1355.36 104.982L1334.35 98.4956M1355.36 104.982H1284.77M1355.36 104.982L1377.88 111.928M1425.96 104.982L1402.61 98.4956M1425.96 104.982L1450.98 111.928M1425.96 104.982H1451.61M1334.35 98.4956H1402.61M1334.35 98.4956H1266.09M1334.35 98.4956L1314.68 92.4251M1284.77 104.982L1266.09 98.4956M1284.77 104.982L1304.78 111.928M1377.88 111.928H1450.98M1377.88 111.928H1304.78M1402.61 98.4956L1380.76 92.4251M1402.61 98.4956H1451.61M1450.98 111.928H1451.61M1450.98 111.928L1451.61 112.104M1451.61 104.982V98.4956M1451.61 104.982V111.928M1266.09 98.4956L1248.61 92.4251M1314.68 92.4251H1380.76M1314.68 92.4251H1248.61M1314.68 92.4251L1296.23 86.7306M1380.76 92.4251L1360.25 86.7306M1380.76 92.4251H1446.83M1451.61 98.4956V93.6309M1278.89 81.379H1340.98M1278.89 81.379L1262.56 76.3401M1278.89 81.379H1216.79M1278.89 81.379L1296.23 86.7306M1340.98 81.379L1322.85 76.3401M1340.98 81.379L1360.25 86.7306M1340.98 81.379H1403.09M1262.56 76.3401H1322.85M1262.56 76.3401H1202.28M1262.56 76.3401L1247.16 71.5873M1216.79 81.379L1202.28 76.3401M1216.79 81.379L1232.2 86.7306M1296.23 86.7306H1360.25M1296.23 86.7306H1232.2M1322.85 76.3401L1305.73 71.5873M1322.85 76.3401H1383.13M1360.25 86.7306H1424.28M1403.09 81.379L1383.13 76.3401M1403.09 81.379L1424.28 86.7306M1403.09 81.379H1451.61M1202.28 76.3401L1188.59 71.5873M1247.16 71.5873H1305.73M1247.16 71.5873H1188.59M1247.16 71.5873L1232.61 67.0971M1305.73 71.5873L1289.56 67.0971M1305.73 71.5873H1364.31M1383.13 76.3401L1364.31 71.5873M1383.13 76.3401H1443.41M1218.84 62.8475H1274.27M1218.84 62.8475L1205.79 58.8208M1218.84 62.8475H1163.42M1218.84 62.8475L1232.61 67.0971M1274.27 62.8475L1259.77 58.8208M1274.27 62.8475L1289.56 67.0971M1274.27 62.8475H1329.7M1205.79 58.8208H1259.77M1205.79 58.8208H1151.82M1205.79 58.8208L1193.41 54.9988M1163.42 62.8475L1151.82 58.8208M1163.42 62.8475L1175.66 67.0971M1232.61 67.0971H1289.56M1232.61 67.0971H1175.66M1259.77 58.8208L1246.02 54.9988M1259.77 58.8208H1313.75M1289.56 67.0971H1346.53M1329.7 62.8475L1313.75 58.8208M1329.7 62.8475L1346.53 67.0971M1329.7 62.8475H1385.13M1151.82 58.8208L1140.81 54.9988M1193.41 54.9988H1246.02M1193.41 54.9988H1140.81M1193.41 54.9988L1181.64 51.3673M1246.02 54.9988L1232.94 51.3673M1246.02 54.9988H1298.61M1313.75 58.8208L1298.61 54.9988M1313.75 58.8208H1367.72M1170.45 47.9116H1220.5M1170.45 47.9116L1159.78 44.6202M1170.45 47.9116H1120.4M1170.45 47.9116L1181.64 51.3673M1220.5 47.9116L1208.64 44.6202M1220.5 47.9116L1232.94 51.3673M1220.5 47.9116H1270.55M1159.78 44.6202H1208.64M1159.78 44.6202H1110.91M1159.78 44.6202L1149.61 41.4804M1120.4 47.9116L1110.91 44.6202M1120.4 47.9116L1130.35 51.3673M1181.64 51.3673H1232.94M1181.64 51.3673H1130.35M1208.64 44.6202L1197.35 41.4804M1208.64 44.6202H1257.51M1232.94 51.3673H1284.23M1270.55 47.9116L1257.51 44.6202M1270.55 47.9116L1284.23 51.3673M1270.55 47.9116H1320.6M1110.91 44.6202L1101.88 41.4804M1149.61 41.4804H1197.35M1149.61 41.4804H1101.88M1149.61 41.4804L1139.89 38.483M1197.35 41.4804L1186.55 38.483M1197.35 41.4804H1245.07M1257.51 44.6202L1245.07 41.4804M1257.51 44.6202H1306.37M1130.61 35.6177H1176.24M1130.61 35.6177L1121.73 32.8766M1130.61 35.6177H1084.99M1130.61 35.6177L1139.89 38.483M1176.24 35.6177L1166.37 32.8766M1176.24 35.6177L1186.55 38.483M1176.24 35.6177H1221.86M1121.73 32.8766H1166.37M1121.73 32.8766H1077.09M1121.73 32.8766L1113.22 30.2518M1084.99 35.6177L1077.09 32.8766M1084.99 35.6177L1093.24 38.483M1139.89 38.483H1186.55M1139.89 38.483H1093.24M1166.37 32.8766L1156.92 30.2518M1166.37 32.8766H1211M1186.55 38.483H1233.2M1221.86 35.6177L1211 32.8766M1221.86 35.6177L1233.2 38.483M1221.86 35.6177H1267.48M1077.09 32.8766L1069.53 30.2518M1113.22 30.2518H1156.92M1113.22 30.2518H1069.53M1113.22 30.2518L1105.07 27.7357M1156.92 30.2518L1147.85 27.7357M1156.92 30.2518H1200.61M1211 32.8766L1200.61 30.2518M1211 32.8766H1255.64M1097.25 25.3216H1139.17M1097.25 25.3216L1089.74 23.0039M1097.25 25.3216H1055.33M1097.25 25.3216L1105.07 27.7357M1139.17 25.3216L1130.82 23.0039M1139.17 25.3216L1147.85 27.7357M1139.17 25.3216H1181.08M1089.74 23.0039H1130.82M1089.74 23.0039H1048.66M1089.74 23.0039L1082.53 20.7763M1055.33 25.3216L1048.66 23.0039M1055.33 25.3216L1062.28 27.7357M1105.07 27.7357H1147.85M1105.07 27.7357H1062.28M1130.82 23.0039L1122.8 20.7763M1130.82 23.0039H1171.9M1147.85 27.7357H1190.64M1181.08 25.3216L1171.9 23.0039M1181.08 25.3216L1190.64 27.7357M1181.08 25.3216H1223M1048.66 23.0039L1042.24 20.7763M1082.53 20.7763H1122.8M1082.53 20.7763H1042.24M1082.53 20.7763L1075.58 18.6344M1122.8 20.7763L1116.03 18.8975L1115.09 18.6344M1122.8 20.7763H1163.09M1171.9 23.0039L1163.09 20.7763M1171.9 23.0039H1212.99M1068.9 16.5727H1107.67M1068.9 16.5727L1062.46 14.5875M1068.9 16.5727H1030.13M1068.9 16.5727L1070.55 17.0806L1071.38 17.3369L1075.58 18.6344M1107.67 16.5727L1100.52 14.5875M1107.67 16.5727L1115.09 18.6344M1107.67 16.5727H1146.44M1062.46 14.5875H1100.52M1062.46 14.5875H1024.42M1062.46 14.5875L1056.27 12.6737M1030.13 16.5727L1024.42 14.5875M1030.13 16.5727L1036.08 18.634M1075.58 18.6344H1115.09M1075.58 18.6344L1036.08 18.634M1100.52 14.5875L1093.63 12.6737M1100.52 14.5875H1138.58M1115.09 18.6344H1154.6M1146.44 16.5727L1138.58 14.5875M1146.44 16.5727L1154.6 18.6344M1146.44 16.5727H1185.21M1024.42 14.5875L1018.9 12.6737M1056.27 12.6737H1093.63M1056.27 12.6737H1018.9M1056.27 12.6737L1050.28 10.8282M1093.63 12.6737L1086.98 10.8282M1093.63 12.6737H1130.99M1138.58 14.5875L1130.99 12.6737M1138.58 14.5875H1176.62M1080.58 9.04703H1044.52L1038.95 7.32692M1038.95 7.32692H1074.38M1038.95 7.32692L1034.22 5.86988L1033.56 5.66513M1038.95 7.32692H1003.5M1008.46 9.04663H1044.52L1050.28 10.8282M1008.46 9.04663L1003.5 7.32692M1008.46 9.04663L1013.58 10.8279M1050.28 10.8282H1086.98M1050.28 10.8282L1013.58 10.8279M1080.58 9.04663L1075.91 7.75149L1075.15 7.53841L1074.38 7.32692M1080.58 9.04663L1086.98 10.8282M1080.58 9.04663H1116.63M1074.38 7.32692H1109.82M1074.38 7.32692L1068.4 5.66513M1086.98 10.8282L1123.68 10.8279M1116.63 9.04663L1109.82 7.32692M1116.63 9.04663L1123.68 10.8279M1116.63 9.04663H1152.68M1033.56 5.66513H1068.4M1033.56 5.66513H998.718M1003.5 7.32692L999.899 6.07542L998.718 5.66513M1109.82 7.32692H1145.25M1109.82 7.32692L1103.24 5.66513M1068.4 5.66513H1103.24M1440.55 62.8475L1421.71 58.8208M1440.55 62.8475H1385.13M1440.55 62.8475L1451.61 65.2096M1440.55 62.8475H1451.61M1421.71 58.8208H1367.72M1421.71 58.8208L1403.81 54.9988M1421.71 58.8208H1451.61M1385.13 62.8475L1367.72 58.8208M1385.13 62.8475L1403.48 67.0971M1451.61 65.2096V62.8475M1451.61 65.2096V67.0971M1451.61 62.8475V58.8208M1367.72 58.8208L1351.22 54.9988M1403.81 54.9988L1386.82 51.3673M1403.81 54.9988H1351.22M1403.81 54.9988H1451.61M1451.61 58.8208V54.9988M1370.65 47.9116H1420.69M1370.65 47.9116L1355.24 44.6202M1370.65 47.9116H1320.6M1370.65 47.9116L1386.82 51.3673M1420.69 47.9116L1404.1 44.6202M1420.69 47.9116L1438.11 51.3673M1420.69 47.9116H1451.61M1355.24 44.6202H1404.1M1355.24 44.6202H1306.37M1355.24 44.6202L1340.54 41.4804M1320.6 47.9116L1306.37 44.6202M1320.6 47.9116L1335.52 51.3673M1386.82 51.3673H1438.11M1386.82 51.3673H1335.52M1404.1 44.6202L1388.28 41.4804M1404.1 44.6202H1451.61M1438.11 51.3673L1451.61 54.0441M1438.11 51.3673H1451.61M1451.61 47.9116H1451.98M1451.61 47.9116V44.6202M1451.61 47.9116V51.3673M1306.37 44.6202L1292.81 41.4804M1340.54 41.4804H1388.28M1340.54 41.4804H1292.81M1340.54 41.4804L1326.52 38.483M1388.28 41.4804L1373.17 38.483M1388.28 41.4804H1436.01M1451.61 44.6202V44.3679M1313.11 35.6177H1358.73M1313.11 35.6177L1300.28 32.8766M1313.11 35.6177H1267.48M1313.11 35.6177L1326.52 38.483M1358.73 35.6177L1344.91 32.8766M1358.73 35.6177L1373.17 38.483M1358.73 35.6177H1404.35M1300.28 32.8766H1344.91M1300.28 32.8766H1255.64M1300.28 32.8766L1287.99 30.2518M1267.48 35.6177L1255.64 32.8766M1267.48 35.6177L1279.86 38.483M1326.52 38.483H1373.17M1326.52 38.483H1279.86M1344.91 32.8766L1331.69 30.2518M1344.91 32.8766H1389.55M1373.17 38.483H1419.83M1404.35 35.6177L1389.55 32.8766M1404.35 35.6177L1419.83 38.483M1404.35 35.6177H1449.97M1255.64 32.8766L1244.3 30.2518M1287.99 30.2518H1331.69M1287.99 30.2518H1244.3M1287.99 30.2518L1276.21 27.7357M1331.69 30.2518L1319 27.7357M1331.69 30.2518H1375.38M1389.55 32.8766L1375.38 30.2518M1389.55 32.8766H1434.19M1264.91 25.3216H1306.84M1264.91 25.3216L1254.07 23.0039M1264.91 25.3216H1223M1264.91 25.3216L1276.21 27.7357M1306.84 25.3216L1295.15 23.0039M1306.84 25.3216L1319 27.7357M1306.84 25.3216H1348.75M1254.07 23.0039H1295.15M1254.07 23.0039H1212.99M1254.07 23.0039L1243.65 20.7763M1223 25.3216L1212.99 23.0039M1223 25.3216L1233.42 27.7357M1276.21 27.7357H1319M1276.21 27.7357H1233.42M1295.15 23.0039L1283.92 20.7763M1295.15 23.0039H1336.24M1319 27.7357H1361.79M1348.75 25.3216L1336.24 23.0039M1348.75 25.3216L1361.79 27.7357M1348.75 25.3216H1390.67M1212.99 23.0039L1203.36 20.7763M1243.65 20.7763H1283.92M1243.65 20.7763H1203.36M1243.65 20.7763L1233.61 18.6344M1283.92 20.7763L1273.13 18.6344M1283.92 20.7763H1324.21M1336.24 23.0039L1324.21 20.7763M1336.24 23.0039H1377.31M1223.97 16.5727H1262.73M1223.97 16.5727L1214.68 14.5875M1223.97 16.5727H1185.21M1223.97 16.5727L1233.61 18.6344M1262.73 16.5727L1252.72 14.5875M1262.73 16.5727L1273.13 18.6344M1262.73 16.5727H1301.5M1214.68 14.5875H1252.72M1214.68 14.5875H1176.62M1214.68 14.5875L1205.72 12.6737M1185.21 16.5727L1177.68 14.8311L1176.62 14.5875M1185.21 16.5727L1194.11 18.634M1233.61 18.6344H1273.13M1233.61 18.6344L1194.11 18.634M1252.72 14.5875L1243.08 12.6737M1252.72 14.5875H1290.78M1273.13 18.6344H1312.64M1301.5 16.5727L1290.78 14.5875M1301.5 16.5727L1312.64 18.6344M1301.5 16.5727H1340.27M1176.62 14.5875L1168.36 12.6737M1205.72 12.6737H1243.08M1205.72 12.6737H1168.36M1205.72 12.6737L1197.09 10.8282M1243.08 12.6737L1233.78 10.8282M1243.08 12.6737H1280.45M1290.78 14.5875L1280.45 12.6737M1290.78 14.5875H1328.84M1224.8 9.04703H1188.74L1180.7 7.32692M1180.7 7.32692H1216.13M1180.7 7.32692L1172.92 5.66513M1180.7 7.32692H1145.25M1152.68 9.04663H1188.74L1197.09 10.8282M1152.68 9.04663L1145.25 7.32692M1152.68 9.04663L1160.38 10.8279M1197.09 10.8282H1233.78M1197.09 10.8282L1160.38 10.8279M1224.8 9.04663L1216.13 7.32692M1224.8 9.04663L1233.78 10.8282M1224.8 9.04663H1260.86M1216.13 7.32692H1251.57M1216.13 7.32692L1207.76 5.66513M1233.78 10.8282L1270.48 10.8279M1260.86 9.04663L1251.57 7.32692M1260.86 9.04663L1270.48 10.8279M1260.86 9.04663H1296.91M1172.92 5.66513H1207.76M1172.92 5.66513H1138.07M1145.25 7.32692L1138.07 5.66513M1251.57 7.32692H1287.01M1251.57 7.32692L1242.59 5.66513M1207.76 5.66513H1242.59M1432.58 25.3216L1418.39 23.0039M1432.58 25.3216H1390.67M1432.58 25.3216L1447.36 27.7357M1432.58 25.3216H1451.61M1418.39 23.0039H1377.31M1418.39 23.0039L1404.77 20.7763M1418.39 23.0039H1451.61M1390.67 25.3216L1377.31 23.0039M1390.67 25.3216L1404.58 27.7357M1447.36 27.7357H1404.58M1447.36 27.7357H1451.61M1447.36 27.7357L1451.61 28.4297M1451.61 25.3216V23.0039M1451.61 25.3216V27.7357M1377.31 23.0039L1364.48 20.7763M1404.77 20.7763H1445.04M1404.77 20.7763H1364.48M1404.77 20.7763L1391.65 18.6344M1451.61 23.0039V21.789M1379.04 16.5727H1417.8M1379.04 16.5727L1366.88 14.5875M1379.04 16.5727H1340.27M1379.04 16.5727L1391.65 18.6344M1417.8 16.5727L1404.94 14.5875M1417.8 16.5727L1431.16 18.6344M1417.8 16.5727H1451.61M1366.88 14.5875H1404.94M1366.88 14.5875H1328.84M1366.88 14.5875L1355.17 12.6737M1340.27 16.5727L1328.84 14.5875M1340.27 16.5727L1352.14 18.6344M1391.65 18.6344H1431.16M1391.65 18.6344H1352.14M1404.94 14.5875L1392.54 12.6737M1404.94 14.5875H1442.98M1431.16 18.6344L1445.04 20.7763M1431.16 18.6344H1451.61M1451.61 16.5727H1451.73M1451.61 16.5727V15.8469M1451.61 16.5727V18.6344M1328.84 14.5875L1317.81 12.6737M1355.17 12.6737H1392.54M1355.17 12.6737H1317.81M1355.17 12.6737L1343.88 10.8282M1392.54 12.6737L1380.58 10.8282M1392.54 12.6737H1429.9M1442.98 14.5875L1429.9 12.6737M1442.98 14.5875L1451.61 15.8469M1442.98 14.5875H1451.61M1369.03 9.04703H1332.97L1322.45 7.32692M1322.45 7.32692H1357.88M1322.45 7.32692L1312.28 5.66513M1322.45 7.32692H1287.01M1296.91 9.04663H1332.97L1343.88 10.8282M1296.91 9.04663L1287.01 7.32692M1296.91 9.04663L1307.18 10.8279M1343.88 10.8282H1380.58M1343.88 10.8282L1307.18 10.8279M1369.03 9.04663L1357.88 7.32692M1369.03 9.04663L1380.58 10.8282M1369.03 9.04663H1405.09M1357.88 7.32692H1393.32M1357.88 7.32692L1347.12 5.66513M1380.58 10.8282L1417.28 10.8279M1405.09 9.04663L1393.32 7.32692M1405.09 9.04663L1417.28 10.8279M1405.09 9.04663H1441.15M1312.28 5.66513H1347.12M1312.28 5.66513H1277.43M1287.01 7.32692L1277.43 5.66513M1393.32 7.32692H1428.76M1393.32 7.32692L1381.95 5.66513M1347.12 5.66513H1381.95M1417.28 10.8279L1429.9 12.6737M1417.28 10.8279H1451.61M1441.15 9.04663L1428.76 7.32692M1441.15 9.04663L1451.61 10.4993M1428.76 7.32692L1416.8 5.66513M1428.76 7.32692H1451.61M1381.95 5.66513H1416.8M1381.95 5.66513L1370.97 4.05811M1429.9 12.6737H1451.61M1451.61 10.8279V10.4993M1451.61 10.8279V12.6737M1451.61 10.4993V9.04663V7.32692M1441.15 9.04703H1451.61M1416.8 5.66513L1405.23 4.05811M1416.8 5.66513H1451.61M1451.61 7.32692V5.66513M1451.61 5.66513H1451.64L1451.61 5.66156M1451.61 5.66513V5.66156M1451.61 15.8469V14.5875M1451.61 14.5875V12.6737M1317.81 12.6737L1307.18 10.8279M1317.81 12.6737H1280.45M1307.18 10.8279H1270.48M1445.04 20.7763L1451.61 21.789M1445.04 20.7763H1451.61M1451.61 18.6344V20.7763M1451.61 21.789V20.7763M1364.48 20.7763L1352.14 18.6344M1364.48 20.7763H1324.21M1352.14 18.6344H1312.64M1270.48 10.8279L1280.45 12.6737M1242.59 5.66513H1277.43M1277.43 5.66513L1268.19 4.05811M1168.36 12.6737L1160.38 10.8279M1168.36 12.6737H1130.99M1160.38 10.8279H1123.68M1312.64 18.6344L1324.21 20.7763M1203.36 20.7763L1194.11 18.634M1203.36 20.7763H1163.09M1194.11 18.634L1154.6 18.6344M1361.79 27.7357L1375.38 30.2518M1361.79 27.7357H1404.58M1404.58 27.7357L1419.06 30.2518M1375.38 30.2518H1419.06M1419.06 30.2518L1434.19 32.8766M1419.06 30.2518H1451.61M1451.61 27.7357V28.4297M1451.61 28.4297V30.2518M1434.19 32.8766L1449.97 35.6177M1434.19 32.8766H1451.61M1244.3 30.2518L1233.42 27.7357M1244.3 30.2518H1200.61M1451.61 30.2518H1451.84M1451.61 30.2518V32.8766M1233.42 27.7357H1190.64M1419.83 38.483L1436.01 41.4804M1419.83 38.483H1451.61M1449.97 35.6177L1451.61 35.9006M1449.97 35.6177H1451.61M1451.61 32.8766V35.6177M1451.61 35.9006L1452 35.9689M1451.61 35.9006V35.6177M1451.61 35.9006V38.483M1436.01 41.4804H1451.61M1436.01 41.4804L1451.61 44.3679M1451.61 38.483V41.4804M1451.61 41.4804V44.3679M1292.81 41.4804L1279.86 38.483M1292.81 41.4804H1245.07M1279.86 38.483H1233.2M1451.61 54.0441L1451.76 54.0739M1451.61 54.0441V51.3673M1451.61 54.0441V54.9988M1335.52 51.3673H1284.23M1335.52 51.3673L1351.22 54.9988M1123.68 10.8279L1130.99 12.6737M1103.24 5.66513H1138.07M1103.24 5.66513L1096.87 4.05811M1138.07 5.66513L1137.2 5.46118L1135.44 5.05645L1131.13 4.05851M1131.13 4.05851L1096.87 4.0589M1018.9 12.6737L1013.58 10.8279M1018.9 12.6737H981.542M1013.58 10.8279H976.89M1154.6 18.6344L1163.09 20.7763M1042.24 20.7763L1036.08 18.634M1042.24 20.7763H1001.97M1036.08 18.634L996.563 18.6344M1190.64 27.7357L1200.61 30.2518M1069.53 30.2518L1062.28 27.7357M1069.53 30.2518H1025.84M1062.28 27.7357H1019.5M1233.2 38.483L1245.07 41.4804M1101.88 41.4804L1093.24 38.483M1101.88 41.4804H1054.14M1093.24 38.483H1046.59M1284.23 51.3673L1298.61 54.9988M1298.61 54.9988H1351.22M1140.81 54.9988L1130.35 51.3673M1140.81 54.9988H1088.21M1130.35 51.3673H1079.05M1346.53 67.0971L1364.31 71.5873M1346.53 67.0971H1403.48M1403.48 67.0971L1422.88 71.5873M1403.48 67.0971H1451.61M1364.31 71.5873H1422.88M1422.88 71.5873L1443.41 76.3401M1422.88 71.5873H1451.61M1451.61 67.0971V71.5873M1443.41 76.3401H1451.61M1443.41 76.3401L1451.61 78.236M1188.59 71.5873L1175.66 67.0971M1188.59 71.5873H1130.01M1451.61 71.5873V76.3401M1175.66 67.0971H1118.69M1424.28 86.7306L1446.83 92.4251M1424.28 86.7306H1451.61M1451.61 81.379V78.236M1451.61 81.379V86.7306M1451.61 76.3401V78.236M1446.83 92.4251L1451.61 93.6309M1446.83 92.4251H1451.61M1451.61 86.7306V92.4251M1451.61 93.6309V92.4251M1248.61 92.4251L1232.2 86.7306M1248.61 92.4251H1182.53M1232.2 86.7306H1168.18M1451.61 111.928V112.104M1451.61 112.104V119.384M1304.78 111.928H1231.68M1304.78 111.928L1326.25 119.384M976.89 10.8279L978.038 11.283L981.542 12.6737M963.879 5.66513H998.718M963.879 5.66513L959.83 4.05811M998.718 5.66513L996.965 5.05645L994.09 4.05851M994.09 4.05851L959.83 4.0589M869.451 12.6737L868.779 12.2059L866.795 10.8279M869.451 12.6737H832.089M866.795 10.8279L830.096 10.8282M996.563 18.6344L1001.97 20.7763M881.121 20.7763L880.73 20.5041L880.338 20.2331L878.036 18.634M881.121 20.7763H840.84M878.036 18.634H838.527M1019.5 27.7357L1025.84 30.2518M894.766 30.2518L891.143 27.7357M894.766 30.2518H851.075M891.143 27.7357H848.357M1046.59 38.483L1054.14 41.4804M910.937 41.4804L906.621 38.483M910.937 41.4804H863.203M906.621 38.483H859.966M1079.05 51.3673L1088.21 54.9988M930.405 54.9988L925.175 51.3673M930.405 54.9988H877.804M925.175 51.3673H873.881M1118.69 67.0971L1130.01 71.5873M954.294 71.5873L947.828 67.0971M954.294 71.5873H895.72M947.828 67.0971H890.87M1168.18 86.7306L1182.53 92.4251M984.302 92.4251L976.102 86.7306M984.302 92.4251H918.226M976.102 86.7306H912.076M1231.68 111.928L1250.47 119.384M1250.47 119.384H1326.25M1023.12 119.384L1012.39 111.928M1023.12 119.384H947.345M1012.39 111.928H939.292M1316.14 145.445L1341.81 155.627M1316.14 145.445H1401.31M1374.31 136.069L1401.31 145.445M1374.31 136.069H1451.61M1401.31 145.445L1430.64 155.627M1401.31 145.445H1451.61M1451.61 136.069V145.445M1341.81 155.627H1430.64M1430.64 155.627H1451.61M1430.64 155.627L1451.61 162.907M1451.61 145.445V155.627M1451.61 166.726V162.907M1451.61 166.726V178.87M1075.32 155.627L1060.66 145.445M1075.32 155.627H986.49M1451.61 155.627V162.907M1060.66 145.445H975.492M1434.02 192.215L1451.61 199.195M1434.02 192.215H1451.61M1451.61 178.87V192.215M1363.84 206.948H1256.53M1363.84 206.948H1451.61M1451.61 199.195V192.215M1451.61 199.195V206.948M1256.53 206.948H1149.23M1451.61 206.948V207H-11.6064V206.948M1149.23 206.948L1128.01 192.215M1149.23 206.948H1041.92M1128.01 192.215H1026M830.096 10.8282L830.34 11.0552L830.587 11.283L830.834 11.5123L831.083 11.7425L832.089 12.6737M824.519 5.66513L824.299 5.46118L823.862 5.05645L823.428 4.65449L823.213 4.45491L822.783 4.05811M824.519 5.66513H859.359M859.359 5.66513L857.331 4.25651L857.045 4.05811M720 12.6741V10.8279M720 12.6741L682.637 12.6737M720 10.8279L683.302 10.8282M838.527 18.634L840.84 20.7763M720 20.7763V18.634M720 20.7763H679.72M720 18.634L680.491 18.6344M848.357 27.7357L851.075 30.2518M720 30.2518V27.7357M720 30.2518H676.309M720 27.7357H677.214M859.966 38.483L863.203 41.4804M720 41.4804V38.483M720 41.4804H672.265M720 38.483H673.345M873.881 51.3673L877.804 54.9988M720 54.9988V51.3673M720 54.9988H667.399M720 51.3673H668.706M890.87 67.0971L895.72 71.5873M720 71.5873V67.0971M720 71.5873H661.427M720 67.0971H663.043M912.076 86.7306L918.226 92.4251M720 92.4251V86.7306M720 92.4251H653.924M720 86.7306H655.975M939.292 111.928L947.345 119.384M720 119.384V111.928M720 119.384H644.218M720 111.928H646.902M975.492 145.445L986.49 155.627M720 155.627V145.445M720 155.627H631.17M720 145.445H634.836M1026 192.215L1041.92 206.948M934.613 206.948H1041.92M934.613 206.948H827.307M827.307 206.948H720M720 206.948V192.215M720 206.948H612.693M720 192.215H617.997M683.302 10.8282L683.219 11.0552L683.138 11.283L683.055 11.5123L682.637 12.6737M685.16 5.66513H720M685.16 5.66513L685.379 5.05645L685.452 4.85488L685.739 4.05851M720 5.66513V4.05811M685.739 4.05851L720 4.0589M570.549 12.6737L571.221 12.2059L573.205 10.8279M570.549 12.6737H533.185M573.205 10.8279H536.507M680.491 18.6344L679.72 20.7763M558.879 20.7763L561.964 18.634M558.879 20.7763H518.599M561.964 18.634L522.455 18.6344M677.214 27.7357L676.992 28.3547L676.539 29.613L676.309 30.2518M545.234 30.2518L548.857 27.7357M545.234 30.2518H501.542M548.857 27.7357H506.071M673.345 38.483L672.265 41.4804M529.063 41.4804L533.379 38.483M529.063 41.4804H481.329M533.379 38.483H486.725M668.706 51.3673L667.399 54.9988M509.595 54.9988L514.825 51.3673M509.595 54.9988H456.994M514.825 51.3673H463.531M663.043 67.0971L661.427 71.5873M485.706 71.5873L492.172 67.0971M485.706 71.5873H427.133M492.172 67.0971H435.216M655.975 86.7306L653.924 92.4251M455.698 92.4251L463.898 86.7306M455.698 92.4251H389.623M463.898 86.7306H399.873M646.902 111.928L644.218 119.384M416.875 119.384L427.612 111.928M416.875 119.384H341.093M427.612 111.928H354.515M634.836 145.445L631.17 155.627M364.681 155.627L379.345 145.445M364.681 155.627H275.851M379.345 145.445H294.18M617.997 192.215L612.693 206.948M505.387 206.948H612.693M505.387 206.948H398.081M398.081 206.948H290.774M290.774 206.948L311.99 192.215M290.774 206.948H183.468M311.99 192.215H209.989M536.507 10.8279L533.185 12.6737M545.801 5.66513H580.641M545.801 5.66513L547.979 4.45491L548.693 4.05811M580.641 5.66513L580.934 5.46118L581.517 5.05645L582.954 4.05851M582.954 4.05851L548.693 4.0589M421.096 12.6737L426.411 10.8279M421.096 12.6737H383.733M426.411 10.8279H389.712M522.455 18.6344L518.599 20.7763M397.758 20.7763L403.17 18.8975L403.928 18.634M397.758 20.7763H357.478M403.928 18.634L364.418 18.6344M506.071 27.7357L501.542 30.2518M370.466 30.2518L377.714 27.7357M370.466 30.2518H326.775M377.714 27.7357H334.928M486.725 38.483L481.329 41.4804M338.126 41.4804L346.759 38.483M338.126 41.4804H290.392M346.759 38.483H300.105M463.531 51.3673L456.994 54.9988M299.19 54.9988L309.65 51.3673M299.19 54.9988H246.589M309.65 51.3673H258.356M435.216 67.0971L427.133 71.5873M251.413 71.5873L264.346 67.0971M251.413 71.5873H192.84M264.346 67.0971H207.389M399.873 86.7306L389.623 92.4251M191.397 92.4251L207.797 86.7306M207.797 86.7306H143.771M354.515 111.928L341.093 119.384M113.748 119.384L135.222 111.928M113.748 119.384H37.9668M135.222 111.928H62.1258M294.18 145.445L275.851 155.627M9.36054 155.627L38.6887 145.445M9.36054 155.627H-11.6054M9.36054 155.627L-11.6054 162.907M38.6887 145.445H-11.6064M209.989 192.215L183.468 206.948M76.1603 206.948H183.468M76.1603 206.948H-11.6064M-11.6064 206.948L-11.6054 199.195M-11.6054 199.195L-11.6064 192.215M389.712 10.8279L383.733 12.6737M406.442 5.66513L407.102 5.46118L411.648 4.05851M406.442 5.66513H441.282M441.282 5.66513L443.035 5.05645L445.91 4.05851M411.648 4.05851H445.91M271.643 12.6737H234.279M364.418 18.6344L357.478 20.7763M236.637 20.7763L245.891 18.634M236.637 20.7763H196.357M245.891 18.634L206.382 18.6344M334.928 27.7357L326.775 30.2518M195.7 30.2518L206.571 27.7357M195.7 30.2518H152.009M206.571 27.7357H163.785M300.105 38.483L290.392 41.4804M147.189 41.4804L160.139 38.483M147.189 41.4804H99.4548M160.139 38.483H113.484M258.356 51.3673L246.589 54.9988M88.7851 54.9988L104.474 51.3673M88.7851 54.9988H36.1835M104.474 51.3673H53.1811M207.389 67.0971L192.84 71.5873M17.1183 71.5873L36.5188 67.0971M17.1183 71.5873H-11.6064M36.5188 67.0971H-11.6064M143.771 86.7306L125.321 92.4251M125.321 92.4251H191.396M-11.6064 92.4251H-6.82981L-11.6064 93.6309M-11.6064 92.4251V93.6309M-11.6064 92.4251V86.7306M62.1258 111.928L37.9668 119.384M-11.6064 111.928V112.104M-11.6064 112.104V119.384M37.9668 119.384L11.9652 127.409M37.9668 119.384H-11.6064M11.9652 127.409H-11.6064M11.9652 127.409L-11.6064 134.683M-11.6064 127.409V134.683M-11.6064 127.409V119.384M-11.6064 134.683V136.069M-11.6064 136.069V145.445M-11.6064 145.445L-11.6054 155.627M-11.6054 155.627V162.907M206.218 10.8279L196.916 12.6737M206.218 10.8279H242.918M206.218 10.8279H169.52M242.918 10.8279L251.254 9.04663M242.918 10.8279L234.279 12.6737M242.918 10.8279H279.616L287.312 9.04663M251.254 9.04663L259.304 7.32692M251.254 9.04663H287.312M259.304 7.32692L267.082 5.66513M267.082 5.66513H232.242M267.082 5.66513L268.035 5.46118L274.601 4.05851M267.082 5.66513H301.922M232.242 5.66513L240.34 4.05811M301.922 5.66513L302.802 5.46118L308.863 4.05851M308.863 4.05851L274.602 4.0589M122.192 12.6737L84.8288 12.6741M206.382 18.6344L196.357 20.7763M75.5157 20.7763L87.8562 18.6344H48.3463M75.5157 20.7763H35.2356M163.785 27.7357L152.009 30.2518M20.934 30.2518L35.4294 27.7357M20.934 30.2518H-11.6064M35.4294 27.7357H-7.35597M113.484 38.483L99.4548 41.4804M-11.6054 38.483L-11.6064 35.9006M53.1811 51.3673L36.1835 54.9988M-11.6064 51.3673V54.0441M-11.6064 54.0441L-11.755 54.0739M-11.6064 54.0441V54.9988M36.1835 54.9988L18.2962 58.8208M36.1835 54.9988H-11.6064M18.2962 58.8208L-0.550074 62.8475M18.2962 58.8208H-11.6054M-0.550074 62.8475H-11.6064M-0.550074 62.8475L-11.6064 65.2096M-11.6054 58.8208L-11.6064 62.8475M-11.6054 58.8208L-11.6064 54.9988M-11.6064 62.8475V65.2096M-11.6064 65.2096V67.0971M-11.6064 67.0971V71.5873M-11.6064 76.3401V78.236M-11.6064 76.3401V71.5873M59.4257 10.8279L47.4667 12.6737M59.4257 10.8279H96.1241M96.1241 10.8279L107.026 9.04663M96.1241 10.8279L84.8278 12.6737M96.1241 10.8279H132.822M127.723 5.66513H92.8829M127.723 5.66513H162.561M127.723 5.66513L137.556 4.05811M132.822 10.8279L122.191 12.6737M162.561 5.66513L171.817 4.05811M84.8288 12.6741H47.4657H10.1026M84.8288 12.6741L73.1158 14.5879M10.1026 12.6741L22.7273 10.8282L-11.6064 10.8279M10.1026 12.6741H-11.6064M-11.6064 12.6741V10.8279M-11.6064 10.8279V10.4993V9.04703V7.32652M48.3463 18.6344L35.2356 20.7763M-5.04449 20.7763H35.2356M-5.04449 20.7763L-11.6064 21.789M-5.04449 20.7763H-11.6064M-11.6064 18.6344V20.7763M35.2356 20.7763L21.6047 23.0039M21.6047 23.0039L7.41859 25.3216M21.6047 23.0039H-11.6064M7.41859 25.3216L-7.35597 27.7357M7.41859 25.3216H-11.6064M-11.6064 23.0039V25.3216M-11.6064 23.0039V21.789M-11.6064 21.789V20.7763M-7.35597 27.7357L-11.6064 28.4297M-7.35597 27.7357H-11.6064M-11.6064 25.3216V27.7357M-11.6064 28.4297V30.2518M-11.6064 28.4297V27.7357M-11.6064 32.8766V35.6177M-11.6064 32.8766V30.2518M-11.6064 30.2518H-11.8343M-11.6064 35.6177V35.9006M-11.6064 35.9006L-12 35.9689M-11.6064 7.32652V5.66553M58.0441 5.66553H23.2043M23.2043 5.66553L34.7717 4.05851M23.2043 5.66553H-11.6064M34.7717 4.05851H0.511276M-11.6064 5.66553L-11.6365 5.66513L-11.6064 5.66156M-11.6064 5.66553V5.66156M1370.97 4.0589H1405.23M857.045 4.0589H822.783M171.818 4.0589H137.557M12.2604 2.50465L0.511276 4.05851M0.511276 4.05851L-11.6064 5.66156M0.511276 4.05851H-11.6064M-11.6064 5.66156V4.05851M1451.61 5.66156V4.05851" stroke="url(#paint0_linear_311_10613)" stroke-width="1.012" stroke-miterlimit="10" stroke-linecap="round" stroke-linejoin="round"/>
<defs>
<linearGradient id="paint0_linear_311_10613" x1="720" y1="1" x2="720" y2="145.431" gradientUnits="userSpaceOnUse">
<stop stop-color="#CED2DF" stop-opacity="0"/>
<stop offset="1" stop-color="#DB371D" stop-opacity="0.38"/>
</linearGradient>
</defs>
</svg>
