<svg width="156" height="156" viewBox="0 0 156 156" fill="none" xmlns="http://www.w3.org/2000/svg">
<path d="M110.319 96.5884H108.401V101.666H110.319V96.5884Z" fill="white"/>
<path d="M110.531 101.878H108.189V96.3726H110.531V101.878ZM108.612 101.454H110.107V96.796H108.612V101.454Z" fill="#263238"/>
<path d="M111.788 21.2117H56.8691V135.653H111.788V21.2117Z" fill="white"/>
<path d="M112 135.865H56.6574V21H112V135.865ZM57.0808 135.441H111.577V21.4235H57.0808V135.441Z" fill="#263238"/>
<path d="M58.9483 126.54H57.03V131.618H58.9483V126.54Z" fill="white"/>
<path d="M59.1601 131.829H56.8183V126.324H59.1601V131.829ZM57.2418 131.406H58.7366V126.748H57.2418V131.406Z" fill="#263238"/>
<path d="M58.6688 67.2085H56.7505V72.2858H58.6688V67.2085Z" fill="white"/>
<path d="M58.8806 72.4975H56.5557V66.9925H58.8975L58.8806 72.4975ZM56.9623 72.0741H58.4571V67.416H56.9792L56.9623 72.0741Z" fill="#263238"/>
<path d="M58.6688 111.757H56.7505V116.834H58.6688V111.757Z" fill="white"/>
<path d="M58.8806 117.046H56.5557V111.541H58.8975L58.8806 117.046ZM56.9623 116.623H58.4571V111.965H56.9792L56.9623 116.623Z" fill="#263238"/>
<path d="M58.6688 96.5588H56.7505V101.636H58.6688V96.5588Z" fill="white"/>
<path d="M58.8806 101.844H56.5557V96.3387H58.8975L58.8806 101.844ZM56.9623 101.42H58.4571V96.7621H56.9792L56.9623 101.42Z" fill="#263238"/>
<path d="M58.6688 81.8561H56.7505V86.9335H58.6688V81.8561Z" fill="white"/>
<path d="M58.8806 87.1664H56.5557V81.6613H58.8975L58.8806 87.1664ZM56.9792 86.7429H58.474V82.0848H56.9792V86.7429Z" fill="#263238"/>
<path d="M110.319 126.54H108.401V131.618H110.319V126.54Z" fill="white"/>
<path d="M110.531 131.829H108.189V126.324H110.531V131.829ZM108.612 131.406H110.107V126.748H108.612V131.406Z" fill="#263238"/>
<path d="M110.81 67.2085H108.892V72.2858H110.81V67.2085Z" fill="white"/>
<path d="M111.022 72.4975H108.68V66.9925H111.022V72.4975ZM109.103 72.0741H110.598V67.416H109.103V72.0741Z" fill="#263238"/>
<path d="M110.81 111.757H108.892V116.834H110.81V111.757Z" fill="white"/>
<path d="M111.022 117.046H108.68V111.541H111.022V117.046ZM109.103 116.623H110.598V111.965H109.103V116.623Z" fill="#263238"/>
<path d="M110.81 81.8561H108.892V86.9335H110.81V81.8561Z" fill="white"/>
<path d="M111.022 87.1664H108.68V81.6613H111.022V87.1664ZM109.103 86.7429H110.598V82.0848H109.103V86.7429Z" fill="#263238"/>
<path d="M109.032 64.4009H58.4867V75.3474H109.032V64.4009Z" fill="white"/>
<path d="M109.243 75.5592H58.275V64.1891H109.243V75.5592ZM58.6985 75.1357H108.82V64.6126H58.6985V75.1357Z" fill="#263238"/>
<path d="M72.0673 67.1957H69.1792V72.5568H72.0673V67.1957Z" fill="#E54F38"/>
<path d="M72.0672 72.7685H69.1792C69.1231 72.7685 69.0692 72.7462 69.0295 72.7065C68.9898 72.6668 68.9675 72.613 68.9675 72.5568V67.1957C68.9675 67.1396 68.9898 67.0857 69.0295 67.046C69.0692 67.0063 69.1231 66.984 69.1792 66.984H72.0672C72.1234 66.984 72.1772 67.0063 72.217 67.046C72.2567 67.0857 72.279 67.1396 72.279 67.1957V72.5568C72.279 72.613 72.2567 72.6668 72.217 72.7065C72.1772 72.7462 72.1234 72.7685 72.0672 72.7685ZM69.3909 72.3451H71.8555V67.4075H69.3909V72.3451Z" fill="#263238"/>
<path d="M67.6421 67.1957H64.754V72.5568H67.6421V67.1957Z" fill="#E54F38"/>
<path d="M67.642 72.7685H64.754C64.6979 72.7685 64.644 72.7462 64.6043 72.7065C64.5646 72.6668 64.5423 72.613 64.5423 72.5568V67.1957C64.5423 67.1396 64.5646 67.0857 64.6043 67.046C64.644 67.0063 64.6979 66.984 64.754 66.984H67.642C67.6982 66.984 67.7521 67.0063 67.7918 67.046C67.8315 67.0857 67.8538 67.1396 67.8538 67.1957V72.5568C67.8538 72.613 67.8315 72.6668 67.7918 72.7065C67.7521 72.7462 67.6982 72.7685 67.642 72.7685ZM64.9657 72.3451H67.4303V67.4075H64.9657V72.3451Z" fill="#263238"/>
<path d="M63.2168 67.1957H60.9174V72.5568H63.2168V67.1957Z" fill="#E54F38"/>
<path d="M63.2168 72.7685H60.9174C60.8613 72.7685 60.8074 72.7462 60.7677 72.7065C60.728 72.6668 60.7057 72.613 60.7057 72.5568V67.1957C60.7057 67.1396 60.728 67.0857 60.7677 67.046C60.8074 67.0063 60.8613 66.984 60.9174 66.984H63.2168C63.273 66.984 63.3268 67.0063 63.3666 67.046C63.4063 67.0857 63.4286 67.1396 63.4286 67.1957V72.5568C63.4286 72.613 63.4063 72.6668 63.3666 72.7065C63.3268 72.7462 63.273 72.7685 63.2168 72.7685ZM61.1292 72.3451H63.0051V67.4075H61.1292V72.3451Z" fill="#263238"/>
<path d="M76.4925 67.1957H73.6044V72.5568H76.4925V67.1957Z" fill="#E54F38"/>
<path d="M76.4925 72.7685H73.6087C73.5525 72.7685 73.4986 72.7462 73.4589 72.7065C73.4192 72.6668 73.3969 72.613 73.3969 72.5568V67.1957C73.3969 67.1396 73.4192 67.0857 73.4589 67.046C73.4986 67.0063 73.5525 66.984 73.6087 66.984H76.4925C76.5486 66.984 76.6025 67.0063 76.6422 67.046C76.6819 67.0857 76.7042 67.1396 76.7042 67.1957V72.5568C76.7042 72.613 76.6819 72.6668 76.6422 72.7065C76.6025 72.7462 76.5486 72.7685 76.4925 72.7685ZM73.8204 72.3451H76.2807V67.4075H73.8204V72.3451Z" fill="#263238"/>
<path d="M95.7516 67.1957H78.0296V72.5568H95.7516V67.1957Z" fill="#E54F38"/>
<path d="M95.7516 72.7685H78.0296C77.9735 72.7685 77.9196 72.7462 77.8799 72.7065C77.8402 72.6668 77.8179 72.613 77.8179 72.5568V67.1957C77.8179 67.1396 77.8402 67.0857 77.8799 67.046C77.9196 67.0063 77.9735 66.984 78.0296 66.984H95.7516C95.8078 66.984 95.8617 67.0063 95.9014 67.046C95.9411 67.0857 95.9634 67.1396 95.9634 67.1957V72.5568C95.9634 72.613 95.9411 72.6668 95.9014 72.7065C95.8617 72.7462 95.8078 72.7685 95.7516 72.7685ZM78.2414 72.3451H95.5399V67.4075H78.2414V72.3451Z" fill="#263238"/>
<path d="M101.82 69.6434C101.82 69.3762 101.741 69.115 101.592 68.8929C101.444 68.6707 101.233 68.4976 100.986 68.3954C100.739 68.2931 100.468 68.2664 100.206 68.3185C99.9435 68.3706 99.7028 68.4993 99.5139 68.6882C99.3249 68.8771 99.1963 69.1178 99.1442 69.3798C99.092 69.6419 99.1188 69.9135 99.221 70.1603C99.3233 70.4072 99.4964 70.6182 99.7186 70.7666C99.9407 70.915 100.202 70.9942 100.469 70.9942C100.827 70.9942 101.171 70.8519 101.424 70.5986C101.678 70.3453 101.82 70.0017 101.82 69.6434Z" fill="white"/>
<path d="M100.469 71.206C100.16 71.206 99.8579 71.1143 99.6009 70.9426C99.3439 70.7709 99.1437 70.5269 99.0254 70.2414C98.9071 69.9558 98.8762 69.6417 98.9365 69.3385C98.9968 69.0354 99.1456 68.757 99.3641 68.5385C99.5827 68.3199 99.8611 68.1711 100.164 68.1108C100.467 68.0505 100.781 68.0815 101.067 68.1997C101.353 68.318 101.597 68.5183 101.768 68.7753C101.94 69.0322 102.032 69.3343 102.032 69.6434C102.031 70.0575 101.866 70.4543 101.573 70.7471C101.28 71.0399 100.883 71.2049 100.469 71.206ZM100.469 68.5043C100.244 68.5043 100.024 68.5711 99.8362 68.6963C99.6488 68.8214 99.5028 68.9993 99.4166 69.2075C99.3304 69.4156 99.3079 69.6447 99.3518 69.8656C99.3958 70.0866 99.5042 70.2896 99.6636 70.4489C99.8229 70.6082 100.026 70.7167 100.247 70.7606C100.468 70.8046 100.697 70.782 100.905 70.6958C101.113 70.6096 101.291 70.4636 101.416 70.2762C101.541 70.0889 101.608 69.8687 101.608 69.6434C101.608 69.4938 101.579 69.3457 101.521 69.2075C101.464 69.0693 101.38 68.9437 101.275 68.8379C101.169 68.7321 101.043 68.6482 100.905 68.591C100.767 68.5337 100.619 68.5043 100.469 68.5043Z" fill="#263238"/>
<path d="M107.113 69.6434C107.113 69.3762 107.034 69.115 106.886 68.8929C106.737 68.6707 106.526 68.4976 106.279 68.3954C106.032 68.2931 105.761 68.2664 105.499 68.3185C105.237 68.3706 104.996 68.4993 104.807 68.6882C104.618 68.8771 104.49 69.1178 104.437 69.3798C104.385 69.6419 104.412 69.9135 104.514 70.1603C104.617 70.4072 104.79 70.6182 105.012 70.7666C105.234 70.915 105.495 70.9942 105.762 70.9942C106.121 70.9942 106.464 70.8519 106.718 70.5986C106.971 70.3453 107.113 70.0017 107.113 69.6434Z" fill="#E54F38"/>
<path d="M105.762 71.206C105.453 71.206 105.151 71.1143 104.894 70.9426C104.637 70.7709 104.437 70.5269 104.319 70.2414C104.2 69.9558 104.17 69.6417 104.23 69.3385C104.29 69.0354 104.439 68.757 104.657 68.5385C104.876 68.3199 105.154 68.1711 105.458 68.1108C105.761 68.0505 106.075 68.0815 106.36 68.1997C106.646 68.318 106.89 68.5183 107.062 68.7753C107.233 69.0322 107.325 69.3343 107.325 69.6434C107.325 70.0578 107.16 70.4553 106.867 70.7483C106.574 71.0413 106.177 71.206 105.762 71.206ZM105.762 68.5043C105.537 68.5043 105.317 68.5711 105.129 68.6963C104.942 68.8214 104.796 68.9993 104.71 69.2075C104.624 69.4156 104.601 69.6447 104.645 69.8656C104.689 70.0866 104.798 70.2896 104.957 70.4489C105.116 70.6082 105.319 70.7167 105.54 70.7606C105.761 70.8046 105.99 70.782 106.198 70.6958C106.406 70.6096 106.584 70.4636 106.71 70.2762C106.835 70.0889 106.901 69.8687 106.901 69.6434C106.902 69.4936 106.873 69.3453 106.816 69.2068C106.759 69.0684 106.675 68.9426 106.569 68.8367C106.463 68.7308 106.337 68.6469 106.199 68.5898C106.06 68.5328 105.912 68.5037 105.762 68.5043Z" fill="#263238"/>
<path d="M93.9392 69.6434C93.9392 69.3762 93.86 69.115 93.7116 68.8929C93.5631 68.6707 93.3522 68.4976 93.1053 68.3954C92.8585 68.2931 92.5869 68.2664 92.3248 68.3185C92.0628 68.3706 91.8221 68.4993 91.6332 68.6882C91.4443 68.8771 91.3156 69.1178 91.2635 69.3798C91.2114 69.6419 91.2381 69.9135 91.3403 70.1603C91.4426 70.4072 91.6157 70.6182 91.8379 70.7666C92.06 70.915 92.3212 70.9942 92.5884 70.9942C92.9466 70.9942 93.2902 70.8519 93.5436 70.5986C93.7969 70.3453 93.9392 70.0017 93.9392 69.6434Z" fill="white"/>
<path d="M92.5883 71.206C92.2793 71.206 91.9772 71.1143 91.7202 70.9426C91.4633 70.7709 91.263 70.5269 91.1447 70.2414C91.0264 69.9558 90.9955 69.6417 91.0558 69.3385C91.1161 69.0354 91.2649 68.757 91.4834 68.5385C91.702 68.3199 91.9804 68.1711 92.2835 68.1108C92.5866 68.0505 92.9008 68.0815 93.1863 68.1997C93.4718 68.318 93.7159 68.5183 93.8876 68.7753C94.0593 69.0322 94.1509 69.3343 94.1509 69.6434C94.1498 70.0575 93.9848 70.4543 93.692 70.7471C93.3992 71.0399 93.0024 71.2049 92.5883 71.206ZM92.5883 68.5043C92.363 68.5043 92.1428 68.5711 91.9555 68.6963C91.7682 68.8214 91.6222 68.9993 91.5359 69.2075C91.4497 69.4156 91.4272 69.6447 91.4711 69.8656C91.5151 70.0866 91.6236 70.2896 91.7829 70.4489C91.9422 70.6082 92.1451 70.7167 92.3661 70.7606C92.5871 70.8046 92.8161 70.782 93.0243 70.6958C93.2324 70.6096 93.4103 70.4636 93.5355 70.2762C93.6607 70.0889 93.7275 69.8687 93.7275 69.6434C93.7275 69.3413 93.6074 69.0515 93.3938 68.8379C93.1802 68.6243 92.8905 68.5043 92.5883 68.5043Z" fill="#263238"/>
<path d="M58.6688 52.2899H56.7505V57.3672H58.6688V52.2899Z" fill="white"/>
<path d="M58.8806 57.5747H56.5557V52.0696H58.8975L58.8806 57.5747ZM56.9623 57.1512H58.4571V52.4931H56.9792L56.9623 57.1512Z" fill="#263238"/>
<path d="M110.81 52.2899H108.892V57.3672H110.81V52.2899Z" fill="white"/>
<path d="M111.022 57.5747H108.68V52.0696H111.022V57.5747ZM109.103 57.1512H110.598V52.4931H109.103V57.1512Z" fill="#263238"/>
<path d="M109.032 49.478H58.4867V60.4246H109.032V49.478Z" fill="white"/>
<path d="M109.243 60.6406H58.275V49.2663H109.243V60.6406ZM58.6985 60.2171H108.82V49.6898H58.6985V60.2171Z" fill="#263238"/>
<path d="M72.0673 52.2729H69.1792V57.634H72.0673V52.2729Z" fill="#E54F38"/>
<path d="M72.0672 57.8457H69.1792C69.1231 57.8457 69.0692 57.8234 69.0295 57.7837C68.9898 57.744 68.9675 57.6901 68.9675 57.634V52.2729C68.9675 52.2167 68.9898 52.1629 69.0295 52.1232C69.0692 52.0835 69.1231 52.0612 69.1792 52.0612H72.0672C72.1234 52.0612 72.1772 52.0835 72.217 52.1232C72.2567 52.1629 72.279 52.2167 72.279 52.2729V57.634C72.279 57.6901 72.2567 57.744 72.217 57.7837C72.1772 57.8234 72.1234 57.8457 72.0672 57.8457ZM69.3909 57.4222H71.8555V52.4846H69.3909V57.4222Z" fill="#263238"/>
<path d="M67.6421 52.2729H64.754V57.634H67.6421V52.2729Z" fill="#E54F38"/>
<path d="M67.642 57.8457H64.754C64.6979 57.8457 64.644 57.8234 64.6043 57.7837C64.5646 57.744 64.5423 57.6901 64.5423 57.634V52.2729C64.5423 52.2167 64.5646 52.1629 64.6043 52.1232C64.644 52.0835 64.6979 52.0612 64.754 52.0612H67.642C67.6982 52.0612 67.7521 52.0835 67.7918 52.1232C67.8315 52.1629 67.8538 52.2167 67.8538 52.2729V57.634C67.8538 57.6901 67.8315 57.744 67.7918 57.7837C67.7521 57.8234 67.6982 57.8457 67.642 57.8457ZM64.9657 57.4222H67.4303V52.4846H64.9657V57.4222Z" fill="#263238"/>
<path d="M63.2168 52.2729H60.9174V57.634H63.2168V52.2729Z" fill="#E54F38"/>
<path d="M63.2168 57.8457H60.9174C60.8613 57.8457 60.8074 57.8234 60.7677 57.7837C60.728 57.744 60.7057 57.6901 60.7057 57.634V52.2729C60.7057 52.2167 60.728 52.1629 60.7677 52.1232C60.8074 52.0835 60.8613 52.0612 60.9174 52.0612H63.2168C63.273 52.0612 63.3268 52.0835 63.3666 52.1232C63.4063 52.1629 63.4286 52.2167 63.4286 52.2729V57.634C63.4286 57.6901 63.4063 57.744 63.3666 57.7837C63.3268 57.8234 63.273 57.8457 63.2168 57.8457ZM61.1292 57.4222H63.0051V52.4846H61.1292V57.4222Z" fill="#263238"/>
<path d="M76.4925 52.2729H73.6044V57.634H76.4925V52.2729Z" fill="#E54F38"/>
<path d="M76.4925 57.8457H73.6087C73.5525 57.8457 73.4986 57.8234 73.4589 57.7837C73.4192 57.744 73.3969 57.6901 73.3969 57.634V52.2729C73.3969 52.2167 73.4192 52.1629 73.4589 52.1232C73.4986 52.0835 73.5525 52.0612 73.6087 52.0612H76.4925C76.5486 52.0612 76.6025 52.0835 76.6422 52.1232C76.6819 52.1629 76.7042 52.2167 76.7042 52.2729V57.634C76.7042 57.6901 76.6819 57.744 76.6422 57.7837C76.6025 57.8234 76.5486 57.8457 76.4925 57.8457ZM73.8204 57.4222H76.2807V52.4846H73.8204V57.4222Z" fill="#263238"/>
<path d="M95.7516 52.2729H78.0296V57.634H95.7516V52.2729Z" fill="#E54F38"/>
<path d="M95.7516 57.8457H78.0296C77.9735 57.8457 77.9196 57.8234 77.8799 57.7837C77.8402 57.744 77.8179 57.6901 77.8179 57.634V52.2729C77.8179 52.2167 77.8402 52.1629 77.8799 52.1232C77.9196 52.0835 77.9735 52.0612 78.0296 52.0612H95.7516C95.8078 52.0612 95.8617 52.0835 95.9014 52.1232C95.9411 52.1629 95.9634 52.2167 95.9634 52.2729V57.634C95.9634 57.6901 95.9411 57.744 95.9014 57.7837C95.8617 57.8234 95.8078 57.8457 95.7516 57.8457ZM78.2414 57.4222H95.5399V52.4846H78.2414V57.4222Z" fill="#263238"/>
<path d="M100.469 56.0714C101.215 56.0714 101.82 55.4666 101.82 54.7205C101.82 53.9745 101.215 53.3697 100.469 53.3697C99.723 53.3697 99.1182 53.9745 99.1182 54.7205C99.1182 55.4666 99.723 56.0714 100.469 56.0714Z" fill="white"/>
<path d="M100.469 56.2831C100.16 56.2831 99.8579 56.1915 99.6009 56.0198C99.3439 55.8481 99.1437 55.6041 99.0254 55.3185C98.9071 55.033 98.8762 54.7188 98.9365 54.4157C98.9968 54.1126 99.1456 53.8342 99.3641 53.6156C99.5827 53.3971 99.8611 53.2483 100.164 53.188C100.467 53.1277 100.781 53.1586 101.067 53.2769C101.353 53.3952 101.597 53.5955 101.768 53.8524C101.94 54.1094 102.032 54.4115 102.032 54.7205C102.032 55.135 101.867 55.5324 101.574 55.8255C101.281 56.1185 100.883 56.2831 100.469 56.2831ZM100.469 53.5814C100.244 53.5814 100.024 53.6482 99.8362 53.7734C99.6488 53.8986 99.5028 54.0765 99.4166 54.2846C99.3304 54.4928 99.3079 54.7218 99.3518 54.9428C99.3958 55.1637 99.5042 55.3667 99.6636 55.526C99.8229 55.6853 100.026 55.7938 100.247 55.8378C100.468 55.8817 100.697 55.8592 100.905 55.773C101.113 55.6867 101.291 55.5407 101.416 55.3534C101.541 55.1661 101.608 54.9458 101.608 54.7205C101.607 54.4188 101.487 54.1297 101.273 53.9163C101.06 53.7029 100.771 53.5825 100.469 53.5814Z" fill="#263238"/>
<path d="M107.113 54.7205C107.113 54.4534 107.034 54.1922 106.886 53.97C106.737 53.7479 106.526 53.5748 106.279 53.4725C106.032 53.3703 105.761 53.3435 105.499 53.3956C105.237 53.4478 104.996 53.5764 104.807 53.7653C104.618 53.9543 104.49 54.195 104.437 54.457C104.385 54.719 104.412 54.9907 104.514 55.2375C104.617 55.4843 104.79 55.6953 105.012 55.8437C105.234 55.9922 105.495 56.0714 105.762 56.0714C106.121 56.0714 106.464 55.9291 106.718 55.6757C106.971 55.4224 107.113 55.0788 107.113 54.7205Z" fill="#E54F38"/>
<path d="M105.762 56.2831C105.453 56.2831 105.151 56.1915 104.894 56.0198C104.637 55.8481 104.437 55.6041 104.319 55.3185C104.2 55.033 104.17 54.7188 104.23 54.4157C104.29 54.1126 104.439 53.8342 104.657 53.6156C104.876 53.3971 105.154 53.2483 105.458 53.188C105.761 53.1277 106.075 53.1586 106.36 53.2769C106.646 53.3952 106.89 53.5955 107.062 53.8524C107.233 54.1094 107.325 54.4115 107.325 54.7205C107.325 55.135 107.16 55.5324 106.867 55.8255C106.574 56.1185 106.177 56.2831 105.762 56.2831ZM105.762 53.5814C105.537 53.5814 105.317 53.6482 105.129 53.7734C104.942 53.8986 104.796 54.0765 104.71 54.2846C104.624 54.4928 104.601 54.7218 104.645 54.9428C104.689 55.1637 104.798 55.3667 104.957 55.526C105.116 55.6853 105.319 55.7938 105.54 55.8378C105.761 55.8817 105.99 55.8592 106.198 55.773C106.406 55.6867 106.584 55.5407 106.71 55.3534C106.835 55.1661 106.901 54.9458 106.901 54.7205C106.901 54.4184 106.781 54.1287 106.568 53.9151C106.354 53.7014 106.064 53.5814 105.762 53.5814Z" fill="#263238"/>
<path d="M92.5884 56.0714C93.3344 56.0714 93.9392 55.4666 93.9392 54.7205C93.9392 53.9745 93.3344 53.3697 92.5884 53.3697C91.8423 53.3697 91.2375 53.9745 91.2375 54.7205C91.2375 55.4666 91.8423 56.0714 92.5884 56.0714Z" fill="white"/>
<path d="M92.5883 56.2831C92.2793 56.2831 91.9772 56.1915 91.7202 56.0198C91.4633 55.8481 91.263 55.6041 91.1447 55.3185C91.0264 55.033 90.9955 54.7188 91.0558 54.4157C91.1161 54.1126 91.2649 53.8342 91.4834 53.6156C91.702 53.3971 91.9804 53.2483 92.2835 53.188C92.5866 53.1277 92.9008 53.1586 93.1863 53.2769C93.4718 53.3952 93.7159 53.5955 93.8876 53.8524C94.0593 54.1094 94.1509 54.4115 94.1509 54.7205C94.1509 55.135 93.9863 55.5324 93.6933 55.8255C93.4002 56.1185 93.0028 56.2831 92.5883 56.2831ZM92.5883 53.5814C92.363 53.5814 92.1428 53.6482 91.9555 53.7734C91.7682 53.8986 91.6222 54.0765 91.5359 54.2846C91.4497 54.4928 91.4272 54.7218 91.4711 54.9428C91.5151 55.1637 91.6236 55.3667 91.7829 55.526C91.9422 55.6853 92.1451 55.7938 92.3661 55.8378C92.5871 55.8817 92.8161 55.8592 93.0243 55.773C93.2324 55.6867 93.4103 55.5407 93.5355 55.3534C93.6607 55.1661 93.7275 54.9458 93.7275 54.7205C93.7263 54.4188 93.606 54.1297 93.3926 53.9163C93.1792 53.7029 92.8901 53.5825 92.5883 53.5814Z" fill="#263238"/>
<path d="M58.6688 37.3669H56.7505V42.4442H58.6688V37.3669Z" fill="white"/>
<path d="M58.8806 42.656H56.5557V37.1509H58.8975L58.8806 42.656ZM56.9623 42.2325H58.4571V37.5744H56.9792L56.9623 42.2325Z" fill="#263238"/>
<path d="M110.81 37.3669H108.892V42.4442H110.81V37.3669Z" fill="white"/>
<path d="M111.022 42.656H108.68V37.1509H111.022V42.656ZM109.103 42.2325H110.598V37.5744H109.103V42.2325Z" fill="#263238"/>
<path d="M109.032 34.5594H58.4867V45.506H109.032V34.5594Z" fill="white"/>
<path d="M109.243 45.7176H58.275V34.3476H109.243V45.7176ZM58.6985 45.2942H108.82V34.7711H58.6985V45.2942Z" fill="#263238"/>
<path d="M72.0673 37.35H69.1792V42.711H72.0673V37.35Z" fill="#E54F38"/>
<path d="M72.0672 42.9228H69.1792C69.1231 42.9228 69.0692 42.9005 69.0295 42.8608C68.9898 42.8211 68.9675 42.7672 68.9675 42.711V37.35C68.9686 37.2942 68.9912 37.2409 69.0307 37.2015C69.0702 37.162 69.1234 37.1393 69.1792 37.1382H72.0672C72.1234 37.1382 72.1772 37.1605 72.217 37.2003C72.2567 37.24 72.279 37.2938 72.279 37.35V42.7026C72.2801 42.7311 72.2755 42.7595 72.2654 42.7862C72.2552 42.8129 72.2398 42.8372 72.22 42.8578C72.2003 42.8784 72.1765 42.8947 72.1503 42.9059C72.124 42.9171 72.0958 42.9228 72.0672 42.9228ZM69.3909 42.4993H71.8555V37.5617H69.3909V42.4993Z" fill="#263238"/>
<path d="M67.6421 37.35H64.754V42.711H67.6421V37.35Z" fill="#E54F38"/>
<path d="M67.642 42.9228H64.754C64.6979 42.9228 64.644 42.9005 64.6043 42.8608C64.5646 42.8211 64.5423 42.7672 64.5423 42.711V37.35C64.5434 37.2942 64.566 37.2409 64.6055 37.2015C64.645 37.162 64.6982 37.1393 64.754 37.1382H67.642C67.6982 37.1382 67.7521 37.1605 67.7918 37.2003C67.8315 37.24 67.8538 37.2938 67.8538 37.35V42.7026C67.8549 42.7311 67.8503 42.7595 67.8402 42.7862C67.83 42.8129 67.8146 42.8372 67.7948 42.8578C67.7751 42.8784 67.7513 42.8947 67.7251 42.9059C67.6988 42.9171 67.6706 42.9228 67.642 42.9228ZM64.9657 42.4993H67.4303V37.5617H64.9657V42.4993Z" fill="#263238"/>
<path d="M63.2168 37.35H60.9174V42.711H63.2168V37.35Z" fill="#E54F38"/>
<path d="M63.2168 42.9228H60.9174C60.8613 42.9228 60.8074 42.9005 60.7677 42.8608C60.728 42.8211 60.7057 42.7672 60.7057 42.711V37.35C60.7057 37.2938 60.728 37.24 60.7677 37.2003C60.8074 37.1605 60.8613 37.1382 60.9174 37.1382H63.2168C63.273 37.1382 63.3268 37.1605 63.3666 37.2003C63.4063 37.24 63.4286 37.2938 63.4286 37.35V42.7026C63.4297 42.7311 63.4251 42.7595 63.4149 42.7862C63.4048 42.8129 63.3894 42.8372 63.3696 42.8578C63.3499 42.8784 63.3261 42.8947 63.2999 42.9059C63.2736 42.9171 63.2454 42.9228 63.2168 42.9228ZM61.1292 42.4993H63.0051V37.5617H61.1292V42.4993Z" fill="#263238"/>
<path d="M76.4925 37.35H73.6044V42.711H76.4925V37.35Z" fill="#E54F38"/>
<path d="M76.4925 42.9228H73.6087C73.5525 42.9228 73.4986 42.9005 73.4589 42.8608C73.4192 42.8211 73.3969 42.7672 73.3969 42.711V37.35C73.3969 37.2938 73.4192 37.24 73.4589 37.2003C73.4986 37.1605 73.5525 37.1382 73.6087 37.1382H76.4925C76.5486 37.1382 76.6025 37.1605 76.6422 37.2003C76.6819 37.24 76.7042 37.2938 76.7042 37.35V42.7026C76.7053 42.7311 76.7007 42.7595 76.6906 42.7862C76.6804 42.8129 76.665 42.8372 76.6453 42.8578C76.6255 42.8784 76.6017 42.8947 76.5755 42.9059C76.5492 42.9171 76.521 42.9228 76.4925 42.9228ZM73.8204 42.4993H76.2807V37.5617H73.8204V42.4993Z" fill="#263238"/>
<path d="M95.7516 37.35H78.0296V42.711H95.7516V37.35Z" fill="#E54F38"/>
<path d="M95.7516 42.9228H78.0296C77.9735 42.9228 77.9196 42.9005 77.8799 42.8608C77.8402 42.8211 77.8179 42.7672 77.8179 42.711V37.35C77.819 37.2942 77.8416 37.2409 77.8811 37.2015C77.9206 37.162 77.9738 37.1393 78.0296 37.1382H95.7516C95.8078 37.1382 95.8617 37.1605 95.9014 37.2003C95.9411 37.24 95.9634 37.2938 95.9634 37.35V42.7026C95.9645 42.7311 95.9599 42.7595 95.9498 42.7862C95.9396 42.8129 95.9242 42.8372 95.9044 42.8578C95.8847 42.8784 95.8609 42.8947 95.8347 42.9059C95.8084 42.9171 95.7802 42.9228 95.7516 42.9228ZM78.2414 42.4993H95.5399V37.5617H78.2414V42.4993Z" fill="#263238"/>
<path d="M100.469 41.1484C101.215 41.1484 101.82 40.5436 101.82 39.7976C101.82 39.0515 101.215 38.4467 100.469 38.4467C99.723 38.4467 99.1182 39.0515 99.1182 39.7976C99.1182 40.5436 99.723 41.1484 100.469 41.1484Z" fill="white"/>
<path d="M100.469 41.3602C100.16 41.3602 99.8579 41.2685 99.6009 41.0968C99.3439 40.9251 99.1437 40.6811 99.0254 40.3955C98.9071 40.11 98.8762 39.7958 98.9365 39.4927C98.9968 39.1896 99.1456 38.9112 99.3641 38.6927C99.5827 38.4741 99.8611 38.3253 100.164 38.265C100.467 38.2047 100.781 38.2357 101.067 38.3539C101.353 38.4722 101.597 38.6725 101.768 38.9294C101.94 39.1864 102.032 39.4885 102.032 39.7976C102.032 40.212 101.867 40.6094 101.574 40.9025C101.281 41.1955 100.883 41.3602 100.469 41.3602ZM100.469 38.6584C100.244 38.6584 100.024 38.7253 99.8362 38.8504C99.6488 38.9756 99.5028 39.1535 99.4166 39.3616C99.3304 39.5698 99.3079 39.7988 99.3518 40.0198C99.3958 40.2408 99.5042 40.4437 99.6636 40.603C99.8229 40.7624 100.026 40.8708 100.247 40.9148C100.468 40.9588 100.697 40.9362 100.905 40.85C101.113 40.7638 101.291 40.6178 101.416 40.4304C101.541 40.2431 101.608 40.0229 101.608 39.7976C101.607 39.4958 101.487 39.2067 101.273 38.9933C101.06 38.7799 100.771 38.6596 100.469 38.6584Z" fill="#263238"/>
<path d="M107.113 39.7976C107.113 39.5304 107.034 39.2692 106.886 39.0471C106.737 38.8249 106.526 38.6518 106.279 38.5495C106.032 38.4473 105.761 38.4205 105.499 38.4727C105.237 38.5248 104.996 38.6535 104.807 38.8424C104.618 39.0313 104.49 39.272 104.437 39.534C104.385 39.7961 104.412 40.0677 104.514 40.3145C104.617 40.5614 104.79 40.7723 105.012 40.9208C105.234 41.0692 105.495 41.1484 105.762 41.1484C106.121 41.1484 106.464 41.0061 106.718 40.7528C106.971 40.4994 107.113 40.1558 107.113 39.7976Z" fill="#E54F38"/>
<path d="M105.762 41.3602C105.453 41.3602 105.151 41.2685 104.894 41.0968C104.637 40.9251 104.437 40.6811 104.319 40.3955C104.2 40.11 104.17 39.7958 104.23 39.4927C104.29 39.1896 104.439 38.9112 104.657 38.6927C104.876 38.4741 105.154 38.3253 105.458 38.265C105.761 38.2047 106.075 38.2357 106.36 38.3539C106.646 38.4722 106.89 38.6725 107.062 38.9294C107.233 39.1864 107.325 39.4885 107.325 39.7976C107.325 40.212 107.16 40.6094 106.867 40.9025C106.574 41.1955 106.177 41.3602 105.762 41.3602ZM105.762 38.6584C105.537 38.6584 105.317 38.7253 105.129 38.8504C104.942 38.9756 104.796 39.1535 104.71 39.3616C104.624 39.5698 104.601 39.7988 104.645 40.0198C104.689 40.2408 104.798 40.4437 104.957 40.603C105.116 40.7624 105.319 40.8708 105.54 40.9148C105.761 40.9588 105.99 40.9362 106.198 40.85C106.406 40.7638 106.584 40.6178 106.71 40.4304C106.835 40.2431 106.901 40.0229 106.901 39.7976C106.901 39.648 106.872 39.4999 106.815 39.3616C106.758 39.2234 106.674 39.0979 106.568 38.9921C106.462 38.8863 106.336 38.8024 106.198 38.7452C106.06 38.6879 105.912 38.6584 105.762 38.6584Z" fill="#263238"/>
<path d="M92.5884 41.1484C93.3344 41.1484 93.9392 40.5436 93.9392 39.7976C93.9392 39.0515 93.3344 38.4467 92.5884 38.4467C91.8423 38.4467 91.2375 39.0515 91.2375 39.7976C91.2375 40.5436 91.8423 41.1484 92.5884 41.1484Z" fill="white"/>
<path d="M92.5883 41.3602C92.2793 41.3602 91.9772 41.2685 91.7202 41.0968C91.4633 40.9251 91.263 40.6811 91.1447 40.3955C91.0264 40.11 90.9955 39.7958 91.0558 39.4927C91.1161 39.1896 91.2649 38.9112 91.4834 38.6927C91.702 38.4741 91.9804 38.3253 92.2835 38.265C92.5866 38.2047 92.9008 38.2357 93.1863 38.3539C93.4718 38.4722 93.7159 38.6725 93.8876 38.9294C94.0593 39.1864 94.1509 39.4885 94.1509 39.7976C94.1509 40.212 93.9863 40.6094 93.6933 40.9025C93.4002 41.1955 93.0028 41.3602 92.5883 41.3602ZM92.5883 38.6584C92.363 38.6584 92.1428 38.7253 91.9555 38.8504C91.7682 38.9756 91.6222 39.1535 91.5359 39.3616C91.4497 39.5698 91.4272 39.7988 91.4711 40.0198C91.5151 40.2408 91.6236 40.4437 91.7829 40.603C91.9422 40.7624 92.1451 40.8708 92.3661 40.9148C92.5871 40.9588 92.8161 40.9362 93.0243 40.85C93.2324 40.7638 93.4103 40.6178 93.5355 40.4304C93.6607 40.2431 93.7275 40.0229 93.7275 39.7976C93.7263 39.4958 93.606 39.2067 93.3926 38.9933C93.1792 38.7799 92.8901 38.6596 92.5883 38.6584Z" fill="#263238"/>
<path d="M107.113 75.3475H60.405V79.0951H107.113V75.3475Z" fill="white"/>
<path d="M107.325 79.3111H60.1933V75.1357H107.325V79.3111ZM60.6168 78.8876H106.901V75.5592H60.6168V78.8876Z" fill="#263238"/>
<path d="M109.032 79.0994H58.4867V90.0459H109.032V79.0994Z" fill="white"/>
<path d="M109.243 90.2577H58.275V78.8877H109.243V90.2577ZM58.6985 89.8343H108.82V79.3112H58.6985V89.8343Z" fill="#263238"/>
<path d="M67.6421 81.89H64.754V87.2511H67.6421V81.89Z" fill="#E54F38"/>
<path d="M67.642 87.467H64.754C64.6982 87.466 64.645 87.4433 64.6055 87.4038C64.566 87.3644 64.5434 87.3111 64.5423 87.2553V81.89C64.5434 81.8342 64.566 81.781 64.6055 81.7415C64.645 81.702 64.6982 81.6794 64.754 81.6783H67.642C67.6982 81.6783 67.7521 81.7006 67.7918 81.7403C67.8315 81.78 67.8538 81.8339 67.8538 81.89V87.2553C67.8538 87.3115 67.8315 87.3653 67.7918 87.405C67.7521 87.4447 67.6982 87.467 67.642 87.467ZM64.9657 87.0436H67.4303V82.0848H64.9657V87.0436Z" fill="#263238"/>
<path d="M76.4925 81.89H73.6044V87.2511H76.4925V81.89Z" fill="#E54F38"/>
<path d="M76.4925 87.467H73.6087C73.5525 87.467 73.4986 87.4447 73.4589 87.405C73.4192 87.3653 73.3969 87.3115 73.3969 87.2553V81.89C73.3969 81.8339 73.4192 81.78 73.4589 81.7403C73.4986 81.7006 73.5525 81.6783 73.6087 81.6783H76.4925C76.5486 81.6783 76.6025 81.7006 76.6422 81.7403C76.6819 81.78 76.7042 81.8339 76.7042 81.89V87.2553C76.7042 87.3115 76.6819 87.3653 76.6422 87.405C76.6025 87.4447 76.5486 87.467 76.4925 87.467ZM73.8204 87.0436H76.2807V82.0848H73.8204V87.0436Z" fill="#263238"/>
<path d="M72.0673 81.89H69.1792V87.2511H72.0673V81.89Z" fill="#E54F38"/>
<path d="M72.0672 87.467H69.1792C69.1234 87.466 69.0702 87.4433 69.0307 87.4038C68.9912 87.3644 68.9686 87.3111 68.9675 87.2553V81.89C68.9686 81.8342 68.9912 81.781 69.0307 81.7415C69.0702 81.702 69.1234 81.6794 69.1792 81.6783H72.0672C72.1234 81.6783 72.1772 81.7006 72.217 81.7403C72.2567 81.78 72.279 81.8339 72.279 81.89V87.2553C72.279 87.3115 72.2567 87.3653 72.217 87.405C72.1772 87.4447 72.1234 87.467 72.0672 87.467ZM69.3909 87.0436H71.8555V82.0848H69.3909V87.0436Z" fill="#263238"/>
<path d="M63.2168 81.89H60.9174V87.2511H63.2168V81.89Z" fill="#E54F38"/>
<path d="M63.2168 87.467H60.9174C60.8613 87.467 60.8074 87.4447 60.7677 87.405C60.728 87.3653 60.7057 87.3115 60.7057 87.2553V81.89C60.7057 81.8339 60.728 81.78 60.7677 81.7403C60.8074 81.7006 60.8613 81.6783 60.9174 81.6783H63.2168C63.273 81.6783 63.3268 81.7006 63.3666 81.7403C63.4063 81.78 63.4286 81.8339 63.4286 81.89V87.2553C63.4286 87.3115 63.4063 87.3653 63.3666 87.405C63.3268 87.4447 63.273 87.467 63.2168 87.467ZM61.1292 87.0436H63.0051V82.0848H61.1292V87.0436Z" fill="#263238"/>
<path d="M95.7516 81.89H78.0296V87.2511H95.7516V81.89Z" fill="#E54F38"/>
<path d="M95.7516 87.467H78.0296C77.9738 87.466 77.9206 87.4433 77.8811 87.4038C77.8416 87.3644 77.819 87.3111 77.8179 87.2553V81.89C77.819 81.8342 77.8416 81.781 77.8811 81.7415C77.9206 81.702 77.9738 81.6794 78.0296 81.6783H95.7516C95.8078 81.6783 95.8617 81.7006 95.9014 81.7403C95.9411 81.78 95.9634 81.8339 95.9634 81.89V87.2553C95.9634 87.3115 95.9411 87.3653 95.9014 87.405C95.8617 87.4447 95.8078 87.467 95.7516 87.467ZM78.2414 87.0436H95.5399V82.0848H78.2414V87.0436Z" fill="#263238"/>
<path d="M100.469 85.6885C101.215 85.6885 101.82 85.0837 101.82 84.3377C101.82 83.5916 101.215 82.9868 100.469 82.9868C99.723 82.9868 99.1182 83.5916 99.1182 84.3377C99.1182 85.0837 99.723 85.6885 100.469 85.6885Z" fill="#E54F38"/>
<path d="M100.469 85.896C100.16 85.896 99.8579 85.8043 99.6009 85.6326C99.3439 85.4609 99.1437 85.2169 99.0254 84.9314C98.9071 84.6459 98.8762 84.3317 98.9365 84.0286C98.9968 83.7254 99.1456 83.447 99.3641 83.2285C99.5827 83.01 99.8611 82.8611 100.164 82.8008C100.467 82.7405 100.781 82.7715 101.067 82.8898C101.353 83.008 101.597 83.2083 101.768 83.4653C101.94 83.7222 102.032 84.0244 102.032 84.3334C102.032 84.7478 101.867 85.1453 101.574 85.4383C101.281 85.7314 100.883 85.896 100.469 85.896ZM100.469 83.1943C100.244 83.1943 100.024 83.2611 99.8362 83.3863C99.6488 83.5114 99.5028 83.6893 99.4166 83.8975C99.3304 84.1056 99.3079 84.3347 99.3518 84.5556C99.3958 84.7766 99.5042 84.9796 99.6636 85.1389C99.8229 85.2982 100.026 85.4067 100.247 85.4506C100.468 85.4946 100.697 85.472 100.905 85.3858C101.113 85.2996 101.291 85.1536 101.416 84.9663C101.541 84.7789 101.608 84.5587 101.608 84.3334C101.606 84.0324 101.485 83.7444 101.272 83.5319C101.059 83.3194 100.77 83.1996 100.469 83.1985V83.1943Z" fill="#263238"/>
<path d="M107.113 84.3377C107.113 84.0705 107.034 83.8093 106.886 83.5872C106.737 83.365 106.526 83.1919 106.279 83.0897C106.032 82.9874 105.761 82.9606 105.499 83.0128C105.237 83.0649 104.996 83.1936 104.807 83.3825C104.618 83.5714 104.49 83.8121 104.437 84.0741C104.385 84.3362 104.412 84.6078 104.514 84.8546C104.617 85.1015 104.79 85.3124 105.012 85.4609C105.234 85.6093 105.495 85.6885 105.762 85.6885C106.121 85.6885 106.464 85.5462 106.718 85.2929C106.971 85.0395 107.113 84.6959 107.113 84.3377Z" fill="white"/>
<path d="M105.762 85.896C105.453 85.896 105.151 85.8043 104.894 85.6326C104.637 85.4609 104.437 85.2169 104.319 84.9314C104.2 84.6459 104.17 84.3317 104.23 84.0286C104.29 83.7254 104.439 83.447 104.657 83.2285C104.876 83.01 105.154 82.8611 105.458 82.8008C105.761 82.7405 106.075 82.7715 106.36 82.8898C106.646 83.008 106.89 83.2083 107.062 83.4653C107.233 83.7222 107.325 84.0244 107.325 84.3334C107.325 84.7478 107.16 85.1453 106.867 85.4383C106.574 85.7314 106.177 85.896 105.762 85.896ZM105.762 83.1943C105.537 83.1943 105.317 83.2611 105.129 83.3863C104.942 83.5114 104.796 83.6893 104.71 83.8975C104.624 84.1056 104.601 84.3347 104.645 84.5556C104.689 84.7766 104.798 84.9796 104.957 85.1389C105.116 85.2982 105.319 85.4067 105.54 85.4506C105.761 85.4946 105.99 85.472 106.198 85.3858C106.406 85.2996 106.584 85.1536 106.71 84.9663C106.835 84.7789 106.901 84.5587 106.901 84.3334C106.9 84.032 106.78 83.7434 106.566 83.5307C106.353 83.3179 106.064 83.1985 105.762 83.1985V83.1943Z" fill="#263238"/>
<path d="M92.5884 85.6885C93.3344 85.6885 93.9392 85.0837 93.9392 84.3377C93.9392 83.5916 93.3344 82.9868 92.5884 82.9868C91.8423 82.9868 91.2375 83.5916 91.2375 84.3377C91.2375 85.0837 91.8423 85.6885 92.5884 85.6885Z" fill="white"/>
<path d="M92.5883 85.896C92.2793 85.896 91.9772 85.8043 91.7202 85.6326C91.4633 85.4609 91.263 85.2169 91.1447 84.9314C91.0264 84.6459 90.9955 84.3317 91.0558 84.0286C91.1161 83.7254 91.2649 83.447 91.4834 83.2285C91.702 83.01 91.9804 82.8611 92.2835 82.8008C92.5866 82.7405 92.9008 82.7715 93.1863 82.8898C93.4718 83.008 93.7159 83.2083 93.8876 83.4653C94.0593 83.7222 94.1509 84.0244 94.1509 84.3334C94.1509 84.7478 93.9863 85.1453 93.6933 85.4383C93.4002 85.7314 93.0028 85.896 92.5883 85.896ZM92.5883 83.1943C92.363 83.1943 92.1428 83.2611 91.9555 83.3863C91.7682 83.5114 91.6222 83.6893 91.5359 83.8975C91.4497 84.1056 91.4272 84.3347 91.4711 84.5556C91.5151 84.7766 91.6236 84.9796 91.7829 85.1389C91.9422 85.2982 92.1451 85.4067 92.3661 85.4506C92.5871 85.4946 92.8161 85.472 93.0243 85.3858C93.2324 85.2996 93.4103 85.1536 93.5355 84.9663C93.6607 84.7789 93.7275 84.5587 93.7275 84.3334C93.7252 84.0324 93.6044 83.7444 93.3911 83.5319C93.1778 83.3194 92.8894 83.1996 92.5883 83.1985V83.1943Z" fill="#263238"/>
<path d="M107.113 90.046H60.405V93.7937H107.113V90.046Z" fill="white"/>
<path d="M107.325 94.0054H60.1933V89.8342H107.325V94.0054ZM60.6168 93.5819H106.901V90.2577H60.6168V93.5819Z" fill="#263238"/>
<path d="M109.032 93.7936H58.4867V104.74H109.032V93.7936Z" fill="white"/>
<path d="M109.243 104.952H58.275V93.5819H109.243V104.952ZM58.6985 104.528H108.82V94.0054H58.6985V104.528Z" fill="#263238"/>
<path d="M72.0673 96.5884H69.1792V101.95H72.0673V96.5884Z" fill="#E54F38"/>
<path d="M72.0672 102.161H69.1792C69.1231 102.161 69.0692 102.139 69.0295 102.099C68.9898 102.06 68.9675 102.006 68.9675 101.95V96.5884C68.9675 96.5323 68.9898 96.4784 69.0295 96.4387C69.0692 96.399 69.1231 96.3767 69.1792 96.3767H72.0672C72.1234 96.3767 72.1772 96.399 72.217 96.4387C72.2567 96.4784 72.279 96.5323 72.279 96.5884V101.95C72.279 102.006 72.2567 102.06 72.217 102.099C72.1772 102.139 72.1234 102.161 72.0672 102.161ZM69.3909 101.738H71.8555V96.8002H69.3909V101.738Z" fill="#263238"/>
<path d="M76.4925 96.5884H73.6044V101.95H76.4925V96.5884Z" fill="#E54F38"/>
<path d="M76.4925 102.161H73.6087C73.5525 102.161 73.4986 102.139 73.4589 102.099C73.4192 102.06 73.3969 102.006 73.3969 101.95V96.5884C73.3969 96.5323 73.4192 96.4784 73.4589 96.4387C73.4986 96.399 73.5525 96.3767 73.6087 96.3767H76.4925C76.5486 96.3767 76.6025 96.399 76.6422 96.4387C76.6819 96.4784 76.7042 96.5323 76.7042 96.5884V101.95C76.7042 102.006 76.6819 102.06 76.6422 102.099C76.6025 102.139 76.5486 102.161 76.4925 102.161ZM73.8204 101.738H76.2807V96.8002H73.8204V101.738Z" fill="#263238"/>
<path d="M67.6421 96.5884H64.754V101.95H67.6421V96.5884Z" fill="#E54F38"/>
<path d="M67.642 102.161H64.754C64.6979 102.161 64.644 102.139 64.6043 102.099C64.5646 102.06 64.5423 102.006 64.5423 101.95V96.5884C64.5423 96.5323 64.5646 96.4784 64.6043 96.4387C64.644 96.399 64.6979 96.3767 64.754 96.3767H67.642C67.6982 96.3767 67.7521 96.399 67.7918 96.4387C67.8315 96.4784 67.8538 96.5323 67.8538 96.5884V101.95C67.8538 102.006 67.8315 102.06 67.7918 102.099C67.7521 102.139 67.6982 102.161 67.642 102.161ZM64.9657 101.738H67.4303V96.8002H64.9657V101.738Z" fill="#263238"/>
<path d="M95.7516 96.5884H78.0296V101.95H95.7516V96.5884Z" fill="#E54F38"/>
<path d="M95.7516 102.161H78.0296C77.9735 102.161 77.9196 102.139 77.8799 102.099C77.8402 102.06 77.8179 102.006 77.8179 101.95V96.5884C77.8179 96.5323 77.8402 96.4784 77.8799 96.4387C77.9196 96.399 77.9735 96.3767 78.0296 96.3767H95.7516C95.8078 96.3767 95.8617 96.399 95.9014 96.4387C95.9411 96.4784 95.9634 96.5323 95.9634 96.5884V101.95C95.9634 102.006 95.9411 102.06 95.9014 102.099C95.8617 102.139 95.8078 102.161 95.7516 102.161ZM78.2414 101.738H95.5399V96.8002H78.2414V101.738Z" fill="#263238"/>
<path d="M63.2168 96.5884H60.9174V101.95H63.2168V96.5884Z" fill="#E54F38"/>
<path d="M63.2168 102.161H60.9174C60.8613 102.161 60.8074 102.139 60.7677 102.099C60.728 102.06 60.7057 102.006 60.7057 101.95V96.5884C60.7057 96.5323 60.728 96.4784 60.7677 96.4387C60.8074 96.399 60.8613 96.3767 60.9174 96.3767H63.2168C63.273 96.3767 63.3268 96.399 63.3666 96.4387C63.4063 96.4784 63.4286 96.5323 63.4286 96.5884V101.95C63.4286 102.006 63.4063 102.06 63.3666 102.099C63.3268 102.139 63.273 102.161 63.2168 102.161ZM61.1292 101.738H63.0051V96.8002H61.1292V101.738Z" fill="#263238"/>
<path d="M100.469 100.387C101.215 100.387 101.82 99.7822 101.82 99.0361C101.82 98.29 101.215 97.6852 100.469 97.6852C99.723 97.6852 99.1182 98.29 99.1182 99.0361C99.1182 99.7822 99.723 100.387 100.469 100.387Z" fill="white"/>
<path d="M100.469 100.599C100.16 100.599 99.8579 100.507 99.6009 100.335C99.3439 100.164 99.1437 99.9196 99.0254 99.6341C98.9071 99.3486 98.8762 99.0344 98.9365 98.7313C98.9968 98.4281 99.1456 98.1497 99.3641 97.9312C99.5827 97.7127 99.8611 97.5638 100.164 97.5035C100.467 97.4432 100.781 97.4742 101.067 97.5925C101.353 97.7107 101.597 97.911 101.768 98.168C101.94 98.4249 102.032 98.7271 102.032 99.0361C102.031 99.4502 101.866 99.847 101.573 100.14C101.28 100.433 100.883 100.598 100.469 100.599ZM100.469 97.897C100.244 97.897 100.024 97.9638 99.8362 98.089C99.6488 98.2141 99.5028 98.392 99.4166 98.6002C99.3304 98.8083 99.3079 99.0374 99.3518 99.2583C99.3958 99.4793 99.5042 99.6823 99.6636 99.8416C99.8229 100.001 100.026 100.109 100.247 100.153C100.468 100.197 100.697 100.175 100.905 100.089C101.113 100.002 101.291 99.8563 101.416 99.669C101.541 99.4816 101.608 99.2614 101.608 99.0361C101.607 98.7343 101.487 98.4452 101.273 98.2319C101.06 98.0185 100.771 97.8981 100.469 97.897Z" fill="#263238"/>
<path d="M107.113 99.0235C107.113 98.7563 107.034 98.4951 106.886 98.273C106.737 98.0508 106.526 97.8777 106.279 97.7754C106.032 97.6732 105.761 97.6464 105.499 97.6986C105.237 97.7507 104.996 97.8793 104.807 98.0683C104.618 98.2572 104.49 98.4979 104.437 98.7599C104.385 99.022 104.412 99.2936 104.514 99.5404C104.617 99.7872 104.79 99.9982 105.012 100.147C105.234 100.295 105.495 100.374 105.762 100.374C106.121 100.374 106.464 100.232 106.718 99.9787C106.971 99.7253 107.113 99.3817 107.113 99.0235Z" fill="#E54F38"/>
<path d="M105.762 100.599C105.453 100.599 105.151 100.507 104.894 100.335C104.637 100.164 104.437 99.9196 104.319 99.6341C104.2 99.3486 104.17 99.0344 104.23 98.7313C104.29 98.4281 104.439 98.1497 104.657 97.9312C104.876 97.7127 105.154 97.5638 105.458 97.5035C105.761 97.4432 106.075 97.4742 106.36 97.5925C106.646 97.7107 106.89 97.911 107.062 98.168C107.233 98.4249 107.325 98.7271 107.325 99.0361C107.325 99.4505 107.16 99.848 106.867 100.141C106.574 100.434 106.177 100.599 105.762 100.599ZM105.762 97.897C105.537 97.897 105.317 97.9638 105.129 98.089C104.942 98.2141 104.796 98.392 104.71 98.6002C104.624 98.8083 104.601 99.0374 104.645 99.2583C104.689 99.4793 104.798 99.6823 104.957 99.8416C105.116 100.001 105.319 100.109 105.54 100.153C105.761 100.197 105.99 100.175 106.198 100.089C106.406 100.002 106.584 99.8563 106.71 99.669C106.835 99.4816 106.901 99.2614 106.901 99.0361C106.901 98.734 106.781 98.4442 106.568 98.2306C106.354 98.017 106.064 97.897 105.762 97.897Z" fill="#263238"/>
<path d="M92.5884 100.387C93.3344 100.387 93.9392 99.7822 93.9392 99.0361C93.9392 98.29 93.3344 97.6852 92.5884 97.6852C91.8423 97.6852 91.2375 98.29 91.2375 99.0361C91.2375 99.7822 91.8423 100.387 92.5884 100.387Z" fill="white"/>
<path d="M92.5883 100.599C92.2793 100.599 91.9772 100.507 91.7202 100.335C91.4633 100.164 91.263 99.9196 91.1447 99.6341C91.0264 99.3486 90.9955 99.0344 91.0558 98.7313C91.1161 98.4281 91.2649 98.1497 91.4834 97.9312C91.702 97.7127 91.9804 97.5638 92.2835 97.5035C92.5866 97.4432 92.9008 97.4742 93.1863 97.5925C93.4718 97.7107 93.7159 97.911 93.8876 98.168C94.0593 98.4249 94.1509 98.7271 94.1509 99.0361C94.1498 99.4502 93.9848 99.847 93.692 100.14C93.3992 100.433 93.0024 100.598 92.5883 100.599ZM92.5883 97.897C92.363 97.897 92.1428 97.9638 91.9555 98.089C91.7682 98.2141 91.6222 98.392 91.5359 98.6002C91.4497 98.8083 91.4272 99.0374 91.4711 99.2583C91.5151 99.4793 91.6236 99.6823 91.7829 99.8416C91.9422 100.001 92.1451 100.109 92.3661 100.153C92.5871 100.197 92.8161 100.175 93.0243 100.089C93.2324 100.002 93.4103 99.8563 93.5355 99.669C93.6607 99.4816 93.7275 99.2614 93.7275 99.0361C93.7263 98.7343 93.606 98.4452 93.3926 98.2319C93.1792 98.0185 92.8901 97.8981 92.5883 97.897Z" fill="#263238"/>
<path d="M107.113 104.744H60.405V108.492H107.113V104.744Z" fill="white"/>
<path d="M107.325 108.704H60.1933V104.528H107.325V108.704ZM60.6168 108.28H106.901V104.952H60.6168V108.28Z" fill="#263238"/>
<path d="M109.032 108.492H58.4867V119.439H109.032V108.492Z" fill="white"/>
<path d="M109.243 119.65H58.275V108.28H109.243V119.65ZM58.6985 119.227H108.82V108.704H58.6985V119.227Z" fill="#263238"/>
<path d="M76.4925 111.283H73.6044V116.644H76.4925V111.283Z" fill="#E54F38"/>
<path d="M76.4925 116.86H73.6087C73.5525 116.86 73.4986 116.837 73.4589 116.798C73.4192 116.758 73.3969 116.704 73.3969 116.648V111.304C73.3969 111.248 73.4192 111.194 73.4589 111.154C73.4986 111.114 73.5525 111.092 73.6087 111.092H76.4925C76.5486 111.092 76.6025 111.114 76.6422 111.154C76.6819 111.194 76.7042 111.248 76.7042 111.304V116.665C76.6999 116.718 76.6757 116.768 76.6365 116.804C76.5972 116.84 76.5458 116.86 76.4925 116.86ZM73.8204 116.436H76.2807V111.499H73.8204V116.436Z" fill="#263238"/>
<path d="M67.6421 111.283H64.754V116.644H67.6421V111.283Z" fill="#E54F38"/>
<path d="M67.642 116.86H64.754C64.6982 116.859 64.645 116.836 64.6055 116.797C64.566 116.757 64.5434 116.704 64.5423 116.648V111.304C64.5423 111.248 64.5646 111.194 64.6043 111.154C64.644 111.114 64.6979 111.092 64.754 111.092H67.642C67.6982 111.092 67.7521 111.114 67.7918 111.154C67.8315 111.194 67.8538 111.248 67.8538 111.304V116.665C67.8495 116.718 67.8253 116.768 67.7861 116.804C67.7468 116.84 67.6954 116.86 67.642 116.86ZM64.9657 116.436H67.4303V111.499H64.9657V116.436Z" fill="#263238"/>
<path d="M72.0673 111.283H69.1792V116.644H72.0673V111.283Z" fill="#E54F38"/>
<path d="M72.0672 116.86H69.1792C69.1234 116.859 69.0702 116.836 69.0307 116.797C68.9912 116.757 68.9686 116.704 68.9675 116.648V111.304C68.9675 111.248 68.9898 111.194 69.0295 111.154C69.0692 111.114 69.1231 111.092 69.1792 111.092H72.0672C72.1234 111.092 72.1772 111.114 72.217 111.154C72.2567 111.194 72.279 111.248 72.279 111.304V116.665C72.2747 116.718 72.2505 116.768 72.2113 116.804C72.172 116.84 72.1206 116.86 72.0672 116.86ZM69.3909 116.436H71.8555V111.499H69.3909V116.436Z" fill="#263238"/>
<path d="M63.2168 111.283H60.9174V116.644H63.2168V111.283Z" fill="#E54F38"/>
<path d="M63.2168 116.86H60.9174C60.8613 116.86 60.8074 116.837 60.7677 116.798C60.728 116.758 60.7057 116.704 60.7057 116.648V111.304C60.7057 111.248 60.728 111.194 60.7677 111.154C60.8074 111.114 60.8613 111.092 60.9174 111.092H63.2168C63.273 111.092 63.3268 111.114 63.3666 111.154C63.4063 111.194 63.4286 111.248 63.4286 111.304V116.665C63.4243 116.718 63.4001 116.768 63.3609 116.804C63.3216 116.84 63.2702 116.86 63.2168 116.86ZM61.1292 116.436H63.0051V111.499H61.1292V116.436Z" fill="#263238"/>
<path d="M95.7516 111.283H78.0296V116.644H95.7516V111.283Z" fill="#E54F38"/>
<path d="M95.7516 116.86H78.0296C77.9738 116.859 77.9206 116.836 77.8811 116.797C77.8416 116.757 77.819 116.704 77.8179 116.648V111.304C77.8179 111.248 77.8402 111.194 77.8799 111.154C77.9196 111.114 77.9735 111.092 78.0296 111.092H95.7516C95.8078 111.092 95.8617 111.114 95.9014 111.154C95.9411 111.194 95.9634 111.248 95.9634 111.304V116.665C95.9591 116.718 95.9349 116.768 95.8957 116.804C95.8564 116.84 95.805 116.86 95.7516 116.86ZM78.2414 116.436H95.5399V111.499H78.2414V116.436Z" fill="#263238"/>
<path d="M100.469 115.081C101.215 115.081 101.82 114.476 101.82 113.73C101.82 112.984 101.215 112.38 100.469 112.38C99.723 112.38 99.1182 112.984 99.1182 113.73C99.1182 114.476 99.723 115.081 100.469 115.081Z" fill="#E54F38"/>
<path d="M100.469 115.293C100.16 115.293 99.8579 115.201 99.6009 115.03C99.3439 114.858 99.1437 114.614 99.0254 114.328C98.9071 114.043 98.8762 113.729 98.9365 113.426C98.9968 113.122 99.1456 112.844 99.3641 112.625C99.5827 112.407 99.8611 112.258 100.164 112.198C100.467 112.138 100.781 112.168 101.067 112.287C101.353 112.405 101.597 112.605 101.768 112.862C101.94 113.119 102.032 113.421 102.032 113.73C102.032 114.145 101.867 114.542 101.574 114.835C101.281 115.128 100.883 115.293 100.469 115.293ZM100.469 112.591C100.244 112.591 100.024 112.658 99.8362 112.783C99.6488 112.908 99.5028 113.086 99.4166 113.294C99.3304 113.503 99.3079 113.732 99.3518 113.953C99.3958 114.174 99.5042 114.377 99.6636 114.536C99.8229 114.695 100.026 114.804 100.247 114.848C100.468 114.892 100.697 114.869 100.905 114.783C101.113 114.697 101.291 114.551 101.416 114.363C101.541 114.176 101.608 113.956 101.608 113.73C101.61 113.58 101.582 113.43 101.525 113.29C101.469 113.15 101.385 113.023 101.279 112.915C101.173 112.808 101.047 112.722 100.908 112.664C100.769 112.605 100.62 112.575 100.469 112.574V112.591Z" fill="#263238"/>
<path d="M107.113 113.73C107.113 113.463 107.034 113.202 106.886 112.98C106.737 112.758 106.526 112.585 106.279 112.482C106.032 112.38 105.761 112.353 105.499 112.405C105.237 112.458 104.996 112.586 104.807 112.775C104.618 112.964 104.49 113.205 104.437 113.467C104.385 113.729 104.412 114 104.514 114.247C104.617 114.494 104.79 114.705 105.012 114.854C105.234 115.002 105.495 115.081 105.762 115.081C106.121 115.081 106.464 114.939 106.718 114.686C106.971 114.432 107.113 114.089 107.113 113.73Z" fill="white"/>
<path d="M105.762 115.293C105.453 115.293 105.151 115.201 104.894 115.03C104.637 114.858 104.437 114.614 104.319 114.328C104.2 114.043 104.17 113.729 104.23 113.426C104.29 113.122 104.439 112.844 104.657 112.625C104.876 112.407 105.154 112.258 105.458 112.198C105.761 112.138 106.075 112.168 106.36 112.287C106.646 112.405 106.89 112.605 107.062 112.862C107.233 113.119 107.325 113.421 107.325 113.73C107.325 114.145 107.16 114.542 106.867 114.835C106.574 115.128 106.177 115.293 105.762 115.293ZM105.762 112.591C105.537 112.591 105.317 112.658 105.129 112.783C104.942 112.908 104.796 113.086 104.71 113.294C104.624 113.503 104.601 113.732 104.645 113.953C104.689 114.174 104.798 114.377 104.957 114.536C105.116 114.695 105.319 114.804 105.54 114.848C105.761 114.892 105.99 114.869 106.198 114.783C106.406 114.697 106.584 114.551 106.71 114.363C106.835 114.176 106.901 113.956 106.901 113.73C106.904 113.579 106.876 113.429 106.82 113.289C106.763 113.149 106.68 113.021 106.574 112.914C106.468 112.806 106.342 112.721 106.202 112.663C106.063 112.604 105.913 112.574 105.762 112.574V112.591Z" fill="#263238"/>
<path d="M92.5884 115.081C93.3344 115.081 93.9392 114.476 93.9392 113.73C93.9392 112.984 93.3344 112.38 92.5884 112.38C91.8423 112.38 91.2375 112.984 91.2375 113.73C91.2375 114.476 91.8423 115.081 92.5884 115.081Z" fill="white"/>
<path d="M92.5883 115.293C92.2793 115.293 91.9772 115.201 91.7202 115.03C91.4633 114.858 91.263 114.614 91.1447 114.328C91.0264 114.043 90.9955 113.729 91.0558 113.426C91.1161 113.122 91.2649 112.844 91.4834 112.625C91.702 112.407 91.9804 112.258 92.2835 112.198C92.5866 112.138 92.9008 112.168 93.1863 112.287C93.4718 112.405 93.7159 112.605 93.8876 112.862C94.0593 113.119 94.1509 113.421 94.1509 113.73C94.1509 114.145 93.9863 114.542 93.6933 114.835C93.4002 115.128 93.0028 115.293 92.5883 115.293ZM92.5883 112.591C92.363 112.591 92.1428 112.658 91.9555 112.783C91.7682 112.908 91.6222 113.086 91.5359 113.294C91.4497 113.503 91.4272 113.732 91.4711 113.953C91.5151 114.174 91.6236 114.377 91.7829 114.536C91.9422 114.695 92.1451 114.804 92.3661 114.848C92.5871 114.892 92.8161 114.869 93.0243 114.783C93.2324 114.697 93.4103 114.551 93.5355 114.363C93.6607 114.176 93.7275 113.956 93.7275 113.73C93.7291 113.58 93.7009 113.43 93.6445 113.29C93.5881 113.15 93.5045 113.023 93.3986 112.915C93.2927 112.808 93.1666 112.722 93.0275 112.664C92.8885 112.605 92.7392 112.575 92.5883 112.574V112.591Z" fill="#263238"/>
<path d="M107.113 119.439H60.405V123.186H107.113V119.439Z" fill="white"/>
<path d="M107.325 123.402H60.1933V119.227H107.325V123.402ZM60.6168 122.979H106.901V119.65H60.6168V122.979Z" fill="white"/>
<path d="M109.032 123.191H58.4867V134.137H109.032V123.191Z" fill="white"/>
<path d="M109.243 134.349H58.275V122.979H109.243V134.349ZM58.6985 133.925H108.82V123.402H58.6985V133.925Z" fill="#263238"/>
<path d="M67.6421 125.981H64.754V131.342H67.6421V125.981Z" fill="#E54F38"/>
<path d="M67.642 131.554H64.754C64.6979 131.554 64.644 131.532 64.6043 131.492C64.5646 131.452 64.5423 131.398 64.5423 131.342V125.981C64.5423 125.925 64.5646 125.871 64.6043 125.831C64.644 125.792 64.6979 125.769 64.754 125.769H67.642C67.6982 125.769 67.7521 125.792 67.7918 125.831C67.8315 125.871 67.8538 125.925 67.8538 125.981V131.342C67.8538 131.398 67.8315 131.452 67.7918 131.492C67.7521 131.532 67.6982 131.554 67.642 131.554ZM64.9657 131.13H67.4303V126.193H64.9657V131.13Z" fill="#263238"/>
<path d="M72.0673 125.981H69.1792V131.342H72.0673V125.981Z" fill="#E54F38"/>
<path d="M72.0672 131.554H69.1792C69.1231 131.554 69.0692 131.532 69.0295 131.492C68.9898 131.452 68.9675 131.398 68.9675 131.342V125.981C68.9675 125.925 68.9898 125.871 69.0295 125.831C69.0692 125.792 69.1231 125.769 69.1792 125.769H72.0672C72.1234 125.769 72.1772 125.792 72.217 125.831C72.2567 125.871 72.279 125.925 72.279 125.981V131.342C72.279 131.398 72.2567 131.452 72.217 131.492C72.1772 131.532 72.1234 131.554 72.0672 131.554ZM69.3909 131.13H71.8555V126.193H69.3909V131.13Z" fill="#263238"/>
<path d="M76.4925 125.981H73.6044V131.342H76.4925V125.981Z" fill="#E54F38"/>
<path d="M76.4925 131.554H73.6087C73.5525 131.554 73.4986 131.532 73.4589 131.492C73.4192 131.452 73.3969 131.398 73.3969 131.342V125.981C73.3969 125.925 73.4192 125.871 73.4589 125.831C73.4986 125.792 73.5525 125.769 73.6087 125.769H76.4925C76.5486 125.769 76.6025 125.792 76.6422 125.831C76.6819 125.871 76.7042 125.925 76.7042 125.981V131.342C76.7042 131.398 76.6819 131.452 76.6422 131.492C76.6025 131.532 76.5486 131.554 76.4925 131.554ZM73.8204 131.13H76.2807V126.193H73.8204V131.13Z" fill="#263238"/>
<path d="M63.2168 125.981H60.9174V131.342H63.2168V125.981Z" fill="#E54F38"/>
<path d="M63.2168 131.554H60.9174C60.8613 131.554 60.8074 131.532 60.7677 131.492C60.728 131.452 60.7057 131.398 60.7057 131.342V125.981C60.7057 125.925 60.728 125.871 60.7677 125.831C60.8074 125.792 60.8613 125.769 60.9174 125.769H63.2168C63.273 125.769 63.3268 125.792 63.3666 125.831C63.4063 125.871 63.4286 125.925 63.4286 125.981V131.342C63.4286 131.398 63.4063 131.452 63.3666 131.492C63.3268 131.532 63.273 131.554 63.2168 131.554ZM61.1292 131.13H63.0051V126.193H61.1292V131.13Z" fill="#263238"/>
<path d="M95.7516 125.981H78.0296V131.342H95.7516V125.981Z" fill="#E54F38"/>
<path d="M95.7516 131.554H78.0296C77.9735 131.554 77.9196 131.532 77.8799 131.492C77.8402 131.452 77.8179 131.398 77.8179 131.342V125.981C77.8179 125.925 77.8402 125.871 77.8799 125.831C77.9196 125.792 77.9735 125.769 78.0296 125.769H95.7516C95.8078 125.769 95.8617 125.792 95.9014 125.831C95.9411 125.871 95.9634 125.925 95.9634 125.981V131.342C95.9634 131.398 95.9411 131.452 95.9014 131.492C95.8617 131.532 95.8078 131.554 95.7516 131.554ZM78.2414 131.13H95.5399V126.193H78.2414V131.13Z" fill="#263238"/>
<path d="M100.469 129.78C101.215 129.78 101.82 129.175 101.82 128.429C101.82 127.683 101.215 127.078 100.469 127.078C99.723 127.078 99.1182 127.683 99.1182 128.429C99.1182 129.175 99.723 129.78 100.469 129.78Z" fill="white"/>
<path d="M100.469 129.991C100.16 129.991 99.8579 129.9 99.6009 129.728C99.3439 129.556 99.1437 129.312 99.0254 129.027C98.9071 128.741 98.8762 128.427 98.9365 128.124C98.9968 127.821 99.1456 127.542 99.3641 127.324C99.5827 127.105 99.8611 126.957 100.164 126.896C100.467 126.836 100.781 126.867 101.067 126.985C101.353 127.103 101.597 127.304 101.768 127.561C101.94 127.818 102.032 128.12 102.032 128.429C102.032 128.843 101.867 129.241 101.574 129.534C101.281 129.827 100.883 129.991 100.469 129.991ZM100.469 127.29C100.244 127.29 100.024 127.356 99.8362 127.482C99.6488 127.607 99.5028 127.785 99.4166 127.993C99.3304 128.201 99.3079 128.43 99.3518 128.651C99.3958 128.872 99.5042 129.075 99.6636 129.234C99.8229 129.394 100.026 129.502 100.247 129.546C100.468 129.59 100.697 129.567 100.905 129.481C101.113 129.395 101.291 129.249 101.416 129.062C101.541 128.874 101.608 128.654 101.608 128.429C101.607 128.127 101.487 127.838 101.273 127.625C101.06 127.411 100.771 127.291 100.469 127.29Z" fill="#263238"/>
<path d="M107.113 128.429C107.113 128.162 107.034 127.9 106.886 127.678C106.737 127.456 106.526 127.283 106.279 127.181C106.032 127.079 105.761 127.052 105.499 127.104C105.237 127.156 104.996 127.285 104.807 127.474C104.618 127.663 104.49 127.903 104.437 128.165C104.385 128.427 104.412 128.699 104.514 128.946C104.617 129.193 104.79 129.404 105.012 129.552C105.234 129.7 105.495 129.78 105.762 129.78C106.121 129.78 106.464 129.637 106.718 129.384C106.971 129.131 107.113 128.787 107.113 128.429Z" fill="#E54F38"/>
<path d="M105.762 129.991C105.453 129.991 105.151 129.9 104.894 129.728C104.637 129.556 104.437 129.312 104.319 129.027C104.2 128.741 104.17 128.427 104.23 128.124C104.29 127.821 104.439 127.542 104.657 127.324C104.876 127.105 105.154 126.957 105.458 126.896C105.761 126.836 106.075 126.867 106.36 126.985C106.646 127.103 106.89 127.304 107.062 127.561C107.233 127.818 107.325 128.12 107.325 128.429C107.325 128.843 107.16 129.241 106.867 129.534C106.574 129.827 106.177 129.991 105.762 129.991ZM105.762 127.29C105.537 127.29 105.317 127.356 105.129 127.482C104.942 127.607 104.796 127.785 104.71 127.993C104.624 128.201 104.601 128.43 104.645 128.651C104.689 128.872 104.798 129.075 104.957 129.234C105.116 129.394 105.319 129.502 105.54 129.546C105.761 129.59 105.99 129.567 106.198 129.481C106.406 129.395 106.584 129.249 106.71 129.062C106.835 128.874 106.901 128.654 106.901 128.429C106.901 128.127 106.781 127.837 106.568 127.623C106.354 127.41 106.064 127.29 105.762 127.29Z" fill="#263238"/>
<path d="M92.5884 129.78C93.3344 129.78 93.9392 129.175 93.9392 128.429C93.9392 127.683 93.3344 127.078 92.5884 127.078C91.8423 127.078 91.2375 127.683 91.2375 128.429C91.2375 129.175 91.8423 129.78 92.5884 129.78Z" fill="white"/>
<path d="M92.5883 129.991C92.2793 129.991 91.9772 129.9 91.7202 129.728C91.4633 129.556 91.263 129.312 91.1447 129.027C91.0264 128.741 90.9955 128.427 91.0558 128.124C91.1161 127.821 91.2649 127.542 91.4834 127.324C91.702 127.105 91.9804 126.957 92.2835 126.896C92.5866 126.836 92.9008 126.867 93.1863 126.985C93.4718 127.103 93.7159 127.304 93.8876 127.561C94.0593 127.818 94.1509 128.12 94.1509 128.429C94.1509 128.843 93.9863 129.241 93.6933 129.534C93.4002 129.827 93.0028 129.991 92.5883 129.991ZM92.5883 127.29C92.363 127.29 92.1428 127.356 91.9555 127.482C91.7682 127.607 91.6222 127.785 91.5359 127.993C91.4497 128.201 91.4272 128.43 91.4711 128.651C91.5151 128.872 91.6236 129.075 91.7829 129.234C91.9422 129.394 92.1451 129.502 92.3661 129.546C92.5871 129.59 92.8161 129.567 93.0243 129.481C93.2324 129.395 93.4103 129.249 93.5355 129.062C93.6607 128.874 93.7275 128.654 93.7275 128.429C93.7263 128.127 93.606 127.838 93.3926 127.625C93.1792 127.411 92.8901 127.291 92.5883 127.29Z" fill="#263238"/>
<path d="M57.445 21.2117H44.2117V135.623H57.445V21.2117Z" fill="white"/>
<path d="M57.6567 135.831H44V21H57.6567V135.831ZM44.4235 135.408H57.2333V21.4235H44.4235V135.408Z" fill="#263238"/>
<path d="M55.4801 129.572H46.1639V23.8372H55.4801V129.572ZM46.5874 129.149H55.0567V24.2607H46.5874V129.149Z" fill="#263238"/>
<path d="M63.2211 29.9605C64.0303 29.9605 64.6863 29.3045 64.6863 28.4953C64.6863 27.6861 64.0303 27.0302 63.2211 27.0302C62.4119 27.0302 61.7559 27.6861 61.7559 28.4953C61.7559 29.3045 62.4119 29.9605 63.2211 29.9605Z" fill="white"/>
<path d="M68.489 29.9605C69.2982 29.9605 69.9541 29.3045 69.9541 28.4953C69.9541 27.6861 69.2982 27.0302 68.489 27.0302C67.6798 27.0302 67.0238 27.6861 67.0238 28.4953C67.0238 29.3045 67.6798 29.9605 68.489 29.9605Z" fill="#E54F38"/>
<path d="M68.489 30.1723C68.154 30.1723 67.8265 30.0729 67.5479 29.8868C67.2694 29.7007 67.0523 29.4361 66.9241 29.1266C66.7958 28.8171 66.7623 28.4765 66.8277 28.148C66.893 27.8194 67.0543 27.5176 67.2912 27.2807C67.5281 27.0438 67.8299 26.8825 68.1585 26.8171C68.4871 26.7517 68.8277 26.7853 69.1372 26.9135C69.4467 27.0417 69.7112 27.2588 69.8974 27.5373C70.0835 27.8159 70.1828 28.1434 70.1828 28.4784C70.1828 28.9276 70.0044 29.3585 69.6867 29.6761C69.3691 29.9938 68.9382 30.1723 68.489 30.1723ZM68.489 27.2461C68.2368 27.2462 67.9904 27.3212 67.781 27.4618C67.5717 27.6023 67.4089 27.802 67.3134 28.0354C67.2179 28.2687 67.194 28.5253 67.2448 28.7723C67.2955 29.0192 67.4186 29.2455 67.5984 29.4223C67.7782 29.5991 68.0066 29.7184 68.2544 29.765C68.5022 29.8116 68.7583 29.7834 68.99 29.684C69.2217 29.5846 69.4186 29.4185 69.5556 29.2068C69.6927 28.9951 69.7636 28.7475 69.7594 28.4953C69.7594 28.3295 69.7264 28.1653 69.6623 28.0123C69.5982 27.8594 69.5043 27.7207 69.386 27.6044C69.2678 27.4882 69.1276 27.3966 68.9735 27.3351C68.8195 27.2735 68.6548 27.2433 68.489 27.2461Z" fill="#263238"/>
</svg>
