<svg width="218" height="157" viewBox="0 0 218 157" fill="none" xmlns="http://www.w3.org/2000/svg">
<path d="M136.322 35.5258H77.0132C75.3362 35.5258 73.9767 36.8877 73.9767 38.5678V97.985C73.9767 99.6651 75.3362 101.027 77.0132 101.027H136.322C137.999 101.027 139.358 99.6651 139.358 97.985V38.5678C139.358 36.8877 137.999 35.5258 136.322 35.5258Z" fill="#263238"/>
<mask id="mask0_38_8149" style="mask-type:luminance" maskUnits="userSpaceOnUse" x="73" y="35" width="67" height="67">
<path d="M136.322 35.5258H77.0132C75.3362 35.5258 73.9767 36.8877 73.9767 38.5678V97.985C73.9767 99.6651 75.3362 101.027 77.0132 101.027H136.322C137.999 101.027 139.358 99.6651 139.358 97.985V38.5678C139.358 36.8877 137.999 35.5258 136.322 35.5258Z" fill="white"/>
</mask>
<g mask="url(#mask0_38_8149)">
<path opacity="0.8" d="M136.322 35.5258H77.0132C75.3362 35.5258 73.9767 36.8877 73.9767 38.5678V97.985C73.9767 99.6651 75.3362 101.027 77.0132 101.027H136.322C137.999 101.027 139.358 99.6651 139.358 97.985V38.5678C139.358 36.8877 137.999 35.5258 136.322 35.5258Z" fill="white"/>
</g>
<path d="M136.322 35.5258H77.0132C75.3362 35.5258 73.9767 36.8877 73.9767 38.5678V97.985C73.9767 99.6651 75.3362 101.027 77.0132 101.027H136.322C137.999 101.027 139.358 99.6651 139.358 97.985V38.5678C139.358 36.8877 137.999 35.5258 136.322 35.5258Z" stroke="#263238" stroke-width="0.75" stroke-linecap="round" stroke-linejoin="round"/>
<path d="M134.687 43.3944H78.6482C76.9712 43.3944 75.6118 44.7564 75.6118 46.4364V96.3471C75.6118 98.0271 76.9712 99.3891 78.6482 99.3891H134.687C136.364 99.3891 137.723 98.0271 137.723 96.3471V46.4364C137.723 44.7564 136.364 43.3944 134.687 43.3944Z" fill="white"/>
<path d="M134.687 43.3944H78.6482C76.9712 43.3944 75.6118 44.7564 75.6118 46.4364V96.3471C75.6118 98.0271 76.9712 99.3891 78.6482 99.3891H134.687C136.364 99.3891 137.723 98.0271 137.723 96.3471V46.4364C137.723 44.7564 136.364 43.3944 134.687 43.3944Z" stroke="#263238" stroke-width="0.75" stroke-linecap="round" stroke-linejoin="round"/>
<path d="M137.072 38.0249H134.771C134.411 38.0249 134.12 38.3168 134.12 38.677V40.9827C134.12 41.3428 134.411 41.6347 134.771 41.6347H137.072C137.432 41.6347 137.723 41.3428 137.723 40.9827V38.677C137.723 38.3168 137.432 38.0249 137.072 38.0249Z" fill="#E54F38"/>
<mask id="mask1_38_8149" style="mask-type:luminance" maskUnits="userSpaceOnUse" x="134" y="38" width="4" height="4">
<path d="M137.072 38.0249H134.771C134.411 38.0249 134.12 38.3168 134.12 38.677V40.9827C134.12 41.3428 134.411 41.6347 134.771 41.6347H137.072C137.432 41.6347 137.723 41.3428 137.723 40.9827V38.677C137.723 38.3168 137.432 38.0249 137.072 38.0249Z" fill="white"/>
</mask>
<g mask="url(#mask1_38_8149)">
<path opacity="0.3" d="M137.072 38.0249H134.771C134.411 38.0249 134.12 38.3168 134.12 38.677V40.9827C134.12 41.3428 134.411 41.6347 134.771 41.6347H137.072C137.432 41.6347 137.723 41.3428 137.723 40.9827V38.677C137.723 38.3168 137.432 38.0249 137.072 38.0249Z" fill="black"/>
</g>
<path d="M137.072 38.0249H134.771C134.411 38.0249 134.12 38.3168 134.12 38.677V40.9827C134.12 41.3428 134.411 41.6347 134.771 41.6347H137.072C137.432 41.6347 137.723 41.3428 137.723 40.9827V38.677C137.723 38.3168 137.432 38.0249 137.072 38.0249Z" stroke="#263238" stroke-width="0.75" stroke-linecap="round" stroke-linejoin="round"/>
<path d="M132.637 38.0249H130.336C129.977 38.0249 129.685 38.3168 129.685 38.677V40.9827C129.685 41.3428 129.977 41.6347 130.336 41.6347H132.637C132.997 41.6347 133.288 41.3428 133.288 40.9827V38.677C133.288 38.3168 132.997 38.0249 132.637 38.0249Z" fill="#E54F38" stroke="#263238" stroke-width="0.75" stroke-linecap="round" stroke-linejoin="round"/>
<path d="M128.2 38.0249H125.898C125.539 38.0249 125.247 38.3168 125.247 38.677V40.9827C125.247 41.3428 125.539 41.6347 125.898 41.6347H128.2C128.559 41.6347 128.85 41.3428 128.85 40.9827V38.677C128.85 38.3168 128.559 38.0249 128.2 38.0249Z" fill="#E54F38"/>
<mask id="mask2_38_8149" style="mask-type:luminance" maskUnits="userSpaceOnUse" x="125" y="38" width="4" height="4">
<path d="M128.2 38.0249H125.898C125.539 38.0249 125.247 38.3168 125.247 38.677V40.9827C125.247 41.3428 125.539 41.6347 125.898 41.6347H128.2C128.559 41.6347 128.85 41.3428 128.85 40.9827V38.677C128.85 38.3168 128.559 38.0249 128.2 38.0249Z" fill="white"/>
</mask>
<g mask="url(#mask2_38_8149)">
<path opacity="0.7" d="M128.2 38.0249H125.898C125.539 38.0249 125.247 38.3168 125.247 38.677V40.9827C125.247 41.3428 125.539 41.6347 125.898 41.6347H128.2C128.559 41.6347 128.85 41.3428 128.85 40.9827V38.677C128.85 38.3168 128.559 38.0249 128.2 38.0249Z" fill="white"/>
</g>
<path d="M128.2 38.0249H125.898C125.539 38.0249 125.247 38.3168 125.247 38.677V40.9827C125.247 41.3428 125.539 41.6347 125.898 41.6347H128.2C128.559 41.6347 128.85 41.3428 128.85 40.9827V38.677C128.85 38.3168 128.559 38.0249 128.2 38.0249Z" stroke="#263238" stroke-width="0.75" stroke-linecap="round" stroke-linejoin="round"/>
<path d="M156.73 119.756C156.73 119.756 157.25 123.188 157.125 124.327C156.714 128.155 154.755 131.952 153.927 139.391H185.745C185.745 139.391 186.035 125.825 184.786 119.756H156.73Z" fill="#858585" stroke="#263238" stroke-linecap="round" stroke-linejoin="round"/>
<path d="M156.546 121.706C156.546 121.706 155.761 108.365 154.223 95.5233C153.288 87.82 151.756 80.1885 151.42 74.4852C150.956 67.0252 160.049 69.0969 167.966 68.7662C175.882 68.4355 183.572 67.4059 184.12 74.3385C184.668 81.2712 185.425 121.266 185.425 121.266C185.425 121.266 170.411 125.291 156.546 121.706Z" fill="#E54F38"/>
<mask id="mask3_38_8149" style="mask-type:luminance" maskUnits="userSpaceOnUse" x="151" y="68" width="35" height="56">
<path d="M156.546 121.706C156.546 121.706 155.761 108.365 154.223 95.5233C153.288 87.82 151.756 80.1885 151.42 74.4852C150.956 67.0252 160.049 69.0969 167.966 68.7662C175.882 68.4355 183.572 67.4059 184.12 74.3385C184.668 81.2712 185.425 121.266 185.425 121.266C185.425 121.266 170.411 125.291 156.546 121.706Z" fill="white"/>
</mask>
<g mask="url(#mask3_38_8149)">
<g opacity="0.2">
<path d="M196.01 97.7323L198.975 96.7963L196.658 96.5935L197.95 94.4969C197.639 95.0959 196.826 95.2644 196.191 95.046C195.555 94.8276 195.066 94.3253 194.605 93.8386C192.491 91.6202 190.354 89.3707 188.844 86.7031C187.334 84.0355 186.49 80.85 187.169 77.8673L186.088 80.563L184.44 75.9547C184.596 76.6847 184.559 77.4427 184.332 78.1539C184.106 78.8652 183.699 79.5051 183.151 80.0107C182.712 80.4038 182.17 80.7283 181.94 81.2806C181.844 81.5302 181.823 81.8025 181.881 82.0637C186.016 104.216 172.569 104.344 167.866 103.124C163.64 102.032 159.769 96.6996 159.61 92.3846C159.609 92.2611 159.64 92.1393 159.7 92.0316C159.761 91.9238 159.848 91.8339 159.954 91.7707C160.06 91.7075 160.181 91.6733 160.304 91.6715C160.427 91.6698 160.549 91.7005 160.657 91.7606C168.601 96.1567 175.415 97.2799 173.052 95.461C168.844 94.5593 157.642 89.9573 155.773 79.9265C155.74 79.7466 155.67 79.5753 155.569 79.4233C155.467 79.2712 155.336 79.1414 155.183 79.0419C155.029 78.9423 154.857 78.8751 154.677 78.8443C154.497 78.8134 154.313 78.8197 154.135 78.8626C152.26 83.255 149.218 87.0481 145.341 89.8294L146.06 91.5329C145.2 92.2567 143.625 91.5922 143.544 90.469L142.65 95.0678L140.47 94.9992L140.492 95.0179C140.627 95.1579 140.732 95.3233 140.803 95.5046L140.937 95.5982C141.034 95.67 141.118 95.7386 141.202 95.8073C141.894 95.9801 142.615 96.003 143.317 95.8744C144.019 95.7458 144.686 95.4687 145.272 95.0616C146.916 93.9415 147.957 92.1538 148.981 90.4471C150.006 88.7405 151.161 86.987 152.887 86.0261C154.979 95.877 157.073 105.726 159.168 115.572C159.504 117.161 159.866 118.802 160.819 120.118C162.796 122.845 166.617 123.341 169.981 123.31C174.973 123.264 179.939 122.585 184.761 121.288L184.416 85.0433L194.02 96.9929C192.612 98.9356 191.207 100.88 189.803 102.827C190.822 101.522 192.106 100.449 193.57 99.6793C195.034 98.9096 196.645 98.4607 198.296 98.3626C198.002 98.068 197.637 97.8551 197.236 97.7446C196.835 97.6341 196.413 97.6299 196.01 97.7323Z" fill="black"/>
</g>
</g>
<path d="M156.546 121.706C156.546 121.706 155.761 108.365 154.223 95.5233C153.288 87.82 151.756 80.1885 151.42 74.4852C150.956 67.0252 160.049 69.0969 167.966 68.7662C175.882 68.4355 183.572 67.4059 184.12 74.3385C184.668 81.2712 185.425 121.266 185.425 121.266C185.425 121.266 170.411 125.291 156.546 121.706Z" stroke="#263238" stroke-width="0.75" stroke-linecap="round" stroke-linejoin="round"/>
<path d="M169.486 139.391C169.197 138.664 168.851 137.962 168.452 137.291C166.508 134.698 166.751 132.489 166.038 130.074C165.82 129.335 164.328 127.506 164.328 127.506" stroke="#263238" stroke-width="0.75" stroke-linecap="round" stroke-linejoin="round"/>
<path d="M188.866 106.272L186.552 109.024L187.265 113.847L190.79 110.131L188.866 106.272Z" fill="white" stroke="#263238" stroke-width="0.75" stroke-linecap="round" stroke-linejoin="round"/>
<path d="M186.975 109.223C186.879 108.755 186.826 107.56 186.374 107.404C185.546 107.117 183.952 108.627 183.447 109.345C183.21 109.685 182.7 110.409 182.706 110.821C182.706 111.033 182.893 111.535 183.098 111.569C183.463 111.626 183.874 110.783 184.154 110.546C184.688 110.192 185.244 109.874 185.82 109.595C185.82 109.595 184.839 111.02 184.44 111.348C183.843 111.838 181.364 113.22 182.939 114.044C182.939 114.044 182.332 114.939 183.282 115.173C184.232 115.407 185.748 114.094 185.748 114.094C185.471 114.48 185.146 114.831 184.783 115.139C184.179 115.679 183.288 115.56 183.5 115.941C183.811 116.53 184.637 116.583 185.499 116.293C185.937 116.174 186.346 115.966 186.701 115.682C187.055 115.398 187.348 115.044 187.561 114.643C188.34 113.348 187.253 110.559 186.975 109.223Z" fill="white" stroke="#1A2E35" stroke-width="0.75" stroke-linecap="round" stroke-linejoin="round"/>
<path d="M183.59 113.847C184.267 113.507 184.92 113.122 185.546 112.696C185.962 112.377 186.305 111.973 186.552 111.51" stroke="#1A2E35" stroke-width="0.75" stroke-linecap="round" stroke-linejoin="round"/>
<path d="M176.633 68.5353C176.633 68.5353 184.344 68.994 184.3 71.3683C184.3 71.3683 188.162 73.0157 188.368 74.8752C188.573 76.7347 204.858 94.2192 202.036 99.2923C199.57 103.723 189.623 111.966 189.623 111.966C189.623 111.966 188.67 109.825 187.595 107.326C187.595 107.326 191.955 97.7885 193.958 96.8088L183.481 83.4833" fill="#E54F38"/>
<mask id="mask4_38_8149" style="mask-type:luminance" maskUnits="userSpaceOnUse" x="176" y="68" width="27" height="44">
<path d="M176.633 68.5353C176.633 68.5353 184.344 68.994 184.3 71.3683C184.3 71.3683 188.162 73.0157 188.368 74.8752C188.573 76.7347 204.858 94.2192 202.036 99.2923C199.57 103.723 189.623 111.966 189.623 111.966C189.623 111.966 188.67 109.825 187.595 107.326C187.595 107.326 191.955 97.7885 193.958 96.8088L183.481 83.4833" fill="white"/>
</mask>
<g mask="url(#mask4_38_8149)">
<g opacity="0.2">
<path d="M154.275 78.8033C152.401 83.1975 149.358 86.9912 145.478 89.7701L146.222 91.4736C145.362 92.2006 143.787 91.5329 143.706 90.4128C143.407 91.9478 143.109 93.486 142.812 95.0273L139.959 94.9368C141.354 96.3564 143.808 96.1442 145.453 95.0242C147.097 93.9041 148.134 92.1132 149.162 90.4097C150.19 88.7062 151.323 86.9371 153.067 85.9793C155.16 95.826 157.254 105.674 159.349 115.523C159.685 117.114 160.046 118.755 160.999 120.072C162.974 122.798 166.798 123.294 170.161 123.263C175.154 123.214 180.12 122.533 184.942 121.235C184.817 109.15 184.694 97.0667 184.571 84.984L194.16 96.9367L189.489 103.423C190.489 101.938 191.818 100.703 193.372 99.8164C194.926 98.9294 196.663 98.4138 198.449 98.3095C198.156 98.0179 197.793 97.8072 197.395 97.6979C196.998 97.5885 196.578 97.5842 196.178 97.6855L199.143 96.7339L196.826 96.5342L198.118 94.4345C197.807 95.0335 196.994 95.2051 196.359 94.9867C195.724 94.7683 195.235 94.2629 194.771 93.7762C192.659 91.5578 190.523 89.3114 189.012 86.6438C187.502 83.9762 186.658 80.8032 187.331 77.8111C186.973 78.7097 186.614 79.6072 186.253 80.5037L184.606 75.8986C184.761 76.6288 184.723 77.3871 184.497 78.0984C184.27 78.8097 183.862 79.4495 183.313 79.9546C182.893 80.3352 182.379 80.6503 182.133 81.162C181.803 81.8515 182.064 82.6627 182.285 83.3959C183.653 87.9698 183.005 93.2177 180.143 97.0334C177.281 100.849 172.127 102.961 167.511 101.763C162.896 100.565 159.308 95.8759 159.8 91.1273C164.735 92.9348 169.908 94.0029 175.154 94.2972C170.756 93.3612 166.331 92.082 162.622 89.5298C158.913 86.9777 155.979 82.9622 155.714 78.4663L154.275 78.8033Z" fill="black"/>
</g>
</g>
<path d="M176.633 68.5353C176.633 68.5353 184.344 68.994 184.3 71.3683C184.3 71.3683 188.162 73.0157 188.368 74.8752C188.573 76.7347 204.858 94.2192 202.036 99.2923C199.57 103.723 189.623 111.966 189.623 111.966C189.623 111.966 188.67 109.825 187.595 107.326C187.595 107.326 191.955 97.7885 193.958 96.8088L183.481 83.4833" stroke="#263238" stroke-width="0.75" stroke-linecap="round" stroke-linejoin="round"/>
<path d="M199.243 96.4406C197.527 95.23 195.091 96.503 195.091 95.7074C195.091 94.9118 198.022 94.84 197.779 94.0195" stroke="#263238" stroke-width="0.75" stroke-linecap="round" stroke-linejoin="round"/>
<path d="M185.795 79.9608C186.334 78.4596 186.609 76.8761 186.608 75.2808" stroke="#263238" stroke-width="0.75" stroke-linecap="round" stroke-linejoin="round"/>
<path d="M184.543 74.2606C184.634 76.0733 184.724 78.6504 184.643 80.616C184.64 80.7128 184.67 80.8077 184.729 80.8848C184.787 80.9618 184.871 81.0163 184.965 81.039C185.059 81.0617 185.157 81.0513 185.245 81.0095C185.332 80.9677 185.402 80.897 185.443 80.8094" stroke="#263238" stroke-width="0.75" stroke-linecap="round" stroke-linejoin="round"/>
<path d="M184.409 72.0422C184.409 72.0422 184.437 72.4291 184.478 73.0625" stroke="#263238" stroke-width="0.75" stroke-linecap="round" stroke-linejoin="round"/>
<path d="M149.221 77.2433C149.221 77.2433 148.76 80.4538 149.221 82.747" stroke="#263238" stroke-width="0.75" stroke-linecap="round" stroke-linejoin="round"/>
<path d="M135.749 74.0296L133.983 68.9378C133.983 68.9378 133.432 65.4528 132.98 64.7632C132.494 64.1529 131.942 63.5993 131.333 63.1128C130.9 62.5032 130.412 61.935 129.875 61.4155C129.274 60.91 125.749 59.0755 125.475 59.2128C125.201 59.35 124.765 60.1768 127.054 61.4592C126.285 61.4127 125.514 61.5188 124.786 61.7712C123.78 62.1861 123.092 62.2984 123.541 62.7352C123.989 63.172 124.341 63.378 125.967 62.9412C126.65 63.0197 127.338 63.0426 128.025 63.0098L128.53 63.6057C128.31 63.5084 128.063 63.4943 127.834 63.5661C127.604 63.6378 127.409 63.7905 127.284 63.9957C126.826 64.7289 126.3 65.6462 126.53 66.1797C126.53 66.1797 124.768 65.2624 124.285 66.0206C123.802 66.7788 125.294 67.4652 125.889 67.9238C126.484 68.3824 127.926 69.6211 127.926 69.6211C127.926 69.6211 128.947 71.9392 131.111 72.791C131.111 72.791 131.943 73.7551 131.706 74.663L135.749 74.0296Z" fill="white" stroke="#263238" stroke-width="0.75" stroke-linecap="round" stroke-linejoin="round"/>
<path d="M128.168 62.0832L128.925 62.7009L129.769 64.1705L130.342 66.0955" stroke="#263238" stroke-width="0.75" stroke-linecap="round" stroke-linejoin="round"/>
<path d="M130.825 66.0955C130.825 66.0955 129.623 67.5401 128.769 67.746C128.395 67.5907 128.033 67.4071 127.686 67.1969C127.533 67.0627 127.303 66.8038 126.839 66.4325" stroke="#263238" stroke-width="0.75" stroke-linecap="round" stroke-linejoin="round"/>
<path d="M129.495 65.9801L129.386 65.5901C129.03 65.6672 128.662 65.6672 128.305 65.5901L128.031 65.9801C128.517 65.911 129.01 65.911 129.495 65.9801Z" stroke="#263238" stroke-width="0.75" stroke-linecap="round" stroke-linejoin="round"/>
<path d="M128.284 64.3514C128.421 64.6619 128.475 65.0026 128.442 65.3405" stroke="#263238" stroke-width="0.75" stroke-linecap="round" stroke-linejoin="round"/>
<path d="M127.574 65.5901C127.854 65.8314 128.072 66.1369 128.21 66.4807C128.348 66.8245 128.401 67.1964 128.365 67.565" stroke="#263238" stroke-width="0.75" stroke-linecap="round" stroke-linejoin="round"/>
<path d="M128.991 63.9864L129.495 64.5355V65.1564" stroke="#263238" stroke-width="0.75" stroke-linecap="round" stroke-linejoin="round"/>
<path d="M154.743 69.3497C154.743 69.3497 151.821 69.2249 149.962 74.4852C149.962 74.4852 147.764 75.7706 143.288 85.555C143.288 85.555 142.519 84.5222 140.865 81.6924C139.42 79.2214 137.215 76.0296 135.397 71.359C135.397 71.359 133.93 73.1654 130.794 73.0625C130.794 73.0625 137.592 96.0725 142.354 96.0725C147.605 96.0725 153.385 83.8421 153.385 83.8421" fill="#E54F38"/>
<mask id="mask5_38_8149" style="mask-type:luminance" maskUnits="userSpaceOnUse" x="130" y="69" width="25" height="28">
<path d="M154.743 69.3497C154.743 69.3497 151.821 69.2249 149.962 74.4852C149.962 74.4852 147.764 75.7706 143.288 85.555C143.288 85.555 142.519 84.5222 140.865 81.6924C139.42 79.2214 137.215 76.0296 135.397 71.359C135.397 71.359 133.93 73.1654 130.794 73.0625C130.794 73.0625 137.592 96.0725 142.354 96.0725C147.605 96.0725 153.385 83.8421 153.385 83.8421" fill="white"/>
</mask>
<g mask="url(#mask5_38_8149)">
<g opacity="0.2">
<path d="M154.275 78.8033C152.401 83.1975 149.358 86.9912 145.478 89.7701L146.222 91.4736C145.362 92.2006 143.787 91.5329 143.706 90.4128C143.407 91.9478 143.109 93.486 142.812 95.0273L139.959 94.9368C141.354 96.3564 143.808 96.1442 145.453 95.0242C147.097 93.9041 148.134 92.1132 149.162 90.4097C150.19 88.7062 151.323 86.9371 153.067 85.9793C155.16 95.826 157.254 105.674 159.349 115.523C159.685 117.114 160.046 118.755 160.999 120.072C162.974 122.798 166.798 123.294 170.161 123.263C175.154 123.214 180.12 122.533 184.942 121.235C184.817 109.15 184.694 97.0667 184.571 84.984L194.16 96.9367L189.489 103.423C190.489 101.938 191.818 100.703 193.372 99.8164C194.926 98.9294 196.663 98.4138 198.449 98.3095C198.156 98.0179 197.793 97.8072 197.395 97.6979C196.998 97.5885 196.578 97.5842 196.178 97.6855L199.143 96.7339L196.826 96.5342L198.118 94.4345C197.807 95.0335 196.994 95.2051 196.359 94.9867C195.724 94.7683 195.235 94.2629 194.771 93.7762C192.659 91.5578 190.523 89.3114 189.012 86.6438C187.502 83.9762 186.658 80.8032 187.331 77.8111C186.973 78.7097 186.614 79.6072 186.253 80.5037L184.606 75.8986C184.761 76.6288 184.723 77.3871 184.497 78.0984C184.27 78.8097 183.862 79.4495 183.313 79.9546C182.893 80.3352 182.379 80.6503 182.133 81.162C181.803 81.8515 182.064 82.6627 182.285 83.3959C183.653 87.9698 183.005 93.2177 180.143 97.0334C177.281 100.849 172.127 102.961 167.511 101.763C162.896 100.565 159.308 95.8759 159.8 91.1273C164.735 92.9348 169.908 94.0029 175.154 94.2972C170.756 93.3612 166.331 92.082 162.622 89.5298C158.913 86.9777 155.979 82.9622 155.714 78.4663L154.275 78.8033Z" fill="black"/>
</g>
</g>
<path d="M154.743 69.3497C154.743 69.3497 151.821 69.2249 149.962 74.4852C149.962 74.4852 147.764 75.7706 143.288 85.555C143.288 85.555 142.519 84.5222 140.865 81.6924C139.42 79.2214 137.215 76.0296 135.397 71.359C135.397 71.359 133.93 73.1654 130.794 73.0625C130.794 73.0625 137.592 96.0725 142.354 96.0725C147.605 96.0725 153.385 83.8421 153.385 83.8421" stroke="#263238" stroke-width="0.75" stroke-linecap="round" stroke-linejoin="round"/>
<path d="M151.479 75.6427C151.448 75.2714 151.423 74.8845 151.404 74.4852" stroke="#263238" stroke-width="0.75" stroke-linecap="round" stroke-linejoin="round"/>
<path d="M151.977 82.6127C152.827 82.5191 152.086 80.7688 151.635 77.2401" stroke="#263238" stroke-width="0.75" stroke-linecap="round" stroke-linejoin="round"/>
<path d="M149.797 76.0764C149.797 76.0764 150.507 80.2322 151.323 81.917" stroke="#263238" stroke-width="0.75" stroke-linecap="round" stroke-linejoin="round"/>
<path d="M169.389 60.3422C169.389 60.3422 170.189 68.292 171.958 69.2498C171.958 69.2498 171.675 72.2856 166.508 72.2856C161.342 72.2856 161.339 68.0049 161.339 68.0049L169.389 60.3422Z" fill="white"/>
<mask id="mask6_38_8149" style="mask-type:luminance" maskUnits="userSpaceOnUse" x="161" y="60" width="11" height="13">
<path d="M169.389 60.3422C169.389 60.3422 170.189 68.292 171.958 69.2498C171.958 69.2498 171.675 72.2856 166.508 72.2856C161.342 72.2856 161.339 68.0049 161.339 68.0049L169.389 60.3422Z" fill="white"/>
</mask>
<g mask="url(#mask6_38_8149)">
<path d="M158.221 51.7466C158.221 51.7466 157.384 56.7386 157.521 57.7901C157.658 58.8415 157.402 59.9179 157.614 61.6121C157.826 63.3062 159.115 68.033 162.192 68.7538C163.811 69.1313 167.275 67.5713 168.713 64.3514C168.813 64.1362 169.389 61.6682 169.389 61.6682C169.389 61.6682 170.815 62.6323 171.273 61.0692C171.731 59.5061 172.503 58.0802 171.513 57.1474C170.523 56.2145 169.187 58.2362 169 58.9819C168.813 59.7276 168.081 58.8821 168.081 58.8821C168.081 58.8821 167.626 55.4501 166.552 54.5141C165.478 53.5781 167.486 51.834 166.465 50.6328C165.443 49.4316 160.931 49.7155 158.221 51.7466Z" fill="#263238" stroke="#263238" stroke-width="0.75" stroke-linecap="round" stroke-linejoin="round"/>
</g>
<path d="M169.389 60.3422C169.389 60.3422 170.189 68.292 171.958 69.2498C171.958 69.2498 171.675 72.2856 166.508 72.2856C161.342 72.2856 161.339 68.0049 161.339 68.0049L169.389 60.3422Z" stroke="#263238" stroke-width="0.75" stroke-linecap="round" stroke-linejoin="round"/>
<path d="M157.025 51.8277C157.025 51.8277 152.32 51.3753 153.354 47.5721C154.388 43.7688 158.315 43.3538 158.315 43.3538C158.315 43.3538 157.521 46.0838 162.183 45.5378C166.845 44.9918 171.881 44.5457 172.086 49.26C172.589 50.7357 172.738 52.3092 172.522 53.8533C172.305 55.3975 171.729 56.8689 170.84 58.1489C167.785 62.5169 164.979 58.9819 164.979 58.9819L162.566 53.7715L158.081 52.8199L157.025 51.8277Z" fill="#263238"/>
<mask id="mask7_38_8149" style="mask-type:luminance" maskUnits="userSpaceOnUse" x="153" y="43" width="20" height="18">
<path d="M157.025 51.8277C157.025 51.8277 152.32 51.3753 153.354 47.5721C154.388 43.7688 158.315 43.3538 158.315 43.3538C158.315 43.3538 157.521 46.0838 162.183 45.5378C166.845 44.9918 171.881 44.5457 172.086 49.26C172.589 50.7357 172.738 52.3092 172.522 53.8533C172.305 55.3975 171.729 56.8689 170.84 58.1489C167.785 62.5169 164.979 58.9819 164.979 58.9819L162.566 53.7715L158.081 52.8199L157.025 51.8277Z" fill="white"/>
</mask>
<g mask="url(#mask7_38_8149)">
<path d="M163.811 49.2787C163.811 49.2787 169.38 49.9246 172.102 49.2787C174.824 48.6329 175.568 56.0179 175.568 56.0179L174.908 60.5232L167.48 61.8055L164.054 58.7448L162.637 54.4673L163.811 49.2787Z" fill="#858585" stroke="#263238" stroke-width="0.75" stroke-miterlimit="10"/>
</g>
<path d="M157.025 51.8277C157.025 51.8277 152.32 51.3753 153.354 47.5721C154.388 43.7688 158.315 43.3538 158.315 43.3538C158.315 43.3538 157.521 46.0838 162.183 45.5378C166.845 44.9918 171.881 44.5457 172.086 49.26C172.589 50.7357 172.738 52.3092 172.522 53.8533C172.305 55.3975 171.729 56.8689 170.84 58.1489C167.785 62.5169 164.979 58.9819 164.979 58.9819L162.566 53.7715L158.081 52.8199L157.025 51.8277Z" stroke="#263238" stroke-width="0.75" stroke-miterlimit="10"/>
<path d="M156.337 51.2131C156.337 51.2131 155.263 56.2519 155.403 57.2753C155.543 58.2986 155.219 59.4156 155.428 61.1098C155.636 62.8039 156.362 69.1594 160.028 68.6695C163.628 68.1922 168.579 65.2375 169.019 62.3078C169.056 62.0707 169.271 61.3718 169.271 61.3718C169.692 61.4991 170.147 61.4537 170.536 61.2455C170.924 61.0372 171.214 60.6832 171.342 60.2611C171.909 58.6824 172.84 57.2347 171.706 56.3206C170.526 55.3658 168.972 57.4625 168.738 58.2175C168.505 58.9726 167.673 58.1364 167.673 58.1364C167.673 58.1364 167.218 54.7044 165.988 53.8027C164.758 52.901 167.128 51.0914 165.97 49.9121C164.811 48.7327 159.545 49.1196 156.337 51.2131Z" fill="white" stroke="#263238" stroke-width="0.75" stroke-linecap="round" stroke-linejoin="round"/>
<path d="M158.228 57.2129C158.228 58.1489 156.484 59.7588 156.689 60.5856C156.801 61.038 157.975 61.2595 158.218 61.6589C158.279 61.7768 158.312 61.907 158.315 62.0395" fill="white"/>
<path d="M158.228 57.2129C158.228 58.1489 156.484 59.7588 156.689 60.5856C156.801 61.038 157.975 61.2595 158.218 61.6589C158.279 61.7768 158.312 61.907 158.315 62.0395" stroke="#263238" stroke-width="0.75" stroke-linecap="round" stroke-linejoin="round"/>
<path d="M156.561 57.762C156.536 58.1239 156.371 58.4047 156.191 58.386C156.01 58.3673 155.879 58.074 155.914 57.7089C155.948 57.3439 156.107 57.0662 156.284 57.0849C156.462 57.1037 156.586 57.4001 156.561 57.762Z" fill="#263238"/>
<path d="M160.626 57.1692C160.597 57.5467 160.423 57.84 160.236 57.8275C160.049 57.815 159.925 57.4968 159.947 57.1193C159.968 56.7418 160.149 56.4485 160.336 56.461C160.523 56.4734 160.65 56.7917 160.626 57.1692Z" fill="#263238"/>
<path d="M158.785 55.5C158.785 55.5 160.342 54.252 162.404 55.578" stroke="#263238" stroke-width="0.75" stroke-linecap="round" stroke-linejoin="round"/>
<path d="M163.21 62.8226C163.21 62.8226 159.785 65.8678 158.312 63.2158L163.21 62.8226Z" fill="white"/>
<path d="M163.21 62.8226C163.21 62.8226 159.785 65.8678 158.312 63.2158" stroke="#263238" stroke-width="0.75" stroke-linecap="round" stroke-linejoin="round"/>
<path d="M154.627 56.3829C154.627 56.3829 155.658 54.9665 157.408 56.0117" stroke="#263238" stroke-width="0.75" stroke-linecap="round" stroke-linejoin="round"/>
<path d="M157.493 50.5236C157.493 50.5236 152.416 50.8543 154.961 54.0304C154.961 54.0304 154.905 51.7435 157.493 50.5236Z" fill="#263238"/>
<path d="M157.493 57.7401C157.493 58.6075 156.87 59.3001 156.116 59.3001C155.362 59.3001 154.743 58.5981 154.743 57.7401C154.743 56.8821 155.365 56.4921 156.116 56.4921C156.867 56.4921 157.493 56.8696 157.493 57.7401Z" stroke="#263238" stroke-width="0.75" stroke-linecap="round" stroke-linejoin="round"/>
<path d="M162.323 57.1442C162.282 57.5731 162.083 57.9714 161.765 58.2612C161.447 58.5511 161.032 58.7117 160.602 58.7117C160.172 58.7117 159.758 58.5511 159.439 58.2612C159.121 57.9714 158.922 57.5731 158.882 57.1442C158.882 56.2769 159.651 55.8962 160.601 55.8962C161.55 55.8962 162.323 56.2769 162.323 57.1442Z" stroke="#263238" stroke-width="0.75" stroke-linecap="round" stroke-linejoin="round"/>
<path d="M157.39 57.1442C157.39 56.7667 158.882 56.5733 158.882 56.9508" stroke="#263238" stroke-width="0.75" stroke-linecap="round" stroke-linejoin="round"/>
<path d="M162.214 56.5327L169.389 57.1442" stroke="#263238" stroke-width="0.75" stroke-linecap="round" stroke-linejoin="round"/>
<path d="M158.106 98.6309C161.105 103.957 168.71 115.142 179.947 115.791" stroke="#263238" stroke-width="0.75" stroke-linecap="round" stroke-linejoin="round"/>
<path d="M156.67 95.8541C156.67 95.8541 156.891 96.3439 157.318 97.1738" stroke="#263238" stroke-width="0.75" stroke-linecap="round" stroke-linejoin="round"/>
<path d="M173.192 68.5353C172.693 68.5353 172.189 68.5665 171.678 68.5884C171.404 70.9065 168.701 71.5773 166.203 71.5773C163.768 71.5773 162.385 70.9377 162.192 68.7537C161.681 68.7537 161.177 68.7537 160.682 68.7537C160.881 71.8457 162.915 73.0625 166.203 73.0625C169.564 73.0469 172.986 71.777 173.192 68.5353Z" fill="#E54F38" stroke="#263238" stroke-miterlimit="10"/>
<path d="M143.042 91.458C143.042 91.458 142.905 87.6048 143.453 87.4207C144.001 87.2366 144.001 89.5298 145.468 89.4393" stroke="#263238" stroke-width="0.75" stroke-linecap="round" stroke-linejoin="round"/>
<path d="M125.28 60.0139L88.7021 58.7599C87.9423 58.7338 87.3053 59.3298 87.2793 60.0909L87.1802 62.9908C87.1542 63.752 87.7491 64.3902 88.5088 64.4162L125.087 65.6703C125.846 65.6963 126.483 65.1004 126.509 64.3392L126.608 61.4393C126.634 60.6781 126.04 60.04 125.28 60.0139Z" fill="white" stroke="#263238" stroke-width="0.75" stroke-linecap="round" stroke-linejoin="round"/>
<path d="M104.593 62.5231V62.2111L105.861 61.6651V61.9958L104.989 62.3671L105.861 62.7353V63.0691L104.593 62.5231Z" fill="#263238"/>
<path d="M107.268 60.9163H107.661L106.509 63.8273H106.113L107.268 60.9163Z" fill="#263238"/>
<path d="M107.922 62.7384L108.798 62.3702L107.922 61.9989V61.6682L109.19 62.2142V62.5262L107.922 63.0753V62.7384Z" fill="#263238"/>
<path d="M85.3127 60.701H84.4221" stroke="#263238" stroke-width="0.75" stroke-linecap="round" stroke-linejoin="round"/>
<path d="M132.357 90.235L131.314 85.7141L129.265 78.0108L127.103 75.6833L124.241 73.4993C124.241 73.4993 121.077 72.1608 120.971 72.8503C120.933 73.0327 120.96 73.2227 121.047 73.3873C121.134 73.552 121.276 73.681 121.448 73.752C121.448 73.752 120.548 73.44 120.336 73.9923C120.124 74.5445 121.582 74.947 122.401 75.6646C122.876 76.0739 123.32 76.5193 123.727 76.9968C123.727 76.9968 122.578 78.432 122.728 79.2089L122.824 79.5646C122.824 79.5646 120.532 78.3166 120.314 79.3243C120.096 80.3321 121.666 80.5411 122.563 81.5083C123.095 82.0879 123.675 82.6213 124.297 83.1027C124.297 83.1027 125.185 85.3491 127.1 86.1447L127.219 91.0805C127.219 91.0805 130.177 91.7014 132.357 90.235Z" fill="white" stroke="#263238" stroke-width="0.75" stroke-linecap="round" stroke-linejoin="round"/>
<path d="M121.684 74.0391C122.371 74.5138 123.091 74.9402 123.836 75.3151L125.658 77.2277C126.101 77.7889 126.483 78.3955 126.798 79.0373" fill="white"/>
<path d="M121.684 74.0391C122.371 74.5138 123.091 74.9402 123.836 75.3151L125.658 77.2277C126.101 77.7889 126.483 78.3955 126.798 79.0373" stroke="#263238" stroke-width="0.75" stroke-linecap="round" stroke-linejoin="round"/>
<path d="M124.042 77.3306C124.363 77.8722 124.718 78.3932 125.104 78.8906C125.528 79.3929 125.481 79.6831 125.185 80.0294" stroke="#263238" stroke-width="0.75" stroke-linecap="round" stroke-linejoin="round"/>
<path d="M123.357 79.8984C123.608 80.0802 123.838 80.2895 124.042 80.5224C124.335 80.8656 125.082 81.1059 125.518 80.8001C125.954 80.4943 127.116 79.6613 126.957 79.3493" stroke="#263238" stroke-width="0.75" stroke-linecap="round" stroke-linejoin="round"/>
<path d="M124.241 78.4039C124.241 78.4039 124.241 78.8719 123.93 79.0279C123.618 79.1839 124.375 78.847 124.677 79.134" stroke="#263238" stroke-width="0.75" stroke-linecap="round" stroke-linejoin="round"/>
<path d="M152.289 103.57C152.289 103.57 149.694 101.919 145.991 103.258C142.778 103.429 139.577 103.792 136.406 104.344C136.406 104.344 136.826 103.23 135.322 103.483C135.322 103.483 134.761 91.8761 132.852 87.9574C132.852 87.9574 132.625 89.0775 125.964 89.3552C125.964 89.3552 125.49 110.113 127.926 113.155C130.361 116.197 150.781 113.838 150.781 113.838C150.781 113.838 154.413 107.124 152.289 103.57Z" fill="white" stroke="#263238" stroke-width="0.75" stroke-linecap="round" stroke-linejoin="round"/>
<path opacity="0.2" d="M150.772 113.838C150.772 113.838 151.133 113.167 151.563 112.14C151.139 107.735 139.318 112.621 134.123 113.154C130.669 113.51 128.184 111.566 126.904 110.222C127.169 111.591 127.499 112.633 127.916 113.154C130.352 116.2 150.772 113.838 150.772 113.838Z" fill="black"/>
<path d="M130.697 107.716C130.697 107.716 134.746 103.392 135.45 104.344C136.153 105.295 134.35 105.379 133.301 109.535" stroke="#7F7F7F" stroke-width="0.75" stroke-linecap="round" stroke-linejoin="round"/>
<path d="M150.654 139.394C150.654 139.394 151.258 127.622 150.654 118.621C150.049 109.62 145.384 106.418 150.654 103.735C155.923 101.052 173.285 101.745 178.729 104.428C184.173 107.111 180.716 119.488 180.974 124.939C181.233 130.389 182.186 139.394 182.186 139.394H150.654Z" fill="white" stroke="#263238" stroke-width="0.75" stroke-linecap="round" stroke-linejoin="round"/>
<path opacity="0.2" d="M181.821 135.771C181.51 132.651 181.127 128.174 180.974 124.939C180.85 122.327 181.575 118.131 181.772 114.168C180.865 110.624 179.725 107.86 178.364 107.716C174.447 107.314 171.8 115.769 171.223 120.714C170.647 125.659 171.183 127.653 171.183 127.653L163.927 121.363C163.927 121.363 160.317 118.867 158.34 121.968C156.711 124.539 163.724 135.575 167.259 139.394H180.183L181.821 135.771Z" fill="black"/>
<path d="M161.364 128.258C161.364 128.378 161.328 128.495 161.262 128.595C161.195 128.694 161.101 128.772 160.991 128.818C160.88 128.863 160.759 128.875 160.642 128.852C160.524 128.829 160.417 128.771 160.332 128.686C160.248 128.602 160.19 128.494 160.167 128.377C160.144 128.259 160.156 128.137 160.201 128.027C160.247 127.916 160.324 127.822 160.424 127.755C160.523 127.689 160.64 127.653 160.759 127.653C160.839 127.653 160.917 127.669 160.991 127.699C161.064 127.73 161.131 127.774 161.187 127.83C161.243 127.887 161.287 127.953 161.318 128.027C161.348 128.1 161.364 128.179 161.364 128.258Z" fill="#858585"/>
<path d="M161.364 135.157C161.364 135.276 161.328 135.393 161.262 135.493C161.195 135.593 161.101 135.67 160.991 135.716C160.88 135.762 160.759 135.774 160.642 135.75C160.524 135.727 160.417 135.669 160.332 135.585C160.248 135.5 160.19 135.392 160.167 135.275C160.144 135.157 160.156 135.036 160.201 134.925C160.247 134.815 160.324 134.72 160.424 134.653C160.523 134.587 160.64 134.551 160.759 134.551C160.839 134.551 160.917 134.567 160.991 134.598C161.064 134.628 161.131 134.673 161.187 134.729C161.243 134.785 161.287 134.852 161.318 134.925C161.348 134.999 161.364 135.077 161.364 135.157Z" fill="#858585"/>
<path d="M161.737 113.155C162.784 113.155 163.525 115.289 164.515 115.276C165.506 115.264 168.016 108.362 169.106 106.425C170.196 104.487 169.707 102.1 168.062 101.66C166.418 101.221 156.776 101.66 156.776 101.66C156.424 102.224 156.215 102.866 156.166 103.529C156.117 104.192 156.231 104.857 156.496 105.467C157.43 107.545 157.763 114.353 159.087 114.583C160.411 114.814 160.414 113.155 161.737 113.155Z" fill="#858585" stroke="#263238" stroke-linecap="round" stroke-linejoin="round"/>
<path d="M128.309 92.7029C128.268 92.8153 128.194 92.913 128.098 92.9836C128.001 93.0542 127.886 93.0946 127.767 93.0997C127.648 93.1048 127.529 93.0744 127.427 93.0122C127.325 92.9501 127.244 92.8591 127.194 92.7506C127.143 92.6421 127.126 92.5211 127.144 92.4029C127.162 92.2846 127.215 92.1744 127.296 92.0862C127.376 91.998 127.481 91.9356 127.597 91.9071C127.713 91.8786 127.835 91.8852 127.947 91.926C128.022 91.9532 128.091 91.9949 128.149 92.0486C128.208 92.1024 128.255 92.1672 128.289 92.2394C128.322 92.3116 128.341 92.3896 128.345 92.4692C128.348 92.5487 128.336 92.6281 128.309 92.7029Z" fill="#858585"/>
<path d="M128.309 95.4079C128.268 95.5203 128.194 95.618 128.098 95.6886C128.001 95.7592 127.886 95.7996 127.767 95.8047C127.648 95.8098 127.529 95.7794 127.427 95.7173C127.325 95.6551 127.244 95.5641 127.194 95.4556C127.143 95.3471 127.126 95.2261 127.144 95.1079C127.162 94.9896 127.215 94.8794 127.296 94.7912C127.376 94.703 127.481 94.6407 127.597 94.6122C127.713 94.5836 127.835 94.5902 127.947 94.6311C128.095 94.6898 128.215 94.8031 128.282 94.9475C128.349 95.092 128.359 95.2567 128.309 95.4079Z" fill="#858585"/>
<path d="M156.499 103.794C156.499 103.794 160.473 112.774 162.083 112.506C163.693 112.237 164.848 108.556 166.462 106.721C168.075 104.886 168.234 103.27 168.125 102.263L167.67 97.6793L164.042 97.2737L158.86 101.083L156.499 103.794Z" fill="white" stroke="#263238" stroke-width="0.75" stroke-linecap="round" stroke-linejoin="round"/>
<path d="M158.86 101.083L156.499 103.794C156.499 103.794 157.025 104.983 157.77 106.481C158.055 106.488 158.339 106.454 158.614 106.378C162.208 105.383 167.461 101.289 167.153 98.2658L166.988 97.6668C167.158 97.6886 167.329 97.6886 167.499 97.6668L164.042 97.2799L158.86 101.083Z" fill="#263238"/>
<path d="M154.693 86.0822C154.693 86.0822 152.871 91.1585 152.871 92.2567C152.871 93.355 152.382 94.4407 152.366 96.2378C152.351 98.035 152.236 104.718 156.104 104.718C159.906 104.718 166.181 102.122 166.692 99.0646V98.4406C166.9 98.5352 167.124 98.588 167.352 98.5958C167.58 98.6036 167.808 98.5663 168.022 98.486C168.235 98.4058 168.431 98.2841 168.598 98.128C168.765 97.9719 168.899 97.7845 168.994 97.5763C169.8 96.0163 170.965 94.6435 169.928 93.5359C168.891 92.4283 166.935 94.344 166.589 95.0959C166.244 95.8478 165.493 94.865 165.493 94.865C165.493 94.865 165.493 91.2302 164.344 90.132C163.195 89.0338 165.901 87.48 164.861 86.0947C163.821 84.7094 158.299 84.3506 154.693 86.0822Z" fill="white" stroke="#263238" stroke-width="0.75" stroke-linecap="round" stroke-linejoin="round"/>
<path d="M169.053 94.8151C169.053 94.8151 171.233 91.7357 169.744 88.1009C169.744 88.1009 168.536 81.9857 161.105 81.3523C161.105 81.3523 163.005 79.9078 161.797 79.3306C159.965 78.457 156.745 81.4085 156.745 81.4085C156.745 81.4085 158.256 79.1215 157.521 79.0841C156.786 79.0467 151.603 84.8717 154.693 86.9496C157.782 89.0275 162.326 87.2367 162.326 87.2367L164.562 94.8151L164.908 95.7761L168.153 96.007L169.053 94.8151Z" fill="#263238" stroke="#263238" stroke-width="0.75" stroke-linecap="round" stroke-linejoin="round"/>
<path d="M164.861 83.8327C166.938 85.0401 168.287 87.2397 167.729 92.082" stroke="#7F7F7F" stroke-width="0.75" stroke-linecap="round" stroke-linejoin="round"/>
<path d="M158.751 83.3928C160.102 83.2586 162.099 82.5972 163.927 83.371" stroke="#7F7F7F" stroke-width="0.75" stroke-linecap="round" stroke-linejoin="round"/>
<path d="M160.644 80.1979C160.644 80.1979 156.505 82.2166 157.452 83.1401" stroke="#7F7F7F" stroke-width="0.75" stroke-linecap="round" stroke-linejoin="round"/>
<path d="M155.029 83.9482C155.979 84.697 157.131 83.8889 159.146 83.9482" stroke="#7F7F7F" stroke-width="0.75" stroke-linecap="round" stroke-linejoin="round"/>
<path d="M156.209 80.8313C156.209 80.8313 155.191 81.9639 154.877 82.9092" stroke="#7F7F7F" stroke-width="0.75" stroke-linecap="round" stroke-linejoin="round"/>
<path d="M154.693 86.0822C154.693 86.0822 152.871 91.1585 152.871 92.2567C152.871 93.355 152.382 94.4407 152.366 96.2378C152.351 98.035 152.236 104.718 156.104 104.718C159.906 104.718 166.181 102.122 166.692 99.0646V98.4406C166.9 98.5352 167.124 98.588 167.352 98.5958C167.58 98.6036 167.808 98.5663 168.022 98.486C168.235 98.4058 168.431 98.2841 168.598 98.128C168.765 97.9719 168.899 97.7845 168.994 97.5763C169.8 96.0163 170.965 94.6435 169.928 93.5359C168.891 92.4283 166.935 94.344 166.589 95.0959C166.244 95.8478 165.493 94.865 165.493 94.865C165.493 94.865 165.493 91.2302 164.344 90.132C163.195 89.0338 165.901 87.48 164.861 86.0947C163.821 84.7094 158.299 84.3506 154.693 86.0822Z" fill="white" stroke="#263238" stroke-width="0.75" stroke-linecap="round" stroke-linejoin="round"/>
<path d="M156.499 92.6592C156.499 92.6592 154.381 94.7153 154.481 95.6014C154.537 96.0881 155.727 96.4812 155.923 96.9274C155.961 97.1766 155.961 97.4302 155.923 97.6793" fill="white"/>
<path d="M156.499 92.6592C156.499 92.6592 154.381 94.7153 154.481 95.6014C154.537 96.0881 155.727 96.4812 155.923 96.9274C155.961 97.1766 155.961 97.4302 155.923 97.6793" stroke="#263238" stroke-width="0.75" stroke-linecap="round" stroke-linejoin="round"/>
<path d="M154.936 92.8214C154.799 93.2302 154.472 93.4891 154.201 93.3986C153.93 93.3082 153.818 92.9057 153.952 92.497C154.086 92.0882 154.416 91.8293 154.69 91.9198C154.964 92.0102 155.07 92.4127 154.936 92.8214Z" fill="#263238"/>
<path d="M160.155 92.8214C160.021 93.2302 159.691 93.4891 159.42 93.3986C159.149 93.3082 159.04 92.9057 159.174 92.497C159.308 92.0882 159.638 91.8293 159.909 91.9198C160.18 92.0102 160.292 92.4127 160.155 92.8214Z" fill="#263238"/>
<path d="M158.34 91.0961C158.34 91.0961 160.127 90.0041 162.077 91.6795L158.34 91.0961Z" fill="white"/>
<path d="M158.34 91.0961C158.34 91.0961 160.127 90.0041 162.077 91.6795" stroke="#263238" stroke-width="0.75" stroke-linecap="round" stroke-linejoin="round"/>
<path d="M154.693 98.1473C154.693 98.1473 157.477 99.127 160.211 98.4343C160.211 98.4281 155.935 101.314 154.693 98.1473Z" fill="white" stroke="#263238" stroke-width="0.75" stroke-linecap="round" stroke-linejoin="round"/>
<path d="M153.562 91.3894C153.562 91.3894 154.827 90.0634 156.499 91.3894H153.562Z" fill="white"/>
<path d="M153.562 91.3894C153.562 91.3894 154.827 90.0634 156.499 91.3894" stroke="#263238" stroke-width="0.75" stroke-linecap="round" stroke-linejoin="round"/>
<path d="M164.525 105.214C163.989 106.805 163.182 108.958 162.326 110.272L164.525 105.214Z" fill="white"/>
<path d="M164.525 105.214C163.989 106.805 163.182 108.958 162.326 110.272" stroke="#263238" stroke-width="0.75" stroke-linecap="round" stroke-linejoin="round"/>
<path d="M165.175 103.139C165.175 103.139 165.054 103.573 164.845 104.244L165.175 103.139Z" fill="white"/>
<path d="M165.175 103.139C165.175 103.139 165.054 103.573 164.845 104.244" stroke="#263238" stroke-width="0.75" stroke-linecap="round" stroke-linejoin="round"/>
<path d="M163.575 116.752L161.772 114.568C161.772 114.568 159.592 111.385 158.751 108.889C157.91 106.393 157.798 105.067 156.474 105.067C155.151 105.067 150.489 104.755 150.647 106.34C150.433 106.923 150.433 107.564 150.647 108.147C150.74 108.867 150.996 109.556 151.395 110.162C152.018 111.067 152.401 110.892 152.401 110.892C152.401 110.892 152.824 111.598 153.248 111.598C153.248 111.598 153.618 113.507 156.48 115.154L158.492 117.338L160.613 121.266L164.565 118.115L163.575 116.752Z" fill="white" stroke="#263238" stroke-width="0.75" stroke-linecap="round" stroke-linejoin="round"/>
<path d="M157.004 107.236C156.528 107.448 156.037 107.621 155.534 107.754C154.858 107.913 152.553 108.272 152.394 108.949C152.236 109.626 153.148 111.339 153.64 111.417C154.132 111.495 155.82 111.417 155.904 111.058C155.95 111.376 155.95 111.698 155.904 112.016C155.823 112.493 155.465 113.248 156.063 114.484" fill="white"/>
<path d="M157.004 107.236C156.528 107.448 156.037 107.621 155.534 107.754C154.858 107.913 152.553 108.272 152.394 108.949C152.236 109.626 153.148 111.339 153.64 111.417C154.132 111.495 155.82 111.417 155.904 111.058C155.95 111.376 155.95 111.698 155.904 112.016C155.823 112.493 155.465 113.248 156.063 114.484" stroke="#263238" stroke-width="0.75" stroke-linecap="round" stroke-linejoin="round"/>
<path d="M150.641 108.153C150.864 107.836 151.197 107.614 151.575 107.529C152.17 107.407 154.556 106.812 154.933 106.534" fill="white"/>
<path d="M150.641 108.153C150.864 107.836 151.197 107.614 151.575 107.529C152.17 107.407 154.556 106.812 154.933 106.534" stroke="#263238" stroke-width="0.75" stroke-linecap="round" stroke-linejoin="round"/>
<path d="M150.647 106.347C150.936 106.201 151.243 106.096 151.56 106.035C152.036 105.954 154.481 105.258 155.297 105.348" fill="white"/>
<path d="M150.647 106.347C150.936 106.201 151.243 106.096 151.56 106.035C152.036 105.954 154.481 105.258 155.297 105.348" stroke="#263238" stroke-width="0.75" stroke-linecap="round" stroke-linejoin="round"/>
<path d="M155.574 110.493C155.574 110.493 154.998 110.038 154.69 110.181C154.381 110.325 154.275 110.659 153.877 110.874" fill="white"/>
<path d="M155.574 110.493C155.574 110.493 154.998 110.038 154.69 110.181C154.381 110.325 154.275 110.659 153.877 110.874" stroke="#263238" stroke-width="0.75" stroke-linecap="round" stroke-linejoin="round"/>
<path d="M154.69 110.169C155.185 110.032 155.647 109.797 156.051 109.479L154.69 110.169Z" fill="white"/>
<path d="M154.69 110.169C155.185 110.032 155.647 109.797 156.051 109.479" stroke="#263238" stroke-width="0.75" stroke-linecap="round" stroke-linejoin="round"/>
<path d="M179.85 104.949C176.888 103.323 172.852 109.276 172.768 116.459C172.684 123.641 172.594 124.939 172.594 124.939L163.696 115.332C163.696 115.332 163.092 117.844 158.86 119.834C160.267 123.728 162.122 127.444 164.388 130.907C168.016 136.361 171.55 141.203 173.805 141.203C176.06 141.203 180.224 135.921 181.75 129.001C185.035 114.122 186.001 108.325 179.85 104.949Z" fill="white" stroke="#263238" stroke-width="0.75" stroke-linecap="round" stroke-linejoin="round"/>
<path d="M174.247 126.209C174.212 126.181 174.187 126.142 174.178 126.098C174.168 126.054 174.175 126.008 174.196 125.968C174.218 125.928 174.252 125.897 174.294 125.881C174.336 125.864 174.382 125.863 174.425 125.878C175.739 126.324 178.09 127.528 179.592 130.651" stroke="#7F7F7F" stroke-width="0.75" stroke-linecap="round" stroke-linejoin="round"/>
<path d="M177.605 131.862C177.181 130.023 176.292 128.324 175.023 126.929" stroke="#7F7F7F" stroke-width="0.75" stroke-linecap="round" stroke-linejoin="round"/>
<path d="M180.429 126.455C180.653 126.663 180.878 126.903 181.102 127.176" stroke="#7F7F7F" stroke-width="0.75" stroke-linecap="round" stroke-linejoin="round"/>
<path d="M174.176 124.667C174.176 124.667 176.826 123.535 179.76 125.856" stroke="#7F7F7F" stroke-width="0.75" stroke-linecap="round" stroke-linejoin="round"/>
<path d="M173.397 117.154C173.313 117.601 173.248 118.059 173.198 118.537" stroke="#7F7F7F" stroke-width="0.75" stroke-linecap="round" stroke-linejoin="round"/>
<path d="M177.639 109.014C175.828 110.841 174.503 113.094 173.787 115.566" stroke="#7F7F7F" stroke-width="0.75" stroke-linecap="round" stroke-linejoin="round"/>
<path d="M161.968 121.969C161.968 122.088 161.932 122.205 161.866 122.305C161.8 122.404 161.705 122.482 161.595 122.528C161.484 122.574 161.363 122.586 161.246 122.562C161.129 122.539 161.021 122.481 160.936 122.397C160.852 122.312 160.794 122.204 160.771 122.087C160.748 121.969 160.76 121.847 160.805 121.737C160.851 121.626 160.929 121.532 161.028 121.465C161.127 121.399 161.244 121.363 161.364 121.363C161.524 121.363 161.678 121.427 161.791 121.541C161.904 121.654 161.968 121.808 161.968 121.969Z" fill="#858585"/>
<path d="M163.189 124.405C163.186 124.525 163.147 124.641 163.079 124.739C163.01 124.837 162.914 124.913 162.802 124.956C162.691 125 162.569 125.01 162.452 124.984C162.336 124.959 162.229 124.899 162.146 124.813C162.062 124.727 162.006 124.619 161.984 124.501C161.963 124.383 161.976 124.261 162.023 124.151C162.07 124.041 162.148 123.947 162.248 123.881C162.348 123.815 162.465 123.781 162.584 123.781C162.665 123.781 162.745 123.797 162.82 123.829C162.895 123.861 162.962 123.907 163.018 123.965C163.075 124.023 163.119 124.092 163.148 124.168C163.177 124.243 163.191 124.324 163.189 124.405Z" fill="#858585"/>
<path d="M171.183 123.416L163.696 115.332" stroke="#7F7F7F" stroke-width="0.75" stroke-linecap="round" stroke-linejoin="round"/>
<path d="M175.882 106.487C174.176 108.596 172.818 112.325 172.768 116.471C172.681 123.647 172.594 124.951 172.594 124.951" stroke="#7F7F7F" stroke-width="0.75" stroke-linecap="round" stroke-linejoin="round"/>
<path d="M177.826 104.893C177.386 105.09 176.982 105.359 176.63 105.688" stroke="#7F7F7F" stroke-width="0.75" stroke-linecap="round" stroke-linejoin="round"/>
<path d="M177.203 138.835C178.691 137.041 180.193 134.352 181.186 131.179" stroke="#7F7F7F" stroke-width="0.75" stroke-linecap="round" stroke-linejoin="round"/>
<path d="M158.86 119.834C160.267 123.728 162.122 127.444 164.388 130.907C166.487 134.062 168.558 137.013 170.364 138.941" stroke="#7F7F7F" stroke-width="0.75" stroke-linecap="round" stroke-linejoin="round"/>
<path d="M163.403 140.947H149.557V139.678H163.516C163.625 139.678 163.729 139.721 163.806 139.798C163.883 139.875 163.927 139.98 163.927 140.089V140.423C163.927 140.562 163.872 140.696 163.773 140.794C163.675 140.892 163.542 140.947 163.403 140.947Z" fill="#CBF2D6" stroke="#263238" stroke-linecap="round" stroke-linejoin="round"/>
<path d="M142.83 118.677H144.584C144.852 118.678 145.113 118.766 145.328 118.928C145.542 119.09 145.698 119.317 145.773 119.575L151.513 139.359C151.565 139.544 151.574 139.739 151.539 139.928C151.504 140.117 151.426 140.295 151.311 140.449C151.196 140.602 151.047 140.727 150.875 140.814C150.704 140.9 150.515 140.946 150.323 140.947H148.801L142.83 118.677Z" fill="#263238" stroke="#263238" stroke-width="0.75" stroke-linecap="round" stroke-linejoin="round"/>
<path d="M124.26 140.947H149.713C149.905 140.946 150.094 140.9 150.265 140.814C150.436 140.727 150.585 140.602 150.7 140.449C150.816 140.295 150.894 140.117 150.929 139.928C150.964 139.739 150.955 139.544 150.903 139.359L145.163 119.575C145.088 119.317 144.932 119.09 144.717 118.928C144.503 118.766 144.242 118.678 143.973 118.677H118.527C118.334 118.678 118.145 118.724 117.974 118.811C117.802 118.897 117.653 119.023 117.538 119.177C117.422 119.331 117.344 119.509 117.31 119.699C117.275 119.888 117.284 120.083 117.337 120.268L123.073 140.052C123.149 140.309 123.305 140.535 123.519 140.696C123.733 140.858 123.992 140.946 124.26 140.947Z" fill="#E54F38" stroke="#263238" stroke-width="0.75" stroke-linecap="round" stroke-linejoin="round"/>
<path d="M120.912 73.5836H84.3131C83.5528 73.5836 82.9366 74.201 82.9366 74.9626V77.8642C82.9366 78.6258 83.5528 79.2432 84.3131 79.2432H120.912C121.672 79.2432 122.289 78.6258 122.289 77.8642V74.9626C122.289 74.201 121.672 73.5836 120.912 73.5836Z" fill="#E54F38"/>
<mask id="mask8_38_8149" style="mask-type:luminance" maskUnits="userSpaceOnUse" x="82" y="73" width="41" height="7">
<path d="M120.912 73.5836H84.3131C83.5528 73.5836 82.9366 74.201 82.9366 74.9626V77.8642C82.9366 78.6258 83.5528 79.2432 84.3131 79.2432H120.912C121.672 79.2432 122.289 78.6258 122.289 77.8642V74.9626C122.289 74.201 121.672 73.5836 120.912 73.5836Z" fill="white"/>
</mask>
<g mask="url(#mask8_38_8149)">
<path opacity="0.5" d="M120.912 73.5836H84.3131C83.5528 73.5836 82.9366 74.201 82.9366 74.9626V77.8642C82.9366 78.6258 83.5528 79.2432 84.3131 79.2432H120.912C121.672 79.2432 122.289 78.6258 122.289 77.8642V74.9626C122.289 74.201 121.672 73.5836 120.912 73.5836Z" fill="white"/>
</g>
<path d="M120.912 73.5836H84.3131C83.5528 73.5836 82.9366 74.201 82.9366 74.9626V77.8642C82.9366 78.6258 83.5528 79.2432 84.3131 79.2432H120.912C121.672 79.2432 122.289 78.6258 122.289 77.8642V74.9626C122.289 74.201 121.672 73.5836 120.912 73.5836Z" stroke="#263238" stroke-width="0.75" stroke-linecap="round" stroke-linejoin="round"/>
<path d="M118.4 47.192L82.2175 52.7065C81.4659 52.8211 80.9493 53.5243 81.0637 54.2773L81.4992 57.1459C81.6136 57.8989 82.3156 58.4164 83.0671 58.3018L119.25 52.7873C120.002 52.6728 120.518 51.9695 120.404 51.2165L119.968 48.3479C119.854 47.595 119.152 47.0775 118.4 47.192Z" fill="#E54F38" stroke="#263238" stroke-width="0.75" stroke-linecap="round" stroke-linejoin="round"/>
<path d="M28.8258 73.2153C28.8258 73.2153 25.6275 74.7972 24.9143 77.9765C24.9143 77.9765 24.008 77.0685 23.6468 80.9748C23.6468 80.9748 15.5745 95.9695 15.4811 102.422C15.3877 108.874 30.629 119.323 30.629 119.323C30.629 119.323 32.264 117.139 31.8996 115.142C31.8996 115.142 26.0043 103.966 23.0115 102.603C23.0115 102.603 26.3655 94.4251 28.6359 92.8807C30.9062 91.3363 28.8258 73.2153 28.8258 73.2153Z" fill="white" stroke="#263238" stroke-width="0.75" stroke-linecap="round" stroke-linejoin="round"/>
<path opacity="0.2" d="M22.999 102.603C22.999 102.603 25.5994 96.2753 27.767 93.6982C26.6583 90.8465 24.5966 86.1072 23.7184 87.7202C22.4727 89.9822 19.2432 101.582 21.0837 103.283C22.9243 104.983 19.9345 105.08 21.3142 107.339C22.4851 109.251 29.0812 115.588 31.6536 117.354C31.9231 116.65 32.0078 115.888 31.8996 115.142C31.8996 115.142 25.9918 103.966 22.999 102.603Z" fill="black"/>
<path d="M24.6278 81.577C24.6278 81.577 24.9392 86.257 26.0136 88.9277" stroke="#7F7F7F" stroke-width="0.75" stroke-linecap="round" stroke-linejoin="round"/>
<path d="M22.401 103.526C22.401 103.526 20.7006 105.355 18.3525 105.108" stroke="#7F7F7F" stroke-width="0.75" stroke-linecap="round" stroke-linejoin="round"/>
<path d="M29.0812 111.785L29.2556 117.323" stroke="#7F7F7F" stroke-width="0.75" stroke-linecap="round" stroke-linejoin="round"/>
<path d="M56.2876 121.504C56.2876 121.504 60.1057 133.472 60.822 139.391H29.8006C29.8006 139.391 29.5297 125.351 30.7069 120.867L56.2876 121.504Z" fill="#E54F38" stroke="#263238" stroke-width="0.75" stroke-linecap="round" stroke-linejoin="round"/>
<path d="M43.2419 136.211C43.9395 136.835 45.2973 139.378 45.2973 139.378" stroke="#263238" stroke-width="0.75" stroke-linecap="round" stroke-linejoin="round"/>
<path d="M36.6956 128.137C38.266 130.551 40.0292 132.834 41.9681 134.963" stroke="#263238" stroke-width="0.75" stroke-linecap="round" stroke-linejoin="round"/>
<path d="M45.1291 49.5346C45.1291 49.5346 47.4897 47.4161 46.9447 46.0807C46.2347 44.3429 44.4035 46.9294 44.4035 46.9294C44.4035 46.9294 45.1291 44.2649 43.5782 43.5972C41.9183 42.8858 40.5355 46.0214 40.5355 46.0214C40.5355 46.0214 40.1058 43.3289 37.7514 43.8998C35.7582 44.3866 37.3901 46.6267 35.7582 47.3537C34.1263 48.0806 28.7417 49.9589 29.7695 53.5937C29.7695 53.5937 28.3182 50.7451 27.7763 51.8964C27.2344 53.0477 29.1061 54.6233 29.8317 54.8042C29.8317 54.8042 28.6826 57.2285 29.5888 57.8962C30.4951 58.5638 30.3145 56.1396 30.3145 56.1396C30.3145 56.1396 30.9062 62.8164 37.3309 66.317C43.7557 69.8177 43.5782 58.205 43.5782 58.205L45.1914 52.9946L45.1291 49.5346Z" fill="#263238" stroke="#263238" stroke-width="0.75" stroke-linecap="round" stroke-linejoin="round"/>
<path d="M36.9479 49.051C34.2447 49.8996 30.1774 50.923 31.9401 56.3206" stroke="#7F7F7F" stroke-width="0.75" stroke-linecap="round" stroke-linejoin="round"/>
<path d="M100.545 76.5631V76.2511L101.812 75.7051V76.0359L100.94 76.4071L101.812 76.7753V77.1091L100.545 76.5631Z" fill="#263238"/>
<path d="M103.22 74.9564H103.612L102.46 77.8673H102.064L103.22 74.9564Z" fill="#263238"/>
<path d="M103.874 76.7784L104.749 76.4103L103.874 76.039V75.7083L105.141 76.2543V76.5663L103.874 77.1154V76.7784Z" fill="#263238"/>
<path d="M38.1157 44.9918C38.1157 44.9918 39.1248 47.0978 38.069 48.3489" stroke="#7F7F7F" stroke-width="0.75" stroke-linecap="round" stroke-linejoin="round"/>
<path d="M35.0326 59.6527C35.1758 59.9959 35.344 60.3516 35.5153 60.7197" stroke="#7F7F7F" stroke-width="0.75" stroke-linecap="round" stroke-linejoin="round"/>
<path d="M42.2079 47.179C41.6452 48.0775 40.8321 48.7912 39.8691 49.2319C37.0662 50.5798 32.6533 52.1304 34.5125 58.2206" stroke="#7F7F7F" stroke-width="0.75" stroke-linecap="round" stroke-linejoin="round"/>
<path d="M42.9522 44.7485C42.9441 45.1628 42.8759 45.5737 42.7498 45.9684" stroke="#7F7F7F" stroke-width="0.75" stroke-linecap="round" stroke-linejoin="round"/>
<path d="M38.0877 52.1398C36.6551 53.2443 38.7106 54.7075 39.567 56.5608" stroke="#7F7F7F" stroke-width="0.75" stroke-linecap="round" stroke-linejoin="round"/>
<path d="M46.0914 46.6891C46.0914 46.6891 43.4318 50.3239 39.5514 51.4721" stroke="#7F7F7F" stroke-width="0.75" stroke-linecap="round" stroke-linejoin="round"/>
<path d="M30.0747 121.685C30.0747 121.685 29.8909 115.133 28.9847 104.964C28.0784 94.7964 22.999 74.4353 30.0747 72.6163C37.1503 70.7974 51.2518 69.6554 56.0135 74.2512C61.2767 79.3399 57.2842 107.691 57.1035 112.599C56.9229 117.507 57.8292 123.138 57.8292 123.138C57.8292 123.138 39.0531 127.229 30.0747 121.685Z" fill="white" stroke="#263238" stroke-width="0.75" stroke-linecap="round" stroke-linejoin="round"/>
<path opacity="0.2" d="M57.1035 112.599C57.1752 110.63 57.8603 104.893 58.3181 98.3969C57.8354 95.3268 57.3838 92.4689 57.035 90.391C55.7457 82.566 43.4163 82.1386 34.0703 83.1713C29.5359 83.6642 27.8417 88.0884 27.2967 92.5126C27.9196 97.0896 28.6826 101.598 28.9846 104.993C29.8909 115.17 30.0746 121.713 30.0746 121.713C39.0531 127.257 57.8292 123.167 57.8292 123.167C57.8292 123.167 56.9229 117.507 57.1035 112.599Z" fill="black"/>
<path d="M44.827 69.8895V67.8303C44.827 67.8303 48.3399 68.3763 48.8226 67.4652C49.3054 66.5542 48.5112 62.8008 48.5112 62.8008C48.5112 62.8008 50.2023 62.8632 50.2023 62.0739C50.2023 61.2845 48.2091 57.9555 48.2091 57.9555C48.2091 57.9555 48.4489 55.291 48.2091 54.4423C47.9693 53.5937 45.4872 48.8076 45.4872 48.8076C45.4872 48.8076 41.8591 50.8044 41.9806 51.8964C42.102 52.9884 43.1297 54.018 42.292 54.9259C41.4542 55.8339 40.2957 58.2862 40.657 59.4531L40.1151 59.8337C40.1151 59.8337 39.8037 57.6497 38.6016 57.2878C37.3994 56.9259 36.4216 59.3501 37.2718 61.0318C38.122 62.7135 39.0874 62.4264 39.0874 62.4264C39.0874 62.4264 38.6016 65.3343 37.334 66.3046L36.951 69.331L44.827 69.8895Z" fill="white" stroke="#263238" stroke-width="0.75" stroke-linecap="round" stroke-linejoin="round"/>
<path d="M47.1565 58.0147C47.3732 58.0147 47.5489 57.6892 47.5489 57.2877C47.5489 56.8863 47.3732 56.5608 47.1565 56.5608C46.9398 56.5608 46.7641 56.8863 46.7641 57.2877C46.7641 57.6892 46.9398 58.0147 47.1565 58.0147Z" fill="#263238"/>
<path d="M44.4658 62.2673C44.4658 62.2673 44.7492 63.0535 47.0257 63.1752" stroke="#263238" stroke-width="0.75" stroke-linecap="round" stroke-linejoin="round"/>
<path d="M47.1565 55.2317C46.7961 55.1907 46.4328 55.2771 46.1291 55.4759C45.8255 55.6747 45.6007 55.9734 45.4935 56.3206" stroke="#263238" stroke-width="0.75" stroke-linecap="round" stroke-linejoin="round"/>
<path d="M34.5468 72.7536C34.5468 72.7536 32.1301 69.4651 34.5468 69.1032C36.9635 68.7413 46.8825 67.8895 48.4552 69.1032C50.0279 70.3169 46.0385 69.9518 45.7956 72.011C45.5527 74.0702 34.5468 72.7536 34.5468 72.7536Z" fill="white" stroke="#263238" stroke-width="0.75" stroke-linecap="round" stroke-linejoin="round"/>
<path d="M49.4735 57.8993C49.4735 59.0693 49.1341 60.0147 48.7137 60.0147C48.2932 60.0147 47.9538 59.0787 47.9538 57.8993C47.9538 56.7199 48.2932 55.7839 48.7137 55.7839C49.1341 55.7839 49.4735 56.7199 49.4735 57.8993Z" stroke="#263238" stroke-width="0.75" stroke-linecap="round" stroke-linejoin="round"/>
<path d="M49.3054 56.5608L40.9466 57.1848C40.3538 57.2258 39.7867 57.4431 39.3179 57.8088" stroke="#263238" stroke-linecap="round" stroke-linejoin="round"/>
<path d="M74.5249 64.6042L76.4993 60.1987C76.4993 60.1987 77.6516 55.422 78.5641 54.383C79.4766 53.3441 80.959 51.4658 81.4292 51.9869C81.7718 52.3613 81.3483 53.6405 80.5946 54.6233C79.7787 55.6903 80.442 56.6918 80.741 57.1193C81.0399 57.5467 82.8182 58.4234 84.2072 58.6044C85.5961 58.7854 88.3647 57.0257 89.3177 57.6434C90.2707 58.2612 88.3274 58.9414 88.3274 58.9414C88.3274 58.9414 89.8253 58.7417 90.1399 59.5841C90.3236 60.0833 88.7852 60.0739 88.0346 60.1488C87.2841 60.2237 85.7612 60.4608 85.7612 60.4608C85.7612 60.4608 88.4955 60.8102 88.4613 61.559C88.427 62.3078 86.409 61.6058 84.8767 61.6651C84.8767 61.6651 87.0754 62.233 86.954 62.9537C86.8325 63.6744 85.6709 62.9162 83.8397 62.598L79.5856 62.0582L78.2433 67.0315L74.5249 64.6042Z" fill="white" stroke="#263238" stroke-width="0.75" stroke-linecap="round" stroke-linejoin="round"/>
<path d="M87.2156 59.191C86.7368 59.4685 86.2076 59.6475 85.659 59.7177C85.1104 59.7879 84.5533 59.7478 84.0203 59.5997C84.0203 59.5997 84.2009 60.1894 84.0203 60.439C83.8397 60.6886 83.8615 61.1878 83.3974 61.506C83.1655 61.6731 82.9231 61.8253 82.6718 61.9615" stroke="#263238" stroke-width="0.75" stroke-linecap="round" stroke-linejoin="round"/>
<path d="M49.4735 71.4962C49.4735 71.4962 56.1693 71.5243 58.723 73.6147C58.723 73.6147 58.723 72.5258 60.7317 73.6147C60.7317 73.6147 66.8077 72.8877 69.6199 73.6147C69.6199 73.6147 73.0674 65.0721 75.1539 62.8008C75.1539 62.8008 78.1468 62.9849 78.9627 64.3452C79.352 64.9941 78.4333 68.5572 77.58 72.1857C76.6457 76.1918 75.6896 80.279 74.8799 80.6097C73.3383 81.2337 57.1035 82.7001 57.1035 82.7001L49.4735 78.7003V71.4962Z" fill="white" stroke="#263238" stroke-width="0.75" stroke-linecap="round" stroke-linejoin="round"/>
<path opacity="0.2" d="M79.0468 64.6947C78.966 64.6288 78.8728 64.58 78.7727 64.5511C76.4619 63.9271 75.3221 76.9438 73.5345 78.4788C71.7469 80.0139 62.0771 79.0217 59.6417 78.5131C57.8261 78.1356 58.2091 81.0622 58.5205 82.5691C62.5037 82.1979 73.6186 81.1308 74.8799 80.6098C75.6896 80.2759 76.6363 76.1887 77.58 72.1858C78.3336 68.9847 79.134 65.8366 79.0468 64.6947Z" fill="black"/>
<path d="M70.4358 73.9797C70.4358 73.9797 71.7967 74.2512 73.4286 76.4321" stroke="#7F7F7F" stroke-width="0.75" stroke-linecap="round" stroke-linejoin="round"/>
<path d="M59.4611 75.2059C59.9339 77.2842 59.9339 79.4425 59.4611 81.5208" stroke="#7F7F7F" stroke-width="0.75" stroke-linecap="round" stroke-linejoin="round"/>
<path d="M53.7495 72.7536C53.7495 72.7536 58.1095 75.0562 58.4209 81.5208" stroke="#7F7F7F" stroke-width="0.75" stroke-linecap="round" stroke-linejoin="round"/>
<path d="M54.0235 114.683C54.3215 114.303 54.5647 113.883 54.746 113.435" stroke="#7F7F7F" stroke-width="0.75" stroke-linecap="round" stroke-linejoin="round"/>
<path d="M33.217 118.171C33.217 118.171 47.5987 120.068 53.0581 115.654" stroke="#7F7F7F" stroke-width="0.75" stroke-linecap="round" stroke-linejoin="round"/>
<path d="M98.6512 53.706L98.399 52.1647C98.3769 52.0745 98.3737 51.9807 98.3896 51.8892C98.4054 51.7978 98.44 51.7105 98.4911 51.6331C98.5422 51.5556 98.6087 51.4895 98.6864 51.439C98.7642 51.3885 98.8516 51.3546 98.943 51.3395C99.0345 51.3244 99.1281 51.3284 99.2179 51.3513C99.3077 51.3741 99.3919 51.4154 99.4651 51.4723C99.5383 51.5293 99.5989 51.6008 99.6432 51.6824C99.6875 51.7639 99.7145 51.8538 99.7225 51.9463L99.7724 52.2583L99.3488 52.327L99.2928 51.9962C99.2616 51.809 99.1588 51.7466 99.0249 51.7685C98.891 51.7903 98.8132 51.8808 98.8443 52.0805L99.1059 53.681C99.1371 53.8714 99.2398 53.9306 99.3737 53.9057C99.5076 53.8807 99.5886 53.7965 99.5575 53.5937L99.4859 53.1569L99.9094 53.0882L99.9779 53.4907C99.9948 53.579 99.9938 53.6697 99.9752 53.7576C99.9565 53.8455 99.9205 53.9288 99.8692 54.0025C99.818 54.0762 99.7525 54.139 99.6767 54.187C99.6009 54.235 99.5163 54.2674 99.4278 54.2821C99.3393 54.2969 99.2488 54.2938 99.1615 54.273C99.0743 54.2522 98.9921 54.2142 98.9197 54.1611C98.8473 54.108 98.7863 54.0409 98.7402 53.9638C98.6941 53.8867 98.6638 53.8012 98.6512 53.7122V53.706Z" fill="#263238"/>
<path d="M100.174 53.4377L100.149 53.2723L100.573 53.2006L100.607 53.4003C100.641 53.6031 100.741 53.6623 100.884 53.6374C101.027 53.6124 101.105 53.5282 101.071 53.3254C101.037 53.1226 100.918 52.951 100.579 52.7419C100.149 52.4736 99.9873 52.2583 99.9343 51.9307C99.9034 51.8397 99.894 51.7427 99.9067 51.6474C99.9194 51.552 99.954 51.4609 100.008 51.3812C100.061 51.3015 100.133 51.2352 100.216 51.1877C100.3 51.1401 100.393 51.1125 100.489 51.1071C100.925 51.0353 101.183 51.2631 101.261 51.7311L101.28 51.8496L100.856 51.9183L100.831 51.7716C100.797 51.5657 100.7 51.5033 100.56 51.5251C100.42 51.547 100.345 51.6406 100.38 51.8371C100.414 52.0337 100.532 52.1835 100.869 52.3925C101.037 52.4657 101.186 52.5794 101.3 52.7236C101.415 52.8678 101.492 53.038 101.526 53.2193C101.555 53.3119 101.563 53.41 101.55 53.5062C101.536 53.6024 101.501 53.6944 101.447 53.7752C101.393 53.8561 101.322 53.9238 101.239 53.9734C101.155 54.023 101.062 54.0531 100.965 54.0617C100.514 54.121 100.252 53.8963 100.174 53.4377Z" fill="#263238"/>
<path d="M101.697 53.1849L101.669 53.0196L102.096 52.9509L102.127 53.1475C102.161 53.3534 102.264 53.4096 102.407 53.3877C102.55 53.3659 102.628 53.2754 102.594 53.0757C102.56 52.8761 102.438 52.7013 102.102 52.4923C101.672 52.2209 101.51 52.0087 101.457 51.6811C101.426 51.5903 101.417 51.4936 101.429 51.3984C101.442 51.3033 101.476 51.2124 101.53 51.1327C101.583 51.0531 101.654 50.9868 101.737 50.939C101.82 50.8913 101.913 50.8633 102.008 50.8574C102.448 50.7857 102.706 51.0103 102.781 51.4814L102.803 51.6L102.376 51.6717L102.351 51.5251C102.32 51.3192 102.223 51.2537 102.08 51.2786C101.937 51.3036 101.868 51.3941 101.899 51.5906C101.931 51.7872 102.055 51.9338 102.391 52.1429C102.559 52.219 102.705 52.335 102.817 52.4808C102.93 52.6265 103.005 52.7976 103.036 52.979C103.067 53.0714 103.076 53.1696 103.063 53.2661C103.05 53.3625 103.015 53.4548 102.962 53.5359C102.908 53.6171 102.837 53.6849 102.753 53.7344C102.669 53.7838 102.576 53.8136 102.479 53.8214C102.036 53.8682 101.772 53.6436 101.697 53.1849Z" fill="#263238"/>
</svg>
