<svg width="224" height="172" viewBox="0 0 224 172" fill="none" xmlns="http://www.w3.org/2000/svg">
<path d="M2.08986 27.1321C1.78981 26.7582 1.69986 25.9489 1.51434 25.3507C0.641625 22.6426 0.68994 21.7226 1.66298 21.9488C1.87501 21.9933 2.05293 21.7917 2.23845 21.7084C2.50159 19.9507 3.58634 21.8703 3.97347 20.6634C4.13912 20.9417 4.40605 21.1452 4.71746 21.2323C5.02982 21.3184 5.36391 21.2806 5.65072 21.1263C7.76245 20.3539 9.92819 19.7424 12.1289 19.2976C13.3992 19.1499 14.6788 19.1102 15.9538 19.1783C15.2752 18.1721 14.5416 17.2616 13.8137 16.3415C11.9935 14.0405 9.98971 11.888 7.97074 9.7394C7.55615 9.30115 6.46286 9.54914 7.32894 7.74409C7.63373 7.1951 8.00099 6.68303 8.42315 6.22017C10.0862 3.89547 10.8397 3.36443 11.2022 4.26648C11.2789 4.46147 11.5335 4.45485 11.7133 4.55708C13.2477 3.68816 12.321 5.68726 13.4976 5.27172C13.1852 6.28074 13.649 6.54481 14.0513 6.8496C15.8147 8.03467 17.4683 9.37497 18.9942 10.8554C20.4783 12.8147 21.8091 14.8867 22.9762 17.0533C23.4504 17.8039 23.9304 18.5451 24.4093 19.2853C25.6644 19.2805 26.9091 19.2947 28.1207 19.3667C31.1553 19.5796 34.2296 19.4377 37.1772 20.3974C39.1838 21.0733 41.3268 20.741 43.43 20.8527C44.3065 20.8982 44.6009 22.4685 44.1343 25.045C43.6676 27.6215 42.9208 27.3725 42.4352 27.4113C39.4403 27.5997 36.437 27.4804 33.4715 27.0526C32.1937 26.9437 30.9007 26.9267 29.621 26.9305C29.5074 26.8652 29.4089 26.708 29.2811 26.7364L28.592 26.7355C29.4572 28.2556 30.0961 29.8969 30.488 31.6064C30.8524 33.5818 32.1407 35.1881 33.003 36.9941C33.3645 37.7428 32.1113 38.7338 29.6758 39.5573C27.2404 40.3799 27.1003 39.6813 26.8239 39.3084C25.3303 36.9903 24.0647 34.5303 23.0453 31.9623C22.5323 30.8993 21.9654 29.8629 21.3454 28.8586C21.4003 28.763 21.4296 28.5784 21.386 28.5027C21.0046 27.8306 20.5976 27.1823 20.1802 26.5519C19.9909 26.497 19.7977 26.4534 19.6018 26.425C17.6472 26.2859 15.6822 26.3474 13.737 26.6068C10.5538 26.8519 7.3933 27.2987 4.2186 27.7265C3.55697 27.8543 3.0525 28.8936 2.08986 27.1321Z" fill="#E54F38" fill-opacity="0.17"/>
<path d="M25.6431 102.568C24.5489 99.6981 23.7254 96.7288 23.183 93.6999C22.8773 92.4136 22.4722 91.1461 22.0462 89.8929C22.1115 89.7784 22.1986 89.626 22.1512 89.5105C21.501 87.4225 20.739 85.3959 19.9505 83.3296C19.7773 82.7835 19.6486 82.224 19.5644 81.6561C17.7357 82.118 15.9145 82.633 14.1 83.1791C13.3693 83.4063 12.9272 84.5563 11.6002 83.0172C11.2225 82.7134 10.9811 81.906 10.7085 81.3722C9.35496 78.8695 9.28683 77.9343 10.4586 77.9447C10.7066 77.9476 10.8818 77.7062 11.0947 77.5746C11.1998 75.7648 12.6839 77.445 13.0133 76.1416C13.2831 76.3896 13.6286 76.5372 13.994 76.559C14.3603 76.5817 14.7228 76.4776 15.0228 76.2637C15.8141 75.9314 16.6537 75.6011 17.4081 75.2225C17.2643 74.9253 17.1289 74.6337 17.0001 74.3337C15.6447 71.3502 14.0886 68.4538 12.5571 65.5602C12.2306 64.9696 11.0701 64.8512 12.3565 63.2979C12.789 62.8398 13.2784 62.4394 13.8122 62.1063C16.012 60.2898 16.8601 60.0532 17.0428 61.0291C17.0646 61.2563 17.322 61.3528 17.4744 61.5024C19.2056 61.1247 17.8161 62.8597 19.0835 62.8114C18.5402 63.7646 18.9425 64.1584 19.2586 64.5909C20.7428 66.3638 22.0878 68.2503 23.2824 70.2323C23.731 71.1561 24.1163 72.1102 24.4353 73.088C26.8556 72.7747 29.3147 72.8116 31.7312 72.6602C34.9712 72.4207 38.2198 72.345 41.4654 72.4349C45.0841 72.6782 48.7235 72.6422 52.1935 73.85C54.5324 74.6905 57.0786 74.5741 59.55 74.9849C60.5704 75.1496 60.8137 76.7663 60.1227 79.2528C59.4317 81.7404 58.5562 81.4308 58.0006 81.4167C54.5514 81.2046 51.1173 80.8118 47.7126 80.2401C46.2369 80.0801 44.7537 79.9978 43.2686 79.994C43.1455 79.924 43.0329 79.7716 42.9004 79.7839C40.4659 79.6599 37.9661 79.8265 35.5174 79.9476C34.8605 79.9571 34.2026 79.9202 33.5514 79.8378C32.9409 80.0962 32.3284 79.7848 31.681 79.7564C30.0265 79.7271 28.3729 79.8681 26.7448 80.1776C27.432 82.048 28.1202 83.9174 28.6332 85.8521C29.4368 88.8375 30.5792 91.8636 30.6133 95.079C30.6124 97.2769 31.6147 99.276 32.1524 101.389C32.3795 102.263 30.9863 103.061 28.4675 103.458C25.9497 103.854 25.8314 103.029 25.6431 102.568Z" fill="#E54F38" fill-opacity="0.17"/>
<path d="M107.334 56.2668C107.099 52.899 107.313 49.7111 107.162 46.4162C107.14 45.7082 107.033 45.0162 106.946 44.3101C106.86 43.604 106.734 42.9253 106.593 42.2268C106.664 42.1028 106.751 41.9494 106.744 41.8321C106.463 40.2324 106.082 38.6536 105.606 37.1032C104.888 37.1107 104.174 37.1335 103.465 37.1458C99.6269 37.1562 95.7991 37.2366 91.9618 37.1344C91.1818 37.1183 90.3319 38.062 89.5964 36.1642C89.3418 35.7543 89.409 34.9337 89.3285 34.3061C88.9026 31.5366 89.1827 30.5843 90.2022 31.0141C90.4104 31.1333 90.6612 30.9345 90.8941 30.8778C91.5235 29.2024 92.3546 31.281 93.0219 30.1328C93.1847 30.4461 93.4535 30.6903 93.781 30.821C94.1076 30.9525 94.4721 30.9611 94.8071 30.8465C97.3193 30.5474 99.784 29.8934 102.316 29.7571C102.751 29.74 103.19 29.7627 103.577 29.7429C103.43 29.3046 103.256 28.8758 103.055 28.4603C102.599 27.4806 102.094 26.5227 101.547 25.5923C99.8011 22.5349 97.7452 19.6698 95.411 17.0412C94.915 16.5064 93.7347 16.6418 94.5752 14.7714C94.8677 14.2101 95.2378 13.6943 95.6751 13.238C97.3344 10.8991 98.1332 10.4192 98.6321 11.4992C98.7409 11.7254 99.0485 11.7368 99.2331 11.9176C100.885 11.2171 100.037 13.2986 101.294 13.0922C100.997 14.1864 101.54 14.5717 101.993 15.0071L104.87 17.7833C105.806 18.7478 106.649 19.7994 107.389 20.9239C109.057 23.5553 109.886 26.606 110.931 29.475L111.189 30.254C114.237 30.3108 117.292 30.1082 120.35 30.1413C123.795 30.1896 127.231 29.7466 130.695 30.3051C133.071 30.696 135.437 30.0363 137.804 29.7448C138.779 29.6179 139.441 31.1097 139.517 33.689C139.583 36.2683 138.618 36.1992 138.069 36.3384C134.519 37.0984 130.894 37.4335 127.278 37.3388C125.716 37.3474 124.164 37.4752 122.602 37.5575C122.479 37.4875 122.318 37.3956 122.224 37.3417C119.659 37.4562 117.075 37.5991 114.512 37.6938C114.108 37.7042 113.705 37.6768 113.306 37.6134C113.389 38.0393 113.496 38.4671 113.564 38.8969C114.115 42.4577 114.803 46.0991 114.108 49.7433C113.904 50.9728 113.818 52.2194 113.853 53.4641C113.908 54.7202 113.898 55.9791 113.82 57.2351C113.745 58.2915 112.16 58.6767 109.644 58.1902C107.128 57.7037 107.371 56.7941 107.334 56.2668Z" fill="#E54F38" fill-opacity="0.17"/>
<path d="M187.373 40.1693C187.004 37.3429 186.787 34.4967 186.73 31.6438C186.626 30.4237 186.446 29.2131 186.181 28.0195C186.247 27.905 186.323 27.762 186.361 27.6948L186.2 26.9064C182.537 27.4951 178.902 28.3214 175.286 29.2159C174.51 29.4166 173.961 30.5562 172.674 28.9897C172.295 28.6613 172.144 27.8539 171.888 27.2765C170.676 24.7028 170.686 23.761 171.869 23.8311C172.134 23.8396 172.323 23.6086 172.551 23.4884C172.768 21.6796 174.179 23.4288 174.586 22.1197C174.86 22.38 175.201 22.5419 175.58 22.5807C175.949 22.6185 176.327 22.5315 176.649 22.3327C177.955 21.8159 179.205 21.3644 180.473 20.84C181.742 20.3572 183.038 19.9692 184.354 19.6786C184.307 19.3473 184.354 18.9819 184.278 18.6497C183.843 16.821 183.161 15.0623 182.253 13.4238C180.899 10.6826 179.318 8.05789 177.539 5.57416C177.17 5.06966 176.043 5.14917 177.122 3.45296C177.482 2.93805 177.908 2.4714 178.391 2.06533C180.312 -0.0596504 181.098 -0.495056 181.42 0.53194C181.486 0.745861 181.751 0.808323 181.921 0.930424C183.597 0.343571 182.433 2.22247 183.672 2.03032C183.218 3.03744 183.672 3.38483 184.032 3.78995C184.808 4.63427 185.575 5.47858 186.323 6.35981C187.099 7.22211 187.78 8.16108 188.358 9.16251C189.683 11.5062 190.213 14.1972 191.027 16.7064L191.746 19.104C192.447 19.0851 193.157 19.0576 193.838 19.0283C197.18 18.8655 200.521 18.5541 203.862 18.6563C207.554 18.7756 211.33 18.6147 214.965 19.6237C217.426 20.3336 220.029 20.0638 222.594 20.2976C223.654 20.3856 224.052 21.9758 223.56 24.5126C223.068 27.0484 222.14 26.8004 221.562 26.825C217.909 26.8486 214.265 26.647 210.639 26.2182C209.068 26.1094 207.506 26.0885 205.973 26.0838C205.85 26.0138 205.689 25.922 205.585 25.8633C202.991 25.8538 200.398 26.0308 197.814 26.1984C197.123 26.2125 196.432 26.186 195.741 26.1169C195.107 26.3839 194.435 26.0649 193.772 26.0564C193.63 26.0488 193.479 26.0658 193.337 26.0583C193.933 28.7105 194.066 31.4498 193.725 34.154C193.327 36.2875 193.876 38.421 193.819 40.5867C193.829 41.4897 192.295 41.9015 189.74 41.5948C187.184 41.2881 187.468 40.5915 187.373 40.1693Z" fill="#E54F38" fill-opacity="0.17"/>
<path d="M162.525 110.55C161.465 107.661 160.689 104.677 160.187 101.639C159.913 100.344 159.534 99.069 159.136 97.8072C159.203 97.6927 159.288 97.5403 159.25 97.4305C158.654 95.3197 157.878 93.2487 157.177 91.1975C157.092 90.9401 157.035 90.676 156.997 90.4072C154.479 90.6419 151.952 90.8719 149.434 91.0281C148.63 91.0754 147.844 92.0901 146.945 90.2633C146.642 89.8657 146.652 89.046 146.51 88.4355C145.875 85.6603 146.046 84.7374 147.191 85.0355C147.428 85.1065 147.655 84.9078 147.882 84.8358C148.384 83.0999 149.415 85.1056 150.002 83.9082C150.201 84.2083 150.504 84.4279 150.854 84.5282C151.195 84.6295 151.574 84.6058 151.905 84.4619C152.993 84.2471 154.063 83.9385 155.161 83.6507L154.508 82.141C153.23 79.1178 151.763 76.1825 150.296 73.2379C149.993 72.633 148.838 72.4806 150.163 70.9643C150.608 70.5099 151.11 70.119 151.649 69.8029C153.902 68.0536 154.782 67.799 154.915 68.8213C154.943 69.0485 155.18 69.1488 155.331 69.3088C157.045 69.0229 155.596 70.7257 156.893 70.6689C156.685 70.9302 156.59 71.2577 156.609 71.589C156.628 71.9203 156.78 72.2298 157.016 72.456C158.455 74.2677 159.752 76.1892 160.897 78.2025C161.522 79.6005 162.023 81.0516 162.402 82.5386C164.456 82.442 166.482 82.5348 168.498 82.3975C171.669 82.1865 174.821 81.6943 177.982 81.487C181.513 81.2257 185.015 80.4429 188.593 80.7373C191.025 80.8613 193.42 80.0511 195.805 79.5456C196.799 79.3402 197.623 80.7657 197.888 83.3214C198.162 85.8761 197.197 85.9054 196.638 86.0928C193.07 87.1624 189.397 87.8146 185.687 88.037C184.087 88.1866 182.507 88.4497 180.916 88.6674C180.784 88.5926 180.623 88.5008 180.5 88.5037C177.878 88.8416 175.256 89.2183 172.615 89.5354C171.915 89.5799 171.214 89.5752 170.514 89.5212C169.87 89.8127 169.17 89.5165 168.507 89.5023C167.192 89.4862 165.885 89.5487 164.579 89.6897C165.033 91.0868 165.478 92.5028 165.895 93.9766C166.652 97.0472 167.693 100.053 167.674 103.252C167.665 105.459 168.592 107.464 169.075 109.574C169.293 110.453 167.883 111.215 165.327 111.557C162.781 111.897 162.705 111.011 162.525 110.55Z" fill="#E54F38" fill-opacity="0.17"/>
<path d="M93.0576 135.566C91.4002 132.866 90.1129 129.952 89.2288 126.902C88.8057 125.6 88.2681 124.346 87.7749 123.08C87.8403 122.965 87.9273 122.813 87.8611 122.687C87.0613 120.575 86.2255 118.482 85.4541 116.362C85.2837 115.782 85.1616 115.188 85.0887 114.587C84.6997 114.125 84.8454 113.476 84.7792 112.933C84.5823 111.919 84.3135 110.921 83.9755 109.948C80.7914 110.129 77.6214 110.483 74.4136 110.815C73.7652 110.875 73.203 111.906 72.3161 110.1C72.0359 109.713 71.9905 108.891 71.8201 108.288C71.0808 105.542 71.1688 104.619 72.1239 104.899C72.3312 104.953 72.5177 104.757 72.6985 104.683C73.0326 102.953 74.0274 104.922 74.4865 103.744C74.6342 104.031 74.8887 104.246 75.1954 104.346C75.5021 104.445 75.8353 104.419 76.1249 104.274C77.9432 103.832 79.7445 103.153 81.5846 102.825C80.9987 101.063 80.4364 99.3026 79.9149 97.5146C79.7237 96.8614 78.6087 96.4667 80.2036 95.2277C80.7337 94.8728 81.312 94.5983 81.9206 94.4127C84.4734 93.1643 85.3868 93.0781 85.295 94.0739C85.2723 94.2887 85.509 94.4241 85.6112 94.5954C87.3651 94.5727 85.6159 95.9499 86.8805 96.1279C86.6325 96.3371 86.4753 96.6343 86.4413 96.9571C86.4072 97.2789 86.499 97.6007 86.6969 97.8553C87.4768 99.5629 88.5871 101.13 89.316 102.797C89.6567 102.814 89.9975 102.831 90.3344 102.834C93.0368 102.883 95.7515 102.712 98.452 102.875C101.464 103.062 104.497 102.859 107.45 103.745C109.455 104.358 111.578 103.951 113.656 103.973C114.525 103.988 114.879 105.541 114.536 108.1C114.192 110.658 113.421 110.472 112.944 110.541C109.942 110.847 106.917 110.817 103.926 110.454C102.638 110.364 101.338 110.381 100.043 110.388C99.9295 110.324 99.8263 110.176 99.7118 110.2C97.5755 110.17 95.4202 110.281 93.2791 110.324C92.7074 110.303 92.1385 110.236 91.5772 110.124C91.5062 110.152 91.4305 110.165 91.3557 110.162C91.4466 110.529 91.5337 110.883 91.6444 111.237C92.4111 113.846 93.4381 116.352 94.2351 118.954C95.0983 121.834 96.4586 124.567 96.8145 127.613C97.0833 129.711 98.362 131.489 99.2556 133.35C99.6351 134.134 98.4084 135.166 96.0023 136.069C93.5962 136.972 93.3463 135.983 93.0576 135.566Z" fill="#E54F38" fill-opacity="0.17"/>
<path d="M163.199 171.16C162.025 168.569 161.097 165.876 160.406 163.114C160.037 161.949 159.611 160.805 159.119 159.687C159.176 159.582 159.261 159.429 159.204 159.319C158.456 157.441 157.548 155.623 156.686 153.818C156.648 153.725 156.611 153.631 156.592 153.533C154.822 153.457 153.042 153.519 151.281 153.719C148.092 153.944 144.93 154.367 141.74 154.759C141.087 154.843 140.557 155.881 139.611 154.1C139.317 153.723 139.232 152.904 139.062 152.311C138.219 149.585 138.276 148.671 139.26 148.911C139.469 148.957 139.639 148.765 139.828 148.671C140.112 146.924 141.172 148.852 141.579 147.656C141.74 147.937 141.996 148.145 142.308 148.235C142.621 148.324 142.952 148.29 143.245 148.138C145.356 147.39 147.524 146.801 149.72 146.374C150.979 146.25 152.247 146.233 153.506 146.321C153.411 146.164 153.317 146.006 153.222 145.84C151.67 143.24 149.918 140.761 148.139 138.295C147.76 137.79 146.634 137.88 147.723 136.198C148.082 135.688 148.518 135.223 148.991 134.816C150.941 132.717 151.755 132.298 152.01 133.253C152.067 133.462 152.323 133.504 152.493 133.626C154.112 132.982 153.014 134.899 154.206 134.601C153.752 135.608 154.225 135.877 154.519 136.246C155.314 137.051 156.071 137.787 156.866 138.544C157.652 139.303 158.371 140.134 159.005 141.028C160.028 142.736 160.898 144.535 161.589 146.404C162.952 146.385 164.325 146.396 165.688 146.49C168.707 146.698 171.774 146.536 174.727 147.486C176.725 148.147 178.864 147.799 180.975 147.887C181.836 147.926 182.139 149.487 181.694 152.09C181.249 154.692 180.501 154.428 180.019 154.482C177.027 154.695 174.017 154.594 171.045 154.182C169.758 154.067 168.471 154.065 167.183 154.063C167.07 153.998 166.975 153.847 166.852 153.875C166.18 153.86 165.518 153.87 164.855 153.885C165.044 154.346 165.234 154.822 165.413 155.302C166.332 158.078 167.676 160.824 167.846 163.865C167.922 165.93 169.001 167.761 169.607 169.735C169.872 170.553 168.499 171.367 165.972 171.846C163.445 172.326 163.407 171.568 163.199 171.16Z" fill="#E54F38" fill-opacity="0.17"/>
</svg>
